<mxfile modified="2020-12-08T13:18:26.890Z" host="app.diagrams.net" agent="5.0 (Windows NT 10.0; Win64; x64) AppleWebKit/537.36 (KHTML, like Gecko) Chrome/86.0.4240.198 Safari/537.36" etag="sL67ZFC3zzXpCHyt4W2e" version="13.10.4" type="github">
  <diagram id="Ht1M8jgEwFfnCIfOTk4-" name="Page-1">
    <mxGraphModel dx="2076" dy="1160" grid="1" gridSize="10" guides="1" tooltips="1" connect="1" arrows="1" fold="1" page="1" pageScale="1" pageWidth="3300" pageHeight="2339" math="0" shadow="0">
      <root>
        <mxCell id="0" />
        <mxCell id="1" parent="0" />
        <mxCell id="frwQdyB-kEVW_D3ccvK7-4" value="&lt;span style=&quot;color: rgb(35 , 47 , 62) ; font-size: 16px&quot;&gt;Amazon EC2&lt;/span&gt;" style="rounded=1;whiteSpace=wrap;html=1;fillColor=none;strokeColor=#707070;verticalAlign=top;" vertex="1" parent="1">
          <mxGeometry x="920" y="353" width="339" height="158" as="geometry" />
        </mxCell>
        <mxCell id="IOnJckYV8e3TUQ0V3vOb-7" value="" style="rounded=1;whiteSpace=wrap;html=1;strokeColor=#707070;fillColor=none;" parent="1" vertex="1">
          <mxGeometry x="867" y="1307" width="180" height="140" as="geometry" />
        </mxCell>
        <mxCell id="IOnJckYV8e3TUQ0V3vOb-5" value="&lt;b&gt;&lt;font style=&quot;font-size: 18px&quot;&gt;Bigdata&lt;/font&gt;&lt;/b&gt;" style="rounded=1;whiteSpace=wrap;html=1;fillColor=none;strokeColor=#707070;verticalAlign=top;" parent="1" vertex="1">
          <mxGeometry x="737" y="1100" width="350" height="164" as="geometry" />
        </mxCell>
        <mxCell id="UEzPUAAOIrF-is8g5C7q-125" style="edgeStyle=orthogonalEdgeStyle;rounded=0;orthogonalLoop=1;jettySize=auto;html=1;startArrow=open;startFill=0;endArrow=open;endFill=0;strokeWidth=2;strokeColor=#808080;" parent="1" edge="1">
          <mxGeometry relative="1" as="geometry">
            <Array as="points">
              <mxPoint x="530.5" y="101.5" />
              <mxPoint x="530.5" y="101.5" />
            </Array>
            <mxPoint x="568.5" y="101.42857142857144" as="targetPoint" />
          </mxGeometry>
        </mxCell>
        <mxCell id="UEzPUAAOIrF-is8g5C7q-137" value="" style="edgeStyle=orthogonalEdgeStyle;rounded=0;orthogonalLoop=1;jettySize=auto;html=1;startArrow=none;startFill=0;endArrow=open;endFill=0;strokeWidth=2;strokeColor=#808080;" parent="1" edge="1">
          <mxGeometry relative="1" as="geometry">
            <mxPoint x="930.5" y="162.5" as="targetPoint" />
          </mxGeometry>
        </mxCell>
        <mxCell id="fzYEetxtUc2qvv0lDvPF-2" value="User" style="shape=image;verticalLabelPosition=bottom;labelBackgroundColor=#ffffff;verticalAlign=top;aspect=fixed;imageAspect=0;image=data:image/png,iVBORw0KGgoAAAANSUhEUgAAAFMAAABTCAYAAADjsjsAAAAUl0lEQVR4AdXdB1RUd74H8OtmX/Ylu9n3snGTbJJNTGKXqFiwPEuiHjcvPlNdd+00pQmCAlKHIqLGBioKCCOKYDeJqDQRGKrYG7EyBYYuMCBNhO87vztcM0xmhjswo8Rz7vnPTCgzH76/f7t3JgxewL/WagVqr9yH/EQW7m05gsuWW5A10w1pY2yR+ok1zqkcIlNbRL41B6uZkfBgxnQ5vPqNhf8fJmHbgLn4wdwfOdvicD8xFzUP5S/gVQHM8/qtrVV1LN4V660QTXVGxsgVyB9tjwujHZA9yhbpI1cgTQWRA9WFSbhrGVN4MmMgYMYhkDGDoN94CF6ZjPBxSyEKEuLRPdnzeonGx3wsKcO9DYeQPcMVOaPskDfaHpkjbXD+k+VdEsjhqbfdYaqnlWC9mLHwZcbBnzFD4J+n4fgCbxTn3jA6qtGS2VpTj6KQk8ia4oyC0Q4QjbTRmDx1PPX7+mKq4xKsPzMe3i+Nx/GlAjy6JzUaqlEwK89fRf6XAhaRUqgOpM/93mJyuIQawJhhw19n4VLkSaOAGhSzva0dD8N+gmiULXJH2fUKkQM3FCaH6k2o/cxwfIkvmmvrDYpqMMwn9Y24uSacHVBocOEwetsaGpNQqV8NYMYjfII56iSlBgM1CGZbQxOurdiOgtEreQ8sfJEJc+/bc7BGw9SIS1tPWxqgdgydh5oHJQYB7TVme+sTXLULZSE1TW34omn7uszRtogfOg9uzOguc8yeAqp/Hw1OO4fPh0JW3mvQXmPe9t2HAtOVPRqptQGqPp4x2gaJM63g8fux7JxSHcMQ9ymhUdNXoLWhsVegvcKUxaex88bzI/nNGVWR+NxONbFGhqkNLtu6wvs/x8GdMTVKOukPEtjPDAkOm14MZn2hFBnj7SEa1bupjy7U1OFWyJpoj6LgQAS/ORWuzCijYbKrqH7jUXjifI9Be5TMjqftuGy9BfmjHQw2amtCTRliiQuznVF3KAR7Rn6B1cwnRsOkdNKqaevAr9CieNwj0B5hlp7KVZY3zyWhJig+jyV+bI47dgK0nYvEj98sgQtjYlRMAqWJ/Tmf3c8Hs+NJG/L/GYDc0YaZlGtDTR1hBToaYsLQkrQHNwLc4fuKGdyMWOqESZP69W/MQH1Jpd6geiez7HQem0pjTINUYZMGmuPS16uBrFgoju+APHo94qbPg/NzSmdmkNDImB0duGy9lcVUfeGGvk2JTBlqiaqd24CCeNQdDUVx5DpcF7jD++XxRptzUjLp8GHGYdP7c9BS26AXqF7JbJRWIN3Mnt2LNDSg6s9L/HAZbpp7AtmxgCiWxRTv9EdFzEb88NUSNp20j8m9eGO0vv3G4W5ClvEwJfuTjT6CJw2yQPY0BzT/EAlkHwAyD7CYRTv9UBwZBGlYIHYMmm30cqeB6OzqbcbDpF1y2h1XTZEhbycPtkDaqOWo2RsK5B8Ezsd0wZTuDkRpdDAKg70Q1H8KXIw4VaJSDx0xH0+bW3mD8i7z1toGZM1yYzd5DQnI/SyCpNsV27f+AqkBk0DL923AVR83BLw+0WigNIn37jcW5dfvGx6TVjznx9ix52o4AIO0Jtag+WSGmQ2qd4cAeQeB9BhlKrVgsqAxG3AjYC02vTsdzswIg6/buRXRjbgkw2NWpl/T69wNH+jkIRZI/Eg5BWo4tOfXkDowCbRs3wY82CZAzOSvsYYZxa6QDDkw+THjIdq03/CY8hMi9oRYWi9XPTTtoZKmNGZNsYdUEIz2tH1AbuwvaSRE7lAZgAhQ/ZDvXc/2oxk2dtg2YCa770l9qSG27Gh77rTj94bHlMYoR3K+k/WU4VZIHmIJSh/h0SScAGmAKZjjDLFXEFoTopT9Y+b+X/A4RK7tBpNwZXvWsf0otWlWNuw63u+PE9mk0hKU1vS0uUyHPisowjxh7m94THHkGfaUBK/yHWyB9HE2yJ3hiPzZTrg4dzVuLPFgU6g4EIYOSiL1jaID2hH1wOTSWhyhRC2JDMLt9Z44b22Lg9PnIWzo5wgdOBtb/j4DgX+ezO4+8ekOCPPoEl9jYJ5mzzZ2h5k82BJX57vh8dE9aEuMxtOkaCAtBsiJVaaQ2gwdSeQQuZZHMjlMrqWEUvmXx2xAmXADe5seE+8IwL3NvoidNo/XaZAXipk6zAoZZrZoPh4BFMQBVL50EJ7qCM1B8Wl7gMmhcq1sTyBk4etAyaVBi2Appd2dV3qhmNRH5s12QnuyUInIB6u7rzEAJodKLUGWCoMRPf7LbueoLwbTxBrnTKxBJZ43ywlPE6P1w0zXkdxuMGW7A1G8Z92vRnlVQNXbbBcQtR57x87tXOPT9UpdLwjj1vrPD9PEGilDrZA8yBIpw6xApxiSBlogd6Yjf0wq/dw4IPugshVpmB5pwZTQ0jIiCI+EG1GxNxg1wo0sKj2uiqd+m8OMNP0/rGJM2PNKNI2ieSqdFlEdmJ4LJiGy52dm2OPqclfcdvVA4VpP3FqzFg8C/dCeIgQobbpKmCCzDuJsiD9WLF2MIBc7VCeEs7tEXb5PCyZB/hwiwKpv5mLOxMnYbLkQ8vAgXiktjghCus1yHPnfb3F87j9xbM48HJj2Jb5/dxqLyZ1rMjpmymBLiKbZsXj0Vy8RBqE4OgjFUUGQ7V2H8v0b0X6OB2ZuHM6E+OMD06l4c8QkvD50ApYuWIDGVOpvVaZMGjCprAlz/ozPwLz8BphX3gTz6pvYbLGATah6GtXvF4evw/UAF+SuXo58Nxv2uLDWFtnOy/Hjd//Gpr9NZZNqVMy84fbI+YcDxNv9WURZeNeSkuwKQGnUhu4xKbXZB9lEvmkyCcMmfIaB46ZjyITPcDt2q7LsuVRrwCyPXI9Lmzzw1nsf43f/9S5e7f8+mD++haljzSCPCEJJuO4+lDCv+K5CpoMlspysnx3Zq5Yj390WmSutEDJwBnsKwyjzzIdhCbgydRXE2/zZFKr/tem+Xpg5cQhytsPrwyawkO+M+h+MnTYb8hO72FMVz0pdAyal8k6oAMMGm7CJfPkv74F5uT8WzJqJqijl1EfT8+Me04bJweauWQGRoxW2v/0p4hd5GX7S/nB3Aoo9lInknpR6yxuTUieKZftIKm1KJEEe2ejVFZK+TgMm/d6qqGBErbTEe+8Pxitv/B1jTEwhCnJlByP156V+vztMQs13t0HSt4twZKmP4THlx5NRs2cTO/lVf3Lcfb0wO0GfpApxK3Yr5CcpkbT9pjZwacGk31m5N5gt99PejuxgROUvCeva9XDPTbXlg5m9yhqXV9sh3csIGx3VaWlQCDdDukf7k9Ubk0AzDij7yCwN0yIdyeRwCJBKm0qfe6y7lg8mpfOqmz2u7gwzfDJrctLQsH+LzifcI0wCUz9oIyRNCJyLAtKFqDu0BUXbvSDdKVAeYf46n4ehMK+5OeB2dIQxMM8bF5PwUvcCKZEsZIcoHu05x9F+MQG1KYchjg+H9MBOSGO2Q0ornlAfSEO9Id3lpzcs32Rec7PHrSgjYFadM1KZn4tWAmYcQFvBabTcvYTH5SWor6mFor4R9Y0tKK9SoEhSBrFEDkmRDJLCnyHNyYD0eAykUZsg3eED6U5f3qh8ManMr+wwQpmXHE3Go7CNkEVon8PpVeadiB2ZcWi5U4CGqkrUNbahthWobQFqm9tR1/QUiuZ2lD9qQJGsEmJ5FcTyaohLayAur4O49BEk94uUsPtDlag7ukflg0lzzssudkjz4H+ZIe+zkzQ1kq4RoES4XmsCeGGyiBHoyDqE5nuXUV9b1wnYgbqmNtQ1PulyKJraUF5djyJpOcTFFWpHJQsqrlBAIi2FJE8E6cEwSEO8IWVRAzQ+Vz6YF9xtcfarBTiyxAhTI8K8PNkJRZv92OWjpk5eJ2YnYnvWETTfufgLIiVQDVD1vm5MFVxKbUUdxLJySKgLiNutktSuqN1h5rmuQIa9Jbb2n4ZDi7wNPwCJI08jn5aTsxxQtMUPJfuCfjXn1IjZWc7tWYfZclbU1SuT2A0iB8obk0ttSRXbBUiKKyDJyYT04C5lSlWSqg2T1ua0nMyws8TWAZ/CmxmDo4uNeNqCLkDNmGSLW2s82OUjbXCwGx3R3EbHJuXanEbnlEjQqNx89yL0RewxphqqWFYGaV4WpAd2PEMlzOuBXTc68txskOVojZNfzUfQG8rzREbd6KC37dE5oGdbcJ/a4eJ8Z3Yb7rqdG9veXeuD9sQIdGQfQsvdy1BwfSLPJHKIXKt3MjlMrqWkUvlTn5qfDdnBXSgJEyBpsTmEU+YgdvpX2D9lLvaM/Ac2vjX1+W7BPTuh1rk5TFtylFY6Ej80R+5UWzTnJaO+Qb9y5vDU215jcqhsn6oAlb887RTCR3yOlcwwdkOYNoaVm8Ojn//m8DNQtbc0pwxahrwvXFFXWYO6p9A5sKijabtvMMxOVElZDUoqaxA1wwIuzFCdlyU+lzLXijlwKfK+E6C2rhGKVt2jtDY89ccNjimvRPEjBaK+dIELM7gPYw5ehqwvPFFdXgfFk46+mUx5FWQVNQifbY/VzJC+i5k6xBwZU5xR8aAc9X21zEur2bnolhF0IcLwPow53BKpJlYoybsDuhpcvWR7ct/QZS6rrEXhlTsQvDYVbt1cLPtC+0zqS5M+WIg7kWdBb0vqCZ769xgas7ShCak7DmMNM7TLyM2dK1dtXzhm8sdLkDsvEHWNrVC0PO01qCExJSWVKKmpR/TXrt0OPoT6wjFTh1vi3AgrlOQUGqTUDYlZXF3Hlrj/G591W+J9ApNKPfnDRbjkFIb69g7UNfcunYbELK1vwmHbYLgwg3QOPFypv/BksnNQelPUoKUQn8rvdd9pEExZOUrrG3El9QK8X53AK5V9JpkESpiZM1xR+bBMWe6Pu+5Tqg802u73GlNWDirvh2I5to9d2O3ckktln8Jky33AQuT9KwiPKhU97j97hSmrQHFVLTtJF37rCmee5c2B9o0yV1mzJw9YhLwF61FdUq0seQ276dpSSY/3BlNe28DuzAvnubGjt+oVbhyYrrbPYXIDUtbnHijOvMkmtL6D/xy0J5iyyhqUNbbgetY1hE5e2gmp/wem9ElMFvTjxexe6HXfGJT/XMymVNHWPao+mJKyRyzi3dtFOOkRAsHrUzvnkz1702qfxSTQ1GEW7Arp/Dg73Aw+hCqxHPXtgKIVGk+m8S1zQpQ9asDD+xKcCYrC+gGfw4UZyHvU1lbqfRqTQOlIGWKOpPcXoNDTFxV5yagpK0ddC6CgzZEWOkv59BmuxmSWVEJSWg1JpQLSSgUe3hOj8MwppK9ygjszHC7MMF7zSG2I3OO/CUy6/p2uPC5c4w7Zbh9IIzdAnhCPqpvXUFNdwy5BKa3UDVByKxqeQFKhgLS6gcWTyKtR9FCGOzl5uBodgTwvF2Q7LEHq0oXw+b3hPrLnt4Xp7qm81nOXHyQhXpCE+kAm3AL5cSFKk06iXJSCqoIsSETpuPHjj7h+OB7X9gtxMeR75AncIXKwQObyhRDZmyNn9XKcszKHz3+MN9jnH/1mMDMGLcNdSmaUytVrYQGQ7vRjUSUh3iywbKcvrvs64vzyhchcsUh52CyGyH4Zshytnl31S5hpFkvhz4yEu4E+6qzPY2YMM8eFDxbgxIRVyF0fDHmk9ksU6UIHupj/RsBqZNibP4PjrvBVbXOdrXF2pQOc3p0LX2YQfLrZ+OX6RV2t0TCLwhN4vd2PG2TUWxZxwAKcGWuHNW4xeO9yGSJ/OoYaupJNx9tNWMzANchwsNCJWeCwFEe9/fDfUVWYtHAvHP86G/4s6ogeD0aEecQYV3RIhIm41IMP0GMRP1yIRFNbuKyNxQcX5GDqAEYB7P3hCGpDvQyH6eWDl44AzE/AnyKrMGmxEE5/mQl/ZiB8GP1R6XM6jhnjjagNd2TInOiIS6aO7Od00Gd1aD8ckD/cGgUDFiLJ1AarPGPxUW6xErEWYMoAphLYnvAD6kM8DIJ52X4RdvltQ7/4DjDxAHO0EzWcUKPh2H8WApiP4c+YsJu+lDpdB32ytv/vzPT6bDjeV8HR1Uu1Vx/gbnA8Cn33oVAQo/F44Lcf5f4xuOglhHvQUQzMkYKpBxgOsRRg6KgCbDJzoQjxNAjmDft/w2HTcTCUzDiVg1BPAa9FVGDawkhs+dYLaU6+SLAWsKmjt6aoH0cW++DkMj8UntTvQ/b0wuRzOVgHgHgAZs3AS00aEDnMCuCju9W4H74ech1X//LpM7MdrXDRcRmmh10Dc1gFUh31J2BAGrC9BHjE58Xo+TUGw6SzkXubgKHVUCaR+kUqZw5PvaX/Vg7EnIhn06ntPY98MC85LMaxtZ54LbZJWeKqiOq3Kbk/Au8kAoKfATn/T9rplrbXmM0A9jR1wKRGOajQwKITURW1Eph4Q4LisACUaklnd5iUyqsOizBnR572VKqD0v3OPvXtnwCPmx2Q0Qvp5b8eYzZ3AOFNgCkhNnRC6kqiKqLq7SpgVboIDSEeKNHwLgpdmNlOVrhl9y8EBUai3yF0n0ptqKeAdxI64HkbKG7puajemLRWDm8ERlV1gHncC0QOtAz4XVkH1iWeRV2oFyro7Skq805tmHmOFixkqN92/OlgMxjC1ITF97HOpP7tNCAoBKQ9SKpemIebgBE0KvcmiRyialsOMBXAClEufo7YiPoQTxaVkloSsQ43OiftVNL5K81x3X4B8pys4LohDn+Ie9J7SFXwTtT+p4BNdzvQRiMqz3+8MTNaaW7YmcaelLMqnqbb9DOrgIH3qvD9mQRcFG5j+9LaMAGkvna4ajsfBY7LkLzaEVv9d2BM5F1lH0lzSlUMQ90+BjCngd0PeUpCj/+FTSClsU3H6KwJqCePVSgn9P3FjzHphhjfXbmJ+cdy8M3mdEwLu4b39lUqk6htCmQoTPo5p4B5OfyjyTuZR5sBhuaNNPXpCZK+30OlXwnlqukiwByEMom97Rv1wT4DeN8yQjKp7xAogNerO9j+7bmA0h+gCmByASbGSOWsCTce6HcUWFLQgdon/DH/H6ZnUhOnZsS2AAAAAElFTkSuQmCC;fontSize=16;" parent="1" vertex="1">
          <mxGeometry x="146.5" y="380" width="83" height="83" as="geometry" />
        </mxCell>
        <mxCell id="fzYEetxtUc2qvv0lDvPF-3" value="Gate" style="shape=image;verticalLabelPosition=bottom;labelBackgroundColor=#ffffff;verticalAlign=top;aspect=fixed;imageAspect=0;image=data:image/png,iVBORw0KGgoAAAANSUhEUgAAAGIAAABjCAYAAABg+dWrAAALf0lEQVR4Ae1ddagVTRR/dnd3iyiK/WxF7Hii2C2IhWKh/mEXit2oGM9CMZ/xh4qF3YGBrc/G7tbz8Vs8w9x7t+7e3fvim4FldndmZ8+c35kzZ2bvPSeCVDLlwMuXLykmJoYGDhxIVapUoUyZMlHq1Kkpc+bMVL16dRo0aBDt2bOH3r9/b9qOVWGEVYX/e3nv3r0pIiLC8siVKxeNHTuW3r5964hlCggLth09etQSBBmookWL0u7duy1aDSxWQATyJOBOr169qE2bNrR48WLav38/nT59mg4ePEjLli2j7t27U5YsWXzASpo0KS1YsCCgHbMbCggz7tgsi42NpZEjR1KKFCl8AJk7d67NFogUELZZZV0RoyVfvnwCjGTJktHevXutHyQHQFy9epWWL19Oq1evTtDHqlWrKDo6ml69emWLUVzp79+/fKqb37p1iwoVKiTAwCR+//593bryzaBHxOTJk8VL5EkqoZ5D31slMHf06NEUFRVFkZGR1KBBAxo+fDidPXtW99FTp05R2rRpBZ8wx1iloIGYMWOGeEFCZT7TnSRJEjp37pwVj+jQoUO6fYbq6du3L339+jWgjXnz5olnsO64efNmQB35hidAFCtWTJMeSE6tWrWoZs2a8eKoXbu2JtEpU6bUmATrxg4QYFiLFi0EYxlIzuvUqUMfP36U+Urfvn2jkiVLimeGDh3qU+5/ERIQ2bJlo4wZM4qXMWGYsCZMmEBPnz71f1+cX2PBxRNqMEBcvHiRxo8fTytWrKBx48ZRuXLlfPrdrl27gL7NmTNH1KlQoQL9/v07oA7fCAmITp060b1796hfv36UIUMG8VIGJGfOnDRs2DC6c+cOvy/O83fv3jkCwp9wqCOoJe4r8m3btvlUu3z5MiVPnlyrA/V09+5dn3L5IiQg2rZtK9rCSzFCZML4HCD179+frl27Juq7eQIGQHVgMm3ZsiVBepGwP4RrHNgTQnILCK0xImratKnoc926dfm2lkM9yRbUgQMHfMrlC9eAwLArUqSIRhQmwXTp0gkCGZA0adJQt27d6MyZMzINIZ9PnDjR513YhEMqUKCAuA+GIGFzzo5qOn78OA0ePJjq169PzZs3pylTphAWbv7pyJEj4h3YEHzy5IlPFWwUcv+3bt3qUyZfuAbEp0+fBPoAYteuXTRr1iwqXLiwIIQJgrXRvn17QmfdSJiPuG3kvNeTN29ecT9//vzaq+wAMWbMGML8IbeJc6wJGGSm+8WLFz6awF/IatSoIdrZuHEjPxaQewIEiGb1gMkRS/0SJUoIguQOQqXs27cvgLBgbsCenz59OsG0Rv7gwQPtcSw6cY0D50hWkzVolenzP8eovnDhgiBPBgLgyWXQEqVKlRLtma2yPQPi5MmTglicfPjwgZYsWRJgbXBHGzZsGCBtPg24dIGVtJFqev78uc8GXvHixWnatGk0YsQIH1WLOYcTjBUYJegHFnFog9Pjx4+FEQOQsCthlMIGBBPw48cPWrNmDVWuXFlICoOBHOsODOFfv37xI47zR48eaRYbrDYwBenNmzeGQGzevFnQBObKWxPr1q0T6grGBzMcWx4PHz7UNv06dOhAf/78EfSuXbtWtIc56vPnz6LM/yTsQDABYPSmTZsIiyEZCD7HJIeOADinqWrVqpokw3CoVq2a1ozZHDF79mxBS7NmzXxeCybiqxzTZybd/OD169epZ8+ehAWkbGFyuZzHGRAyEZhcoZq4k3JetmxZ7TsAVFuwCR9puC2oGSQzIGQJhgUor5axsyqvCTDa7KZLly4RQDFL8QIIJhCdbdWqFcHqYgZyju0CTKRYB9hNWM1CGnFUqlRJe8wMCKgiLLz4nVgXbN++XVtNw+ri+9gqkVWQXXrM6sUrIJhQmLXQtzBzufOcQ9dOmjSJnj17xtUNc6xkoUJw8KrWbI5AQ5iY+V1GeahWnh7B8RIIJhRmKbaQ5S1lZk6ePHkI9j5PwvyMVf769WvDyRrPYk7q3LmzLhhQTfhc6kWK10Bwh6FfsUWit5+FbZUhQ4ZYbjNzW1ZAcD1YSVhRY54pXbq09m36xIkTXOx6niCA4F7jAw0+yGTPnj1AYgHSgAEDLPez7ALB78R+0c+fP/nSszxBAcFcgMUCtZQ7d+4AQDCHmE3owQLB7/Q6T5BAMFMwYU+dOtVnPwv7QWbfoRUQzD0Pcmyn8CSO7Qsw2ygpIIw448L9K1euKCCYj/I2OKTTf9OP63mRY8dTjYh/nFVAhCZiCXqy5q6rESF9s1YjgsXCWa5GhI0fmDljbXBPKSAUEMFJjFltNUeoOcJMPoIqU6pJqaagBMa0slJNSjWZCkgwhUo1KdUUjLyY11WqSakmcwkJolSpJqWaghAXi6pKNSnVZCEi9ouValKqyb60WNVUqkmpJisZsV2uVJNSTbaFxbKiUk1KNVkKid0KSjUp1WRXVqzrKdWkVJO1lNisoVSTUk02RcVGNaWawqCa8KfBpUuXaq554OoBB9z04B+gnBQQYQAC/8dmZyv8Q2Pk/L9pgKGACBMQ8v+lGQy4g+akgAgDEFBN8KkKB7jwaIOjdevWmtseBcQ/X9myWwP1I2QWC2e5Ml8Tm/kKvxVZs2YV/9w5duyYM9Fw8JSaI6Q5As4Ge/ToQY0bN9aOGzduOGCps0cUEBIQzljozlMKCAWEO5LkxEm77JJatprgJgGOz+HKB4cd7zFu9UKNCGlEYLKWPXwhEkm4kgJCAgLriIIFCwqrSf3POjgxdG0dgRGRI0cOAYQyX+MICGzO7dy5k9avX08bNmwwdUwSHInWtZVqklSTNbu8q6GA8AMCPlCxSee240ErCBUQEhBfvnwh+EotX768dsBjTLhSMEBAWNh5ezDxI7zui6uTteziLT5M1t+/f9diA/Xp04dwIM4FtmHYk3+iBALmK/vIxscbtzzh25FEoxHhvxHJH5U4T5RAQDXBYS2+piHGEHvLt8PIUOsoIKQ5AroXYEAKcZjF0wmV8f7PGwEB1YQAHHBHimBL8JAJ9ZQ+fXptvZMoR4Q/c8J5bQSEHg0QkEQxWcuRpORNP71Oh+ueDAR8eGO+MkooYz/fGBHhtO6MaMJ9Q6sJwxpuO3HAMyQfchgZuG6OD0kGAq6qb9++LehlujlHGepgwgYQCMDEZUY5eAB162UyBALBNBBjDjuq8oHQLmx1wFUzwrXoRSb0kmj/tmUgwFwEXZJpls9RhjrcB3hQlsv1zsEHhHrzMhkCsXLlSkEsE22UI6QA4s3BZA3nJM2MkYEwojHU+40aNeLXeZIbAoHwM3rE68V2kOtVrFhRCysQTt2rB4QVnTLNds7luEJeIGEIBOIsoINYD8gHooPgGqEimzRpohtSAB1DkO169erRwoULfWL1eNEJGQgsKhHklemUaXd6fv78eS0CpRe0c5uGQHAFqxxRaWfOnEmIt2YkhdDDkCiEIPPiE6oMBCwieLhPaClkIOQOIxIu4j6XKVNGV61hpGA/qmPHjrRlyxYtJpz8vNNzGQgr3+BO3+H1c64CwcTihwSHDx/W4oNiu8NIB0N6EXgVsYVCkWIFBHPeJMcCCmElEaKG7Xc9YGAKjxo1ylEcUwWECQB6RVgY4TMqftkNe14PENxDDDrEhbAT6w3vUUDocdvmPUQzRMhMRMfliOv+wMDywo7u/PnzRdQsveYVEHpccXAPca4REzQyMtJwlOBjDiyv6OhoEZ6SX6WAYE64mCPkGSwvRGT0HyF8jbVC165dKSYmRtteQSxSNp2V1eQiGGgKP8+B5YUo7Xr/oWNQEJ4Z0Rw5fKUCwmUg5OYQp3THjh3UpUsXnx+xMRhyroCQOefhOcIXY56IiorSDRCogPCQ+UZNI8grQlbC8kqVKpU2p+BfS9gnS2jJk5V1XDAhNjaWFi1apIW15KDfcUGH03f+By2g1f5KJvxiAAAAAElFTkSuQmCC;fontSize=16;" parent="1" vertex="1">
          <mxGeometry x="337.88" y="380" width="83" height="83.85" as="geometry" />
        </mxCell>
        <mxCell id="fzYEetxtUc2qvv0lDvPF-9" value="raspberry pi&#xa;" style="shape=image;verticalLabelPosition=bottom;labelBackgroundColor=#ffffff;verticalAlign=top;aspect=fixed;imageAspect=0;image=data:image/png,iVBORw0KGgoAAAANSUhEUgAAAQAAAAEACAYAAABccqhmAAAABHNCSVQICAgIfAhkiAAAAAlwSFlzAAAG7AAABuwBHnU4NQAAABl0RVh0U29mdHdhcmUAd3d3Lmlua3NjYXBlLm9yZ5vuPBoAACAASURBVHic7J13eFVV1offfdMrSQjphRZC70gLvSMdG6ijjnXs44wztrGPlfGzjWXsOiqKDem9ht5CCS1AAklI773c/f1xwUFMcve599ySmPd5eFCyzzkryd3r7L32Wr8lpJS08vtCCBEA9ANqgQNSyjIHm9SKgzA42oBW7IcQoqcQ4mcgD1gPbAHOCyEWCCFcHWtdK45AtK4AWj5CiEjgWeBmGnf6S6SUM+xmVCtOQasDaMEIIfyBvwN/BrwULrlWSvmtba1qxZlo3QK0QIQQbkKI+4BTwGOoTX6AG21nVSvOSOu+r4UhhBgGfAJ0seDy7jqb04qT07oCaCEIIdyFEC9hCuxZMvkBcnU0qZVmQOsKoAUghOgLfA70svJWq3Uwp5VmRGsQsBkjhHABHgWeBNysvF0J0FFKmW+1Ya00G1pXAM0UIURn4EvgCp1u+Xzr5P/90boCaIYIIUYD3wNBOt3yJNBTSlmj0/1aaSa0BgGbGUKIWzHt1fWa/AB/aZ38v09aVwDNBCGEAXgZ+KvOtz4ppbT01KCVZk5rDKAZIITwAb4CbJGq25r59zum1QE4OUKIMGAF0NdGj2h1AL9jWrcATowQIgTYgO0y9FKllB1sdO9WmgGtQUAnRQgRDKzFtum5KTa8dyvNgFYH4IQIIYKANViQ2RfQzpsB45Vf6ula799Ky6LVATgZF9R61mDBnj8qLohnv59LTFflE8JWB/A7pzUI6EQIIXyBVUB/rdf2GBbFg/+ehLefO9KofFmrFNjvnFYH4CQIIQTwGRak9o6YE8/tL4zGxdW0oDMalT1AiNZntdKyaHUAzsOjwBytF819YBBz7hv4q3/z9vNQvTxU6/NaaVm0OgAnQAgxBXhOyzWubgZuf3EMCbN+m8TXNsJX9TatK4DfOa0OwMFcqOr7Cg0BWU8fN/7y/hS6D4ls8OvBkX6qt1L2FK20TFpPARzIhaDfT0CA6jUuLgbuf2tio5MfIFh9BVCnOrCVlkmrA3AsrwI9tFxw01MJ9BkZ0+SYoDBfYrq1Vbndbi3PbqXl0eoAHIQQYiRwp5ZrrrytL+Pmq/mLyTf1NjekBnhTy/NbaXm0OgAHIITwBD4AhOo1gyZ1ZN7fhig/Y9RVXZl6a5/GvlwDXC2lTFO+YSstktZiIAcghHgReER1fKc+ITzx5UzcPbXHbPetT2XlJwfJSi3GaJQIIX4uyCp7Skp5QPPNWmlxtDoAO3NBwXc3iicwwZF+PPv9XNoEq/b2MMtb8zu9c79eN2uledPqAOyMEGInitl+Hl5uPPfjXCI7B+ppQh4QMb/TO7V63rSV5klrDMCOCCFmoCHVd859A/Se/ADBwJV637SV5kmrA7ATF3L9n1EdHxUXxJQ/NhrEs5Y7bHXjVpoXrQ7AfsxBscRXCPjjcyN/Ke6xAVO+OnX3WCFEWyHEXCHEHCFEN1s9rBXnpTUV2A5cePs/rTp+5NyuxA8Mt5k9tTX1vPfw+u8AH8D94r8LIdYCN0spM2z28FacitYVgH24CuipMtA3wJN5fx9qM0Pq64z8647l7FiWEsglk/8C44H1QojWKsHfCa0OwD7crjrwur8NwS/Q02aG7Fx+ikNbmxQC6gL8w2YGtOJUtDoAGyOEiATGqYzt1CeE0Vfbdiu+6ftjKsNuFELolnjQivPS6gBsz40o/pwn/qEXQjk52DJKCipVhvljOi5spYXT6gBszx9UBnn7ezB4cidb24K7h3Lct8qWdrTiHLSeAljABc3+XpgCe92AeqD4kj8lF/4OvvB1syTMjMPNw8Um9l7KsBlxpBzINjdsm5Qy1+bGtOJwWh2AGYQQrsBsYBimCd8LG2jpjbnWlv0//seI2fGsX5hM+omCxobUo1GerJXmS+sWoBGEEEFCiEeAVEz98x7EdEym++Tv1CeEmK5KAh5W4+3nzpNfz6JL/7DffM3V3UVGdAy4W0q50i7GtOJwWouBLkMIEQ88ANwEeNvjmbf9c5TdVgAXqa2p58i2DJJ3ZFBWXEXfUbH0HhGNp4/bemDC/E7vqHcXaMZckGXrgGm7dvFP28v+2wMwNvKnHjgObJBSrrK3/dbSugW4gBAiDvg/YCoahDr04MyRPIZV1uLh5Wa3Z7q5u9B3dAx9R/9GXmwspjwA5bqF5sCFjkvdL/zpdsl/R6PP7/vvQojvgVullMU63M8utK4AACHETExNOdo4yoZ2Uf7c/sIoegyLcpQJl2IExs/v9M4GRxtiKUKIaGAMJoc2Goi106O/llLOt9OzrOZ37QCEEAbgeUzqPHZ96zfGxBt7cuMTCRhcHG5OFjBkfqd3moVs2IX05bH8b9Lb/ky1cYZKKXc48PnK/G4dwIWjvK8xBfacij6jYrj/rYl4ettvS9AIJ4Hh8zu945RHgkIIf2AucD2mie8sQe2/SSlfdbQRKjjLD8yuCCEGAXtxwskPkLTpLM9e+xOFOeWONiUOWPnVqbuVO43YGiGEuxBilhBiEZANfIwp1dqZPstxjjZAFWf6odkFIcRQYDPQtLi+g0k7msdz1/1EaaHDE/L6A4u/OnW3hxBiuBDiByFEmhDipBDiayFEL3sYIYToJIT4N6atyY+YKixtVzVlHQ7/panyu9oCCCE6AjuAdtbcx9fVlTGhobT38SHUy4tQT0/83dzIr64mq7KS7KoqjpaUkJibS72VP98u/cN47IsZdskSbIpPntx8dO1XR+L57UujBvizlPIdWzxXCNEf+Dumpb5jfwjqvCSlfNTRRqjwuzkGFEIEAsuxcPK38/Dg6pgYZkRFMTo0FA+D+cVTQU0NyzMzWZyezuL0dGrV23b/wol9Wbz38DrufWOizQuFGuPI9gzWfX2ksZRmd+BtIUSulHKRXs8UQozFFJydoNc97YjD926q/C5WABcUedZiig5roo2bGw93784D8fH4ulruL1PLy3nm0CG+OHPGolXBtX8dzIy7+lv8fGt4fv5iju7KNDesChgrpdxuzbOEEBOBfwIDzY11Yv4spXzd0Uao8HtxAHcC72m6BnioWzce79GDQPfLhXMs53hJCQ/t28fyTLMT6le4ubvwwpJriOik3EdUF6RRclu/j6gqV1IRzwWGSClPa32OEKID8BowS+u11uIR5INXRBs8w/zxCm+Dm68HLl5uuHi54+LlhquXGy5ebqQt2kf2hhMqt7xDSvmBre3Wgxa/BRBChAMva7nG19WVz4cOZXZ0tO72xPv7s3T0aP6RlMQ/jxxRvq62pp4PH9/IP76eZfetgFTfubQDlgshhkopC1UuEEJ4A48Cf8XGQT33IG8CukfQpnsYfp1D8Ipog1eYPwbFEunUr/aoPqrZbAFavAMA3kZDhl97Hx9+HjWKXgG2e9MK4Pk+fegdGMgtO3ZQUafWpfv4nvOs//qIcoNQPRAGQWz3tpzYm6V6STymrMoZZu8txDXAAkzpuLrjFxdCUL9o2nQPo02PCLzC/K26X2V2ierQMqseZEda9BZACDEC05GfEjE+PuyaNIlQT/udLm3IzmbC+vXKcYGAEG9e33gDbu72C4jv35DGgtuXa71stpTyp4a+IIQIAz4FJllp2q/vaxC06RFB6Kg4QkZ2xitc38zuDVP/TW2p0gnfCCnlVl0fbiNaeh7An1UHeru6snjkSLtOfoAxoaE829tsK+9fKMqpYOuPx21o0W/pNyaWUVd31XrZG0IIn8v/UQgxFTiIjpM/sG8U3f4ynpE/3skV71xH7LUDdJ/8dRU1qpMf4JyuD7chLdYBCCHao7AMBdOS/NMhQ+gbqHsbLiUe7dGDKRERyuOXfnAAabTvyu2WZ0Zq7VUQAzx58X+EEB5CiDeAZViZhwHg4uVG9Kw+DPv8Zga9dS3Rs/rgEfQbf6MbVVnKy38joC3C60BarAMA7kMxceRPcXFcHeO4xEABfDF0KNHeavIDWanF7FufalObLsfN3YWH3ptMaKymN+ufhRDdL3Qd2gVY3ZXYJzaIrg+OZdSPd9HtL+Px7WAfIRUN+/9sKWWzabzaIh3AhSo/NTFOV1ee7GWXbNYmaevhwadD1RuC7Fqp+aTNanwDPHn4w6n4BnioXuIG/ICp7kJ9n9PQs9u3pe+LMxn+31uImdsPVx/9jmZV0LACaLLpgrPRIh0AMABFWev7u3Sx+76/McaGhtJb8fThwMazGOvtH8AN7xDArc+P1nJJPGBxjwHPdn70eGQSQz+7iZCEzpbexmoq1R1As9n/Q8t1AJNVBvm7ufG37vaV4jLHnXFqhWRlRVWc3Kd8NKcrV0zuSJ+Rtt0yufl50uXukSQs/CORV/ZEGByrj1ClvgVoXQE4AVNUBk2NiNA1y08PbmjfHh/FlOOkzWdtbE3j3PT0CJsVKIVP6EbCwltpP28QBnfnSFXRsAJw3C/FAlqcAxBCuAFXqIy9MjLSxtZox9/NjXmxaupV5443Ku1tc0Jj/Jl+Zz9d7+kR5EPfF2bS68mpuPk7x7bsIhpiAIdtaYfetDgHgEn7zeyrySAEU8Jt14LbGq5RdAAZp5SybW3G5Jt64+6pzxs6fEI3hn1xMyEjHLfPbwxjbT3VBcrZvUm2tEVvWqID6KgyqF9gIG09lKPZdqWjr6/SuJxzJdRW12u+v17BQ582Hgybbp34jZufp9O+9S9Sca4Q1H5k2VJKxwRmLMQ5Nlj6oiQGGeNju6QRa4n29kZg/jMnjZLss8VExQWZvWddrZEVHyex4dujZKcV4+pmoPfIGKbd1pf4QZavhCb+oScbFx216FrfDm3p++IsvCPtW+GolYJ9ytv6A7a0wxa0xBWA0sY+wst5u1+7GwyEKdpXVWE+56Smqo7X7lzBwld3kJ1mkqyvqzWyb10qz9+w2KqcgthuwXTuo71ZUsiIzgx+/3qbTP668hrKUvORdfr0NsnfrSyM3OwcQEtcASidF4U7sQMAiPXx4Xyl+VbeKluAH9/e0+iJgbFe8vaDa3hx2TVEdrIsFbrvmFhSksw2HDUhoNPNQ+l0yzDdhdiLDmdy9LV1lKbkgASDmwshIzrT9c/jcA+w7Pct640UHlA+2WtW+39omSsApd2aNeo+9kA1OcmcA6itqWf9wqaX6PV1Rr79105l2y6nx1D105Qef59Epz/qP/mz1h1n9z0LKT2Z88snwFhbT9b642z7w6dU51pWoVucfJ66ihrV4c1uBdASHYDSui+7yrmFW9MrKpTG1dc2/e2W5FdSVmT+e92z+oz6W/wyOvUJUe5h4Bmiv8J4dUE5R19b22iBVE1hBUdeWW3RvfP3KO//CzH1CGxWtEQHoFSIobK8diQnSkuVxvm1bXqlUK9hH/zNq5atAlxcDcT1V4sDVGbp3zYvd8spakuadnJ5O85QU6DmVC9Fw/5/g5QatJOchJboAJR+Y5lO7ADOV1ZSWqtWUBYc3vQbtV2UP6Exako4yTsyOLjFslT2wFC1o8vK88oJNcqUpuToOu4idRU1FCefVx2+TtPNnYSW6ACUVBsPFxUpHu3qT3ldHdlVVY0+X/Xt7+JqoE1w08EtIdDUenzpB5ZtY3381XIqNGTUKePWRi3ApzruIoUH0pH1yi/1ZukAnDsSZhlKDiCzspL9BQX0DzJ/hm4JdVKSmJvLmvPnSSsvJ7Oy8pc/JRfe7h4GAzE+PrT38aG9r6/pbx8fDhYVKT0jKMxXqUhm3LzuLH53H5Vl5oNZyTsyKMqtIKCdmjbBRVRLhCvP678FaNPDfB6Di6cbvh2VCkR/IX+P8vI/Q0rZ7Pb/0AIdgJSyQAiRh0I58NLMTF0dQHFtLSszM/k5I4MVmZkU1jQ94aqNRk6WlnJS8Y1/Oar7bm9/D8bN78HS/+w3O1YaJTuWpTD5Zm3l+z6KDsDcXt0S2g3tSNuBsU1O2Li7RmBw01a8VKDuAJrl2x9a5hYAYKPKoCXp+lRuppSWcl1iIu2+/57rEhP5KjXV7OTXg55Do5THTrmlt3L13vYlKZptUd0C2ErKrOfjkwno1cBxpIDYawYQM0db4VJ1fjllZ/JVhzdbB9DiVgAXWIqpeWST7CkoYFNODqNCQix6SFZVFc8eOsSHp05Z1PbLWnoMUz9/D2jnzci5XVn3lfleBClJ2WSfLVEOHoJJLUgN2zgAj2BfBr19LedXJVOYlE5VTim+HYMJHd2FgJ7qeosXyd+Vqjq0Hlil+QFOQkt1AMsx5QOYXeE8kZTElgna2s+V1tbyytGj/N+xY5QravrrTVCYL8GR2s7Up9/Rlw3fJCsVAx3YmMakP6hLpfm2USyssmHkVRgEEVN6EDHF+r4J6T8fVB26UUppWQKFE9AitwBSylzA/IYX2Jqby8rzykc9HCspYeDKlTx/+LDDJj9AQVYZHz62kToziUCX0i7KX1nJJ+1oniZ7vB28BdCTkmPZFB1WFvZdaEtbbE2LcABCCDchxGAhxJ+FEN8JITIx6QIq8Zd9+5Qm8/LMTIasWqV8TGdrNnx7lH9ev5iiXPUEl06KhTvnjinvfwGUsg0B0NCIprqgnPQlBzn2xgZOf7pDy7LcKtIW7VUdWotJ9LTZ0qy3AEKIHsDtwI2AxeH85OJibty+ne9HjGg0Rf3l5GQeS0rC6GSdlE7sy+KJWd/x0LuT6djbfCyjQ081Sf70k4UY6yUGF7Wk/dx0Nafo5q92Fp+5Kpnjb2z4TTOOtle0p+ejk/AIVks80kp1QblqA1CA1VJKx8ky6UCzWwEIIVyEEDcJIbZhkl96ACsm/0V+PHeOpw/+dt9XJyXXb9vGIwcOON3kv0hhdjnPzvuJbUtOmh2r6gBqqurISlU/s1d1AB7B5nUYzny5i8PPr2iwE0/+rlQOPr3MZrGE9B+TMNYqi6w06+U/NDMHIIQYAuzB1FdOXURfkecOH+aDlF8fgd29ezdfpabq+hw3g4FAd3ddC+Jqq+t576/rzabytgn2IjBUTQwlK1UtIQkgL0Mtw8+jXdNv7tSvdnPyvS1NjilMSuf8GstESJrCWFvPucXKFb1VwGLdjbAzzWILIIQIAl4CbkP3QtL/IYE7du0ipayMl/r25aUjR37jELTS2c+P6ZGRjA8LI9rbm3AvL9p6eCCAGqOR7KoqsiorOVZSwrLMTFZmZlKsWAdwOfX1Rt64dxVPLZxNTLfGO+Z06NmOwmzzGnfVlepBTvUVQOMOIPWr3Zx4V62Xa9GhDMIndlMaq0rW2mPUFCrHU76TUjpHMMgKnN4BCCFGA9+iQz85VV5JTmZzTg4787RFwi/i6+rKA/HxXN+hA938Gz9LdzcYiPb2Jtrbm0Ft23Jjhw7UGo1szsnhrRMnWGxBolJVeS2v3LaM536cS2BIw2/6MMX2XrXVGhxAhtpc8GzEAaR+rT75Aapy9J97Z79TOji6yJu6G+AAnHoLIIS4FViNHSf/RXbk5WneZroZDNzTpQspM2bwfJ8+TU7+pu4xLiyMn0aOJHHiRBLaaf/WC7PL+ejxTY1+vbpSbYWhKjgqJeQpOgCPdr/NXUj9eg8n3lGf/GDqEagnRQczKDmhfJy/Q0q5W1cDHIRTOgAhhEEIsQD4EFN/Oaend0AAR668krcHDtSt1diw4GC2TJjAV8OH461RwWj/hjQSFzccFKws19cBFOdWKI/17fjrrYlp8jfurBpEoLt8eNqifVqGt4i3PzihAxBCCOBr4C+OtkWVudHRbJs4kTg//dVuAObFxrJ1wgTl7sEX+fy5rZTk/1b3QKUqEMComLRzYp9aIpVHkA+el6wAUhdaMPmB6Nl9G877t5Cq7BJyNps/QblAJvCdbg93ME7nAIBngWv0uFGMjw9jQ0OZHB7O9MhI5kZH0y/QMuHLxniqVy8WjRih3M7LUvoFBrJ78mSuaKveDrusqIpF/7frN/9eWaq2AggIUXM4h7aqxSr8u4f98t9p3+zlxL+1T/52CZ2Iv3e05uua4tSnO7RkKL7XnNp/m8OpgoBCiGuAJyy9PsTTkysjIhgVEsKo0FDaN6D9X1FXx6zNm1mTZX3/hvvj43najq3FQz09WTp6NANWrOCcombglh+OM+f+gb8KCKquAIIj1FY0qg6gTVeTA0j7Zi/H396odM2ltEvoRJ9np2su622KwqR0MpYdUh1eDbyv28OdAKdZAQgh+gOfWHJthJcXrw8YQOrMmXw8ZAg3dezY4OQH8HZ1ZcWYMfy5a1drzGVCWBiv9e9v1T0soZ2HBz+MHImHQe1XV1tTz/KP/ne2XV9nVI7Yt40wn22XnVZMbrpaDkCbbmGkfes8k99YW0/yq2u0JBW9K6XUpivm5DiFAxBChAI/AZo2ucEeHrwzaBCnZ87kgfh4vFzUPhwuQvBa//58PnQonorXXEonX1++SUjARTimZfXAoCDevUKp/ykA679Opry4GjAp/lSUVJu9xsXF0Ogx4qWovv0BCg9mcPytjcrjL2KLyQ+mvIPyNOVM3jLgBV0NcAKcwgEArwDRWi4YEBTE3smT+VNcnPLb8HJu7NCBzePHE6UxuPZa//4Obyt+S8eOyl2Eqypq2b3a1P1n9yq1LkDBkb5KdQCHEhVFRAWc/myH2thLsNXkr0gv4vTnmlSQ/+9ClWmLwuEOQAjRE7hByzV/6NCBrRMm6NLfb1Dbtnw/YoTy+CHBwcyIUlfisSVP9OypnBa5a8VppFGyd22q0vgew8x/j8Z6SfL2DDUDLMjdt9XkB0hesAZjjXKiUwHwL92NcAIc7gAwLauU7Xi2d28+s3Dp3hiHFUU4AV7o00e351pL9zZtlJ3R4W3pHNh4Vrl0uM8o87oBx3ZnUlFqG+kzW07+86uPUrBXueEHwMtSSv3VTJ0AhzoAIcRwYLrq+Js6duQfPXvqbsfGHLW4zsCgIMaEam+EaUse6a4m+V1fZ+SzZ5susrmIi6uBngorgE3fHVO6n1ZsOflrS6o4/tYGLZecB97S3RAnwdErgBdVBw4LDuZ9DYEvLWxSdAAznWTpfylDgoMZrJgboFqw02VAGJ4+TSdgVpbVsEsxnqAFW05+gBPvbqamSFNTmMeklM7bRcZKHJYHIIToByhtvttqPPrSQmp5OWfLzVfGAUyP1C/7TE9GhoSwM1+bgk9TDJrU0eyYHctSqNFQLaiC6uSvr6qlOreM+po6hMGAMAhTfwQhEC4CV18P3Px+m46t8cwfTHp/n2r6JpoZjkwEmqE68JHu3XXLr7+c5GK1rV2Mjw99dM4i1Ast2YHm8A3wYPTV5nMkNi7Sd/l/+eSvLa6k6HAmJSdzqMoupTq3lKrcMqpySqkrM3+M6dbGC+/IALyjAvCODsQ7MsB0CqFBkQy4y9Lvp7ngSAegtPeP9Pbmni5dbGZErmKX4L5OOvlBXwcw4YaeeHg1vfzPOFVIygH9hHCDh3ag4x+GkLHsMMWHMyk6kklFunpgtiFqiyspLq7U0tvvcl5qrt1+tOAQByCEiACU0uj+0bOncoKPJeRUm3+bAER6aesrZ09ifHwI8fQkx8qW5+6erkxUkALfpPPbv2DPWfK2n9H1nlZyHA3xqeaMo4KA01BQ9vF0ceHG9u1taojqCiDCiR0AQJgOW6RRV3XFP6jp77O8uJoN3yRb/axL0aDBZy/uklKqvRmaOY5yAFNVBo0LDdVcB6+VXMUVgLM7gDorBUvbBHsx94FBZsct/yjJZmf/TkIZYJu6bifEUQ4gTmXQdDscu7kpniyUObAJiAr1VjqA218Yg19g06uI0sIqVn6m3DGnueIL/CyE+F4I4ZzHPjriKAeg1KxtaoT2nm5aCfFQ62hjaQdfe1FnRW/CMdd0o99Y83UFSz84QJWimlALYA5wVAhxnxDC0fkyNsPu35gQwgsIMDfO44Jgpq0JUdw7pzipA6gxGlmfnU2RhUrC7aL8ueGJ4WbHFedVsvoLTWfoLQE/TPJf2y4ErlscjjgFUPpBRthh8gO0U3UAZWU2tkSd/Opqvj93juWZmazLyrJqe1JRWs3CV3YwYnY8nfo03lno5/f36Z7404wYDOwQQkyTUraoPZDTOgB7HbupbgFSy8qokxJXB2kAAJwuK+O1Y8f45PRpKnSKSZQXV7Pmv4dZ89/DhHcMYOSceMZf3xNvv/+VOxfmlCu1FbcnBhdBYKgPHl6ulBVVU15cTX2dTVu0RwNbhRDXSClX2vJB9sQRDiBYZZDqm9laegSY3Y0Apih7UmEhA4L0laNWIaW0lMeSkvjh3Dmrg31Ncf50Ed8s2Mnyj5KYfd9Axs/vgYurgcXv7FNW/dUT/7ZedOzVjuBIP9qG+xEc4UvbCF+CI/wIDPX5jV5BVUUt5UXVlBVXXXAKVWSllnB4Wzon9p7X43vwA5YIIe6VUrYIaTAh7dzvTgiRAJgtSxsdGsqGcePsYBH0XLaMIwopwTd37MgnQ4bYwSITdVKy4OhRnjl0iKp6+0/A0Ng2XHlbXz5/doumNuSW4u7lSrdBEfQcHkXP4VFEx7dFrwVXbXU9x3afZ/eqUyQuPklVhdXBzJeklI/qYZsjcYQD6ACYLSPr5u9P8rRpdrAIHty7lzeOm8/69DAYSJs1y2Z1CZeyt6CAW3fuJKmw0ObPciTtuwfTd3QsPYdHEdc/DFc328elK8tq2PLjCdZ+eZiMFKt+vp8Ct0spm21wxBEOwB1TY8UmfXuguzsFV11lF5uWZWYybeNGpbFP9eplcyXghWlp3Lx9O9VWHO05M74BniTM6sKoq7oS01W/OgZL2Lr4BF++sK3B/gmKLAOukVIqNxV0JuzuAACEENmA2Wb22XPmKB/TWUNZXR2BixYpZdOFeHpydtYsm5QmA7x45AiPJyXZqvu1wxAGQe+EaEZd3ZUB4zvY5U2vSnlxNd8s2MH6hclYOB12ANOklPrVZNsJRzmAvSgUA30+dCg3duhgU1v2FBTwRFISq86rV439q39/HrJSVvxyJHDnrl1WdyN2Nty9XBk/vK01uAAAIABJREFUvwdTbulNUJh5mXFHcnzPed64dxXFeRatBo4Bk6SUmrTGHI2jHMBiFPQA5sXG8tVw80kqlnCkuJh/HDzIj+cUVW0vwc1gYMO4cQy3oHFnYzyelMQLR/Q9ahOYCqoqHRBAdPd0Zdy8Hky/sx9tgp27juJS8jPLePX25Zw7btHLPAOYLKU8rLNZNsNRDuBJ4Blz44Lc3cmaM0c5X1+FcxUVPHbgAF+lpWG04nsP9/Ji7+TJhOuQr/B1WhrzExOtuke0tzfTIiMZHxZGtLc34V5ehHp64mYwUFZXx/nKSrIqKzlWUsKyzEzWZGXplktwKW4eLr9M/IB29knm0puq8lreemA1BzZa9DIvAmZIKdUEGB2MoxxAF0w112b5cPBgbu3USZfnbszO5uqtW8lTrAA0x7DgYDaOH2+Vg9qdn8/ItWstOubzdHHhni5duL59e809D6vq61mXnc1bx49r2v40hpuHC2Ov686MO/sr9xR0Zoz1ks+f3cqaLy16mVcB86WUP+pslu44xAEACCH2Af3Mjevo68vx6dOtzsB75+RJHtizx+qy2cuZEBbGNwkJFjUKyaysZNDKlWRWattzugjBzR078nSvXpqbmjTE+uxsHjlwgN0W6gpOuKEnM+/ur9RJqCGkUVJVUUtlWQ2V5bVUldUiBARH+uHf1rHbh5/f28c3CzQ1ELlIPfA48KqU0mmPcxzpAB7G1BHILJ8MGcLNHc0LVTZErdHIPXv22DS41tnPj59HjaKbv7+m66Zv2sTSDMXGGhfo5u/PohEj6NGmjabrVPjk9Gnu3r1b82rkvjcnMmSq2iqtorSGM4dzSUvOIzU5l9QjeZw/U4SxvuHPobunK20jfGkX6UdwpB9h7dvQf1x7wjuoZXDqwZYfj/PBoxstTTXeCtwkpdRfQlkHHOkAYoBUFJSBwjw9OTB1quYEnOLaWqZt3MjWXNt3dPJ3c+OFPn24My5OabWyPjubcevWaXrGtMhIvhw2DH+3pjX7rGFnfj6zN2/mvIZVSbsof15dfR1u7g1Lt1VX1rJ3bSrblpzk4OZzuuTsx3Rry9ArOzN4amdCY7Q5Xks4tPUcr9+9ytIMwjLgISnlBzqbZTUOcwAAQohEYJjK2PFhYawaMwaD4lagTkqmbNjAWh3agGuhm78//+rfnylNaBkYpWTAypUc0JDl9/fu3XmhTx/l798aMioqmL5pE/s12Dfv70OZdnvfX/3bqaQcVnySxN51qTatJOzYqx0j5nRl3LzuuLjaLr8g9Ugur9y6zNJjQjAlDd0mpbTvh7IJHBUEDAJmAQ8BPVSve653b55Q7Ax0686dfHzqlGUGYmojbpTS4hz8PoGBXN++PfNiY3+zT//09Glu2aHeKPP2zp35j42aojRGTlUVV6xaRZpizwRvP3deW389foGenD2Wz3ev72bvWvsKfUZ2CuSmpxKU+hpaSm56CS/fsozzZyxWLc7DpDn4vY5mWYzdHIAQwgW4CrgFGAtoXscK4D+DB3ObmVOBFy5k01lCOw8P7o2P5564OLbl5TF782arKvAEJtnuXgEBdG/Thnh/f27fuVM58DcsOJgN48fjbqPMw6Y4VFTEsNWrlfUGhk2PQ0rJjmUplmbU6cLgKZ24/rFhtA23TeJRaWEVC25fbq00+n8xbQtsvj8VQrhhKmd2A05eGpS0uQO48PAbgUdQ1AI0R1PL4a25uYxcs0ZzKm2UtzdP9OzJTR06/Krx6MenTnHrTouiwFYT6e3NnsmTdVH8tZQlGRnM3LSp2aUmu3u5MvuegUy/s59uFYWXUlNZx1sPrGHf+lRrblMJfAwskFJadaOGEEL4AQ8CDwAXiy7KMHU6fllKWWlTByCEmAa8Dag1stfAzKgovhw2DJ9LVINrjUb6rVihVNp7KaNDQ/k2IYF2jYiDfHL6NHft2kWNnYtzFg4fzrWxuv/oNHP11q18d7ZZZbj+wrAZcdz1ylibxAaM9ZJPntrM+oVWy6TXAd8Ar+ihOCSEcAXuAJ4GGktXXQbMsIkDuLDHfx3Tm99mdPT15Z99+nBtbCwCUyHNYxqX/g927cqr/fqZjdxvzslhzpYt5OuURGSO/kFB7Jk82fwRiR04XlJCj2XLbCpGYkv6jIrhwbcn4e5lG/2bH9/ey3ev79LrdssxHY9vsSR/QAgxC3gZUGmndbfuDkAIMRb4EgjT9cZNMDAoiAe6duWOnTuV895dhODToUO5QUPjkVNlZUzbuJFjJSUWWqrOyjFjmBQebvPnqGJtUNXRxPUL5eEPr8SnjZoEnFb2b0jjP49ssKas+HJKMFUZJgLbgB1Syt8IUwohfIDhwGhgMgrJdZewX1cHIIS4CfgACwJ89mZBv378pVs3zdcV1dTwtwMH+OjUKatqCZpiUNu27Jo0ySb3tpQTpaXEL1li8+f4BngSHOGLUUry0kt1bUISFRfEI59Nszhj0Rwl+ZX855EN7N+QZovb1wNnMBWOCkyK3gYgEsvnW5FuDkAI8QzwpC43szF6VBnuKSjgvj172JGXp5NV/+P5Pn14vIfy6ajd6LZ0qW6rnzbBXgyf0YXIuMD/6f2F+/5mmV5RUk1uRilnj+Wza+VpDm05R22N5dWNvUdE8/dPbKs0tebLw3z14nZqqpxeKChLFwcghHgOeMJ6e2xP38BAEidM0KXlmMR0pv/UwYOcq9BPEGb/lClO2Y347wcO8Eqy5QEvIaD70CjGzevOwAkdLArMVZbVsG9dGusWHuH4bsuKmB79bDo9h9u261TGqULee3g9pw/m2PQ5VvKZ1Q5ACHE18K21lsT5+dHV359Ofn509vVlXXa2RbX6TWEQguQrryReY86+OYxSsvL8eT5ISWFpRoZVBUdR3t6cmzVLR+v0Y2tuLiPWrNF8nbefO2Ou7c7Y67oT1l6/GoYdy1L46qXt5J/X1rPh2r8OZsZdSs2prUJK2PTdUb5ZsFPP2IBeSGCgVQ5ACNEXU5DCopK0XgEBXB0Tw9UxMXRtYFK+evQojx44oFv0+ZqYGL5JSNDlXo2RVVXFF2fOsCE7m135+ZpPDeZER/P9iBE2ss46Kurq8PnWMl/v7e9BSJQfITH+tIvyJyTany79w4jpZp0mYE1lHT+/v4+f3tmHNKp9Tqbe2ofrH1XKQNeFitIavn9zN2s+P0x9vdMUBn4ppbzBYgcghGgH7MaCM/6+gYEs6NePcWHmDwo2ZmdzXWIi2YptvJti35QpmuvmrSWltJRd+fn8+8QJtinEC+7p0oW3Bw60g2WWEfjddxTV6BeYC2vfhsFTOjF4aidiuym1jGiQXStP8e8/r1WSL7/39QkMndbZ4mdZSsapQr5+eTsHNqQ5NFMSqAbipZRpFjkAIYQANgIjtVwX6unJi337clOHDpqKWjIrK5mXmMjmHMv3UxPDw1k1ZozF11vLIwcO8LLC/tlZA4AX6bFsGckaE61UCWvfhtFXd2PSTb1w99QeozmyLZ3X7lrZZMWeX6AnC9bMwzfAcdmVGSmFLP8oicTFJ6wKaFrBAinlw2B5c9D5aJz8/QID2TN5Mrd07Ki5oi3Cy4tN48fz08iR9LHwDf5AfLxF19mbcAem/apgy5ZtWanFLHx1B38Z/zWbvz+mvKS/SI9hUTz+5cxGxUeFQXDP/4136OQHiOwcyO0vjuaNzTcy654BZtuy60wB8M+L/+Py9NNPa7r6gq7/D4DyTJwdHc2SUaMIVuzD1xhd/f25My6OHm3acKS4mFwN++vXBwz4VdqwvVmblUWigi7BlZGRDmk/psrHp0+TqlghaCmVZTXsXZvK7tVnaBftR1iseuAwMNSHkXPiyT1XSm5G6S/aA536hPDA25PodoXzNPn19Hajx9BIptzahx5Do/Bu40FJfiXlJTbNNn1cSrnx4v9o3gIIIe4H3lAdPy82li+HD9c9pdUoJQ/u3ctbJ06YHRvk7k6+nZqMNIbqFsAejUesocuSJZy0c6v0YTPiuOPFMbh5NCw40hj19UayUosJDPH5VbNTZyf9RAGHE9NJTykk81QhGSmFlBVZHwPDlEjUVUr5SxBH0yvxQnWR8nn/wKAgPhoyxCb57AYhCFZcLnezgXyWVvwUVXy0KPE4Aq36hXqw7eeTZJ0p4qH3phAYqp7F5+JiILKT8+VTmCOqSxBRXX69CiwtrKK0oAopJdIoqa838t7f1nP2qCYdx79fOvlBewzgIRqvLvoV4V5eLB41Ci8XbV5bC3mKJwMNHTHamy5+fkrjMnRMKNKbopoaym0gJa7C6UO5PDH7O1KSrKrBb7b4BXoS0SmAyM6BRHUJYvP3x7VO/kVSykWX/6NWB3Cz6sBPhwwhwoYBI0BZ3lurWKctUHUAiXl5uisX64U9tBWboiingufnLWb70pbVPUkrq784zMpPNVUNnwf+1NAXlB2AEKIn0F5l7PiwMCbaoZItX/E8Wu/MP0uI8/NT2goV1dQoBQsdwRKNCsa2oLamnnf/us7iNODmzv4NaXzx/Fatl93aWN9CLTGA6SqDBPBS375mx+mB6vbC3kIeDeHt6kq0jw9nFSLoSzMyGBVitneqXZGgLGH+p7g4Hu/RAzeDATeDAfcL3Yn2FBSwKy+PXfn57MrPp8DChKL6OiOv37uK53+6ymayX85I2tE83n5gTaMS6o3wvpRyRWNf1LIFMNvLD0xHfvY6xlLtHJzhJIG1CQqZjwA/nDvndOIbO/PylAOAV8XEEOntTYinJ4Hu7vi4uhLq6cmVERE807s3K8aMIWfuXBYOH27xZ6Ukv5LX7lqpVHFXVlRNWVE1VRW11NUaHZ2FZxGF2eW8ettyrbLkKcBfmhqgtAIQQoQASrK08+woYdWYhNflZDpJYG1OdDQfKYhqnC4r49PTp3VriaYHzxw6pDTOz82NBIWmqS5CcG1sLNfGxrI+O5tXkpM1tyhLPZLLB49t5J7XxgNQkFXGkW0ZHNt9npxzJeSfL6Mgq4za6l9n2wmDIDjCj6i4QFNQLS6IHsMinbZ7cVVFLa/etpzCbE35F/XAH6SUTV6kugUYg8Jqwd1gsKuKjeoKQM9SXWsYHxaGv5sbJbXmvfgzhw5xQ4cOeDhADfhyNuXksFJxco4LDdWsYDw2NJSxoaH8JyWF+/bs0bRl2/bzSSpKqslOK1GW6pZGSW56CbnpJb8S72jfPZj+49ozYEIH2ne3vC5BT+pqjbz9wBrSjmrWnXhBSrnd3CDV35RS8fTo0FDl8249UO3Mu8mKGgI9cTcYmBYZqTT2XEUF7ygkOdmDRw4cUB57dUyMxc+5o3NnNowfr7nj8oGNZ63R6f+F1OQ8fnhrD4/PWMSz1/3EfgcX7ZQXV/PSzUssURj6DnhKZaCqA1DavI4NDVW8nT4MbqtWSppeUaGpy40tualDB+Wx/zh4kINF1n+wreGl5GRl1aMob2+rHACY+iDsmTyZQYq/W1txfM95Fty+nEeu/IZdK+2vhZhzroSnrv6BozsztV66HbhRKqb4qjoApXW9Hp1qtRDr40O04jN/Tk+3sTVqTAwPZ2iw2vKyvK6OWZs3202J+HJ+Tk/X1GDl/vh4q1qlXyTCy4uVY8bQWTF3wpaknyjgjXtXs+CO5RRkaRMesZST+7N5au4PnD+t2fmfAmZIKZXzhnVdATiigcVIxeOyRWfPOk1zi2d691Yee6asjGu2brV7ctDhoiJu2L5dWfjU19WV23UMWga5u7Nk1Cja2HFL2RT716fxt8nfsO6rIzZ9zo5lKfzzhsWUFGg+uSoApkopNQUL9HUANs78awhVB3CkuJhv0myi1qqZCWFhDFeIlF9kfXY2V23ZohQ81INteXmMX7+eUg3Pe7h7dwLc9S246ervz7cJCXZpiKpCZVkNHz+5mXf/uk5JeEQrP7+3j7cfXPObUwsFqoGZUkrNQSNVB6BUgeHngHLbyeHhyh+Qfxw8SK0TJAUBzI2O1jR+cXo6A1eutHlM4KNTpxizdq0mBaaeAQE82r27TeyZGB7OfCfojnQpW386wUs3LaG8WJ+tWXVlLe//fQPfLNhpSdBRAjdLKTWnB4K6A1DaQBfqKBWlSoyPj3JkPaW0lA+coLlFank5zx0+rPm6k6WlDFm1ik9On9bdpsKaGv60eze37dyp6RjOIAQfDR6sy96/MZ7t3dum97eEo7syefqaH6yOC+xde4aHJy5k8/fHLLm8HvijlHKhpc9X/akqyfOqFufozb1dVLogmfjb/v0OjazXGI1cu3Wrxc6ysr6eP+7YwaCVK5VTc5uioq6Ol5KT6fjzz7x38qTm6x+Mj+cKG0fsO/j6Wh1faOfh8aumr3qQeaqI1+9ZZdF2ID+zjH/duYLX7lqpWdX4AlXAHCnlp5ZcfBElQRAhxEvA382N+++wYVyvodWWXkhMTSuOKzatiPXxYffkycqZhHry4N69vHH8uG73GxgUxP3x8UwMDydUQxB2b0EBi9PT+fDUKYs1CMaFhbFi9Gi7vJ3Tystpv3ix0tj+QUFMj4yki58f8f7+dPHzw8/NDQnkVFWRVl7O2fJy0srLWZ6ZyYbsbKsCxOOv78Etz6gp5NXXG1nx8UF+eHMP1ZUWx3SKgelSyi2W3uAiqg7gbuDf5sY5UtH23ZMnuXv3buXxCe3asW7cOM1Za9bww7lzzN1i9e+sQQTQOzCQiWFhdPX3p52nJ+08PAjy8KCgupr0igrSKyo4XlrK0owM0q3Mjuzm78+2iRN1D/w1Rb8VKzigkM9xX5cuvKnhc3iytJT3U1L49PRpi49c/7RgHAmzml6JHt9znk+e2sK545rq+C8nC5gspdTWBbcRVB3ANMBsY7gebdpw+Mor9bBLM/VSMnDlSqUPyEUS2rXj+xEjlFOKreHjU6f40+7dTlGZaC0hnp7snDSJ9j626bHXGE8dPMizCrGTmVFR/DRSk2YtANVGI9+mpfHX/fvJ0ShD7+7lyjOL5hDT9dfboZrKOrYvTWHdwiOcSrI6I/U0MFFKqVsgS9UB9AHM5oMK4PycOZqWonqyOz+fIatXa2raGePjw+KRI23WiqtOSh5S1C5sDnTw9WXJqFH0cIDM2p6CAgatXGl2XN/AQPZPmWLxczIrK7kuMZEtGlPIQ2Pb8PxPV+Ht587ZY/ms/zqZrYtPUFmmS3B8BzBbSpmlx80uouoAvIFcFDoAvdCnD486UNf+gb17eVPjHtvb1ZV/9evHbZ0746rjmXNycTH37NnDxuyWIWM1KiSE70eMoK0DYidgcqYeCxeadfCB7u4UWCkCWy8ljycl8Upysqb4QNdBEdTV1OspXVYDPAO8LKXUvYmAsiqwEOJLTP0AmiTK25szM2fqOpG0kFddTdSPP1JtwVK7k68vz/TuzbzYWKuST86UlfHUoUN8mZpqcQtxFyGcShPgjs6deXvgQIcfx4X/8ANZCsvzkquv1qUwbVlmJvMSEzUlRenIQUwlvbrs9xtCy2/zM5VB6RUVfOugjLvzlZVM37TJoskPcKqsjBu2baPX8uU8f/iwpnhCYU0NX6elMT8xkfilS/nizBmLJ/+f4uJInz2b2zp1somishZ8XF3596BBvH/FFQ6f/AARirUfaTr1LrgyIoIvhg619++hHngJGGTLyQ/aVgAGTPkAZjsrRHp7c+TKK+2ax70rP5/ZmzfrLlsd6e3NuNBQor29CffyItzLCx9XV7IqKzlfVcX5ykoOFBayLTfX6nx9b1dX3hs0iBsvqRjcmpvLnbt22awdV2MYhOCWjh15rndvzeW5tmTGpk1K2oRLR4/mygj9moA8d/gwTx7UJMRpKSeBm1Rq+fVAU2MQIcQrwMMqY+/o3Jn3r1ASEbKaL86c4Y5du6iqd0ifNV3o7OfH9yNG0Dsg4DdfqzUaef34cd44ftwusuGTwsN5tV8/ejVgi6OZsmGDkjjJijFjmKyjOI0ErtqyhR90bll/2SP+jUm7324KNlrXdErbAIAPUlJ0yVQzxxNJSfxh+/ZmPfnDL/Q+bGjyA7gZDDzcrRupM2eyKCFBuQDKEh6Ij2flmDFOOflBXd9Rb0l6Abw7aJCt2sulAhOklPfZc/KDRgcgpTwCKNVDSuC6xER251uV9NAk/z5xgn8esW15pq3xMBj4ceRIpQ+sqxBcFRPDpvHjOTh1Kk/27Mno0FBdm68UOSbYpYzqCsgWPSlCPD15qGtXPW+ZCtwBdJFSrtPzxqpobQ32D0D5jK+8ro5pmzaxZNQo3fPFV2Rm8sDevbre0xG8f8UVyspGl9IrIOCXt3SN0cju/HwSc3NJr6ggr7qa3Opq8qqrKaurw9fVlar6eo4ppErbO9aghcr6eiUpcXeDwWZHlX/t1o13Tp60VqTlFPAC8LmU0jGtli6gqgrsDnwA/EHrA3KqqhixZg1vDBjAXXFxWi9vkINFRVybmGjRMZmqKKc9mBUVxU0dO1p9H3eDgeHt2jWpMXCgsJB+KxqVh/+FYyUlSHD46UNDqHYmCvPyspn9/m5u3NelC08rqiRfQi2wDPgUWOboiX8Rs1sAIUQAsAoLJv9FaoxG/rR7Nzdt306llXv1GqOR67Zu1Xwu6yIED8THc27WLLZMmOBwzTkXIXjBTg1UwFSzr7JVKK2t1ZwBZy+WKMq6Rdr41GJmlJJG7kUOAw8AEVLK2VLKxc4y+cGMAxBCuALfA6P1eNjnZ84wZNUqVmRmWlx99XJyMkcVq/4u0r1NG/ZNmcLrAwbgf0G3fuekSXw5bBgxds5nv8hNHTvatWehqxD0U0x3/jI11bbGWIhqazJbBknBlGqsQf/yZSnlm1qluuyFuRXA68BYPR94sKiIqRs30n3pUt5PSaFCQ7fZk6Wl/FOjkMbE8HC2TZz4mwi7AOa3b8+pGTNYPHIks6Oj7ZboIoCneva0y7MuRXXVs+jsWacrWtpbUECqYnLPdEWBGGvQkGPgHA0GGqHRT7wQ4g7gHls9+FhJCXft2kX0Tz9xz+7d/CclhW15eRQ1EOQpqa0lpbSUO3ft0pTld3PHjiwbPbrJhCRXIZgRFcUPI0aQOXs2bw0cyJzoaJsmv1zRtq1DVh7DFHUIC2tq+O+ZMza2RhuqnYmCPTyUVZetQUNLM6d2AA0GAYUQI4G37WFAQU0N71ymRBPp7U2wh4cpml1VZdHbaFxYGB8MHqypJiHYw4N7u3T5RWHobHk52/PyOFVWRkFNDfnV1eRXV1NjNP6SFRhxyZ/Zmzcr5anP0LaH1I3pkZG0cXOjWCF+8sTBg1wTG4uvA3QeL2dbXp7y8v/KyEi7iIhqqHhtXg5ACNEW075fUx6vh8FgcQ7+5WRUVFiV8Rbn58eihASrC5JifHw0valVZb7ssURtCC8XF65v3/43DrchzldW8nJyMs9pkDC3FY9p6Exkr59tqPoK0akdQENbgMfQaPSTPXuSMmOGRefZeuPp4sKSUaMItKNSDUBRTY2SA2zj5ubQLLvbO3dWHvuvo0dJcnBHpdePHVNu7Rbo7m633pQtZQXwKwcghIhGw77fw2Dgy2HDeKZ3b6K8vdk0YQK3Obij7f3x8cTbMbp+kfOKCjKOLqzpGxjIQMX9a2V9PTM3bybXQWKvq86f56/79yuPf6R7d7ttWarVj7ObjwPAJDygnEL14ZAhzL9EBNTDYOCDwYN5/4or7Kq1d5FAd3eb6dObI0sxR90RzVMu5zENgi1p5eXM3bLF7v0UjpeUcO3WrcrJXpHe3twXH29jq/6HBskw58g6a4RfZqkQojsakn0e7taNGxpRAL6jc2c2T5hAf/VIqS481qOHXUUqL0Ul+AcQ7iC5tEuZHR2tqVJuS04OMzdvpkzDka017C0oYNz69UrByos81bOnrjUR5tDQOOWoLe2wlktf008BSj/ByeHhvGQmi21w27bsmTyZ70aMoLsd9OPcDAbu0LC/1RvVJaGrE4hqALw5cCAeGmxZkZlJwpo1nNVJaKMxvjt7lpFr12oKAsf7+3OLnbeeGnQnkm1ph7UY4BfNvxkqF3i7uvLxkCFKRy0CUwusQ1On8vnQoXT09bXK2KZIaNcOfwc2kgxSXHmobhVsTZyfH3/t1k3TNUmFhfRYtow3jh/XXa6spLaWh/fv55qtWzUlhwEs6NfP7hJ0qoFJmskKYCKgtDZ9MD5ecyDLIAQ3dujA8enTWT12LPfHx9NBZ2eg2h7MVgQpVp+pbhXswWM9emg+kSirq+PBvXsZvGoViYrFOU1RJyXvnDxJ559/ZsHRo5pTxB/v0cPuv/sao5HVCqIkF3BqByCklAghPgFuNjc4yN2d0zNn6ib1lVxczJKMDDZkZ5NRWUlWZSX51dUW1QkcnTaNrg6I/l8kubiYHsuWmR0X7OFB7ty5drBIjbPl5VyxapWmZqCX0isggNs7d+bG9u01xV8OFBay6OxZvk5L40yZZf31ZkZF8ePIkXavXFyTlcXE9etVhtYB3lJKpw0ECkyrgCzAbJ7os7178w8b57DXGo3kVFWRVVXFydJS5iUmmr3GRQhqrrvOoW2k86urCf7+e6WxZ2fNIlq9mMTm7MjLY8y6dVapKrkbDPQKCGBAUBADgoLo4OuLh8GAh4sLLkJwtryc4yUlHC8tZVtuLidLS62yuVdAANsmTnRIpuKtO3fysVqT2eNSSl0VRPTGFRiGwuQHmKOxpbUluBkMRHp7E+ntrTyhQzw9Hd5Dvq2HB+19fJQKVpZmZPAnnbQR9GBIcDAfDxnCfAVn2xg1RiN7CwrYW1Cgo2UNE+zhweKRIx0y+U+WlvK5endmy3+gdsIADFcZ2NHX1+7dYFSFOxydXHORIYpFKD8r1rXbk3mxsVwVE+NoM8wS5unJ6rFjdY8hqfJEUpIW9We71NNYgwFQOhB2RP666rmzo1qRXY6qA9iQne00qkQXKa6t1RLYcgjd/P3ZMWmSsq6B3uwtKGDR2bOqw7dKKdX/7MqdAAAVAElEQVTTGB2EsgOwR4nl5fgoJnbYK0HFHKo/o+oLMt/OxHsnTzqdU7qUAHd3tkyYQKyDBFyKamqYn5ioJUD9pu2s0Q8DEKYy0BHLbFVhR2c5Wx/Utq3y0nTB0aMOy7G/nGqjkdePHXO0GU1SVFPDCw5SgK6XkusSEzmhHrg8B/xoQ5N0Q3kF4MwOwNIjLL0RwC2KIp+ltbU8r1HdyFZ8mJLiVPkJjfHasWO8q1DKrDd/27+fVdq2R+84k+5fUyivAMIcsM9Wza4rqa1tUEnIEdzSsaPyicR7J0+yPc+xUnH7Cwt5WEPFnaO5d88eXrTTSqBeSh7cu5fXtK2OKjEpaDcLDCg2B3HEMZuni4vyKmBNlq5t0y0myttbuSa9xmhk9ubNnLNDu6+GyK+uZs7mzcpKzb0DAvhy2DBmR0fbtfDmUoxS8lhSEtdakDKshaKaGqZu3Mgb2mM1/5BS2q4bjs5cTAIyi6OWiE1p3V/KssxMG1uiztO9eilnp2VXVTFr82abfpgbol5K5iUmKgttAizo35/57dvzw4gR5Mydy8Lhw5kbHY23hefx4V5eXBsby9sDB2oO7n179izD1qzhcFGRRc9uiu15eQxZvdqSU5EfpJT/0t0gGyKALUCCuYFbJkwgQXEy6smCo0eVlqghnp5kzZnjNA0trt+2ja80yGtPCAtj0YgRdumoXFVfz207d2qS/54cHs6KMWMa/FpFXR37CwvJqKwko6KCzAt/Z1RWUlhTQ6C7O8EeHr/86ejry8iQEOL8/H65x56CAhJWr9YsK2cQgmtiYni6Vy+rhWCSCgt54uBBS3tansDUzlubZr2DEcAi4CpzAxclJDgkUWRnfj5DVq1SGvvzqFEO09u7nLPl5cQvXaopvTbe358lo0b9amLoTVp5OXO2bGGfhow9FyE4MGUKPW0sZfaflBTu3LXLomtdhODa2FjmRkczPixMuTK0oKaGFZmZfHf2LIvT0y3tV1EBDJZSOkdUVwMCeAu419zAv3Xvzst27GRzkVqjkcDvvqNcYYncLzCQvVOmOM0q4I87dvCJetooYFI1+mLYMF17219kbVYW1yUmau5rd1unTnwweLDu9jTETdu387mVkuRuF1qlJbRrR7iXF6GenoR6eiIwiZ1mVlZyvrKSxLw8tuXm6lHafKOU8r/W3sQRCEwioP80N7Cbvz/J06bZ3qIGuHnHDj5TnEg/jBjBbDvULJgjt7qa+CVLlJWCL2dCWBgv9e2ri6rSoaIiXk5OZmFamuYPe5yfHzsnTbKbyOr3585x1ZYtdnmWTrwnpfyTo42wFAOwU2Xg0ZISUqys4LKUOzUo/TyelGR1/0E9eOTAAYsnP5hONQauXMl1iYmsz87Wkn/+C4m5uUzftIk+y5fzZWqq5skf4O5ud4Vle2sPWsl7wP2ONsIaXIHNQBFgdoP3U3q6ZhUZPRgaHEzvgAAOKkR8j5aUcOeuXXw+dKgdLGuYVefP84lauWiTSOCbtDS+SUsjwN2dyeHhTI2IoJOfH2GenoR5euLt6kpedTXHS0o4VlLyS8ltcnGxVQ7bRQi+TUiwu8Kys7Uka4Qa4D4p5X8cbYi1XBQE+QqYZ25whJcXKTNmOOQM+J2TJ7ln927l8f8eNIi7HVBym1xczLDVqzUJWlqDp4uLVXX8jfHmwIHcd6FDkj356NQpbtuptCh1FNnAXCml05f6qnAxCWixyuDMykpLEiN04eYOHTR16fnz3r2sz862oUW/JaeqimmbNtlt8gM2mfyP9+jhkMkPkOck9RGNsAsY2FImP/zPAaxAUb/85eRkChyQduvt6sr/9e+vPL7GaGT6pk18nZZmQ6v+x+GiIoauXm2xvJUz4GYw8NHgwTzfp4/DbNiiLrZpT9IwSeYNlVI6n5iDFRgALiQvrFa5oKimRtNSXE/maNSzr6irY35iIvft2WPTveVP6ekMXb2a08148ge4u7NyzBj+6MDOTkYp2aqD0KiO5AAPAF2klJ9JKZtFgEILl9YBPA1qeRAL09IcVpr5lkY9e4C3T5xg5Jo1SkFELeRUVXHP7t3MsaBpxj/79GGuExxXgklSfeekSYwNDXWoHUlFRVq2TxOAh4AdKH5uNXAC+AfQSUr5ppTSOSrNbICQlxwNCSG+Aa5RuhD4ceRIZtq51fWSjAzmbN5s0bGYAK6JjeUZK9NGy+rq+NfRoyw4etQiMZK74uJ4d9AgwCQPds+ePaQ7oCAoyN2dl/v149ZOnZwieerl5GQeUesEnCGl/OWDJ4SIAa7G9Nm9woJH12JKiV8KLJVS2r/m2EFc7gDiMHUyUaru8HF1ZVFCAlNskLXWEF+npXHL9u1WtyF3EYIZUVFMj4xkakSEkqRYRV0d67KzWZqRwY/nzlks5jEyJIS1Y8fidskqprS2lseTkvjg1CmbBPUaIqFdO34YOZJ2itWWtqbaaKTj4sWqHXc+k1Le3NAXhBDhQEcgEoi68PfFPxJTFD/rwp9sIAPYJqUstvZ7aI78ygEACCHeAZQzm1yE4O2BA7nLhkduEnjy4EGbCGgIYGDbtnRv0+aXlNFgDw9Kams5fyFl9GxFBYm5uVZPzhgfH/ZMntzopMurrubDU6d47+RJ0mzcgivS25sT06ZZXMmnN++ePMnd6rGlP0gpv7ClPb8XGnIAYcAxQJME8LzYWF4bMEB34ZCsqiru3r2bH8+d0/W+9sbH1ZWtEybQV0HQsl5KlmZk8FVqKptzcmxWiv1c7948YeM+DyrUGo10XrJEte9gHRAlpbTvGW8L5TcOAEAIMRVYgqJYyEX83dx4vk8f7o6Lw8VKAZHK+noWHD3KK8nJTiP6aSlhnp78PGoUg9q2tej6k6WlbMrJYWtuLmnl5eRVV5NXVUV+TQ21RiMGIQh0dyfI3Z1Ad3d25+crRcV8XV1JmTHD4arKrx07xl/27VMdvkhKqRSnasU8DToAACHE34CXLblppLc3N3fowB87ddLcEPRYSQkL09L48NQpTR1inZWeAQEsGzVKUxKTFsrr6vB2df1VEG/Oli3KK6bxYWGsHDPGaodtKZtychi/bp2WoO4oKeVmW9r0e6JRBwAghPgSmG/xzYHBwcEMbtuWgW3b0j8wkBBPT1yFwM1goNZo5GRpKcdKSjhaUsKKzEwOFBZa+jinY1J4ON8mJNi9a/GhoiL6LF+ufDZ2X5cuvDlwoE1taoiz5eUMXLlSS0D1kJSyty1t+r1hzgF4Yjoesf+nwwK6+PnxbO/ePHv4MMnFjgvqtnFz46W+fbkzLs5hx2vXbt3Kt+pNLHjviis0VV1aS3ldHSPXrtUkTAL8UUr5ia1s+j3SpAMAEEJEAGsB+5cBaqCDry87Jk4kxNOTWqORN44f55lDh+weP7gqJoY3BwxweLuyoyUl9Fy2DKPi0loAT/XqxZMa9Awt5Wx5OTM3b9a62tsBDG+J2XiOxGyQT0qZCXxpB1ssxt/NjSWjRhFyIZjlZjDw127dODZtGrd26mS3o677unRhUUKCwyc/mARc5sfGKo+XwNOHDnHVli1K6kuWsi0vj0GrVmmd/HXAna2TX39Uo/z2U4TQiEEIvh4+vMHGpZHe3nw4eDAZs2bx5sCBNm9u2tmGWn6W8ObAgZqbaP5w7hyDV61irc4y6+V1dTx3+DBj1q4lR/ux5mtSyoO6GtQKoLAFABBCvAD/397Zx1ZZ3XH8c1paykulBZTSjsoEyhQKCBuyoREFgTjEMGVsYTFzxswZsxdn4pyLGt+2KAohGrcEGZnL5iZqRECg2AFFkDCwgrXlpbJZ+uptC4W2t6W9v/1xbpvS0fY8z73Pc2/p+SQ3N8Dzcm7C+T2/55zf7/vlMe+H4xynC1gfBwLkV1dTUFPDvkAgqn54f587lx84eOr6weG6Oubm5bkqYloQliWbFYEs2YVQiHWlpTx99KjbeoYiYLaI9P8toTjENACsAn7t/XCcMSIpidKlS43NQ7rTLsKRM2coaWigtqWl81Pf2srgxESuSEriiqQk1pSUGDWp7Lz1VuZnGBkt+cr60lLucymyoYB5Y8ZwZ7h02mRbt02EgpoaNpWX805ZmWmBz6WoRqvt+tPTPQAxfTmOy1eA306Z4nrygy5jvj49vU+76Y1ffslZg12FK+PEprw7P5kwgf2BAOtcyJQJ2s78X9XV/PLQIa4bMYLctDQyUlI6FXeb29upam6mMhikoqmJjwKBaFi1NQNL7eT3ln4bANKSk/n55Mm+3CuSIBMvvHj99a4CQHc+P3vWjy3WEFpq251JgMUY00VAo0qWJ3NzWXfDDXw/O9vzSfO9ceNI8Umb0PS3xLL2oC/K48RC3YAG9JP/7VgPZCBgmgEYpWGBlhaeys3lvgkTCIlwqK6O/Opq/tvYSHUwSFVzM1XBINXBIAlKMTYlhcyhQzu/hyYm8oxhx98PfVxsG2Uoi10UxwGgNEaS7g4pRU/+z2M9kIGCaQAwSsW67u0mKMW3Ro1y1ABzqK7OKACMTE7mFh/Va0wzAC+MKqNFafzLleUDy0XEUWmgJTJMXwGMGrUL6+sj6pk3FdSckpbma/OKqXNtPGcAH8aJffolaAdWA4vs5PcfowAQ9jvv05ursa2N9905qwIYW1V/w2ezCtOtvZPhxqZ4o761lR3xGQDeAaaKyMMi0r97vvspTvr9jbKANyIwdjTdL57sc8VdTmqqURYgwNoY+Sb0xjtlZU4st/wouNkNzBGRu0SkxIf7WXrASQAwWgfYVllJpcsVZ9OecD+96jpYaChH/pdTp6KxBx5V1ptv/5UAo9Himm+j9+KjRR26p2SxiMwTkbi2/xkoOAkARm4oF0IhHv/0U3eDMXyvd6MIHCmLDANAY1tbVPbbo8Wm06fZFwiYHv6WiDSLyFsicjdwFbAS2IS7zOA48BJwM3CViPxIRLa7uI7FI4zb5ETkgFLq3xhoA2z44gsezMnhmw5ryE2jUSwcZOePGUOiUkYOu2uPHeOnEyeS6rMQSHfaRUxltjt4q+sfROQ88LfwB6XUKLTS7rjw99eATCCIVtmt7PJdLiKVEf4Ei8c47ZN9AfhnXwcJ8NDBgxTcdttF8td9kWh4bFMM7L/TkpNZNm4cGw1ENsqamrj344/ZeNNNPoysZ149fpxi80XJIhE52tsB4cXgWsBdimeJO5xZ7Oj3wpMmBx6orXUi8wxAlmEf/ZEYyYY9OXWqsVjG22VlrCou9nQ8vbGnpoZHPvnEySmrvBqLJX5xFADCggzG/1HWlZbyooNJkGO4un/ImYxU1Jialsbd2dnGxz9WWMjuGJhdfnH+PHcVFDh5VfoP8FfvRmSJV5xmAAAb0G2aRvymsJA/njBzWsox3N8/du5czKTCn8zNdbRYuWLvXidpeMSUNTXx3V27nNpsv2D34QcmjgOAiLSgK7eMCInws4MHefjw4T716SYMH25U4RcSYUsEBUeRMGXECJY7yAKqg0Hm7tjhi+31gdpaZm/b5rQYqRh43aMhWeIcNxkAwMvAficnrC4pYenu3b3WCCQlJBj3Drwew622Z6dNc7TCX9/ayoL8fJ44ciRiX8OeeOPUKebt3OlUdScE3Hs5u99aesdVABCRC8DdOHgVANhSUUHO++/z+6KiHifCHVlZRtfaWVXluX9eT0xMTWXDnDmOzmkNhXjms8+YsXVrVLOBw3V13PLhh9yzf7+bPoyXbUHOwMZIEqzHk5W6GS0Z7lh2d/ywYdw/cSIrx4+/qMz26JkzTNu61egav5g8mTWzZjm9ddR4tLCQFz533rmq0JWFD0yaxJKsLAY5bGwS4EAgwGsnTvDGqVPGBiDdOIIux+03QgGW6BNRAABQSj2MrvZydz7aMnt+RgYz0tOZkZ7OTXl5Rk/3RKU4tHgx0w0MN72gXYSF+fnkV7v3qcwcMoQVV1/NDeHW6Utp7glQ1thISUMD2ysr2RiZzh5oS+w5InI6kotY+j8RBwAApdSbwIrIh+Ocb48ezUcLF8bMgeerlhZmfvABp6PkY5ienMzowYNJTkhgcGIiF0IhSs+fpyl6ux7ngButzLYFXKTuPXAfuolkfpSuZ8z+QICXiot55NrYGBclJyQwPIrGI/WtrdR710zUACyzk9/SgdtdgIsQkUZgEbAmGtdzyqOFhbx32v9stk2E5QUFcakBcAlOoNP+/FgPxBI/RCUAAIhIu4j8Cvgx4KgKJVJCIqzct8/Xqrs2Ee4/cIC8+BTa6M52tLlG7GqTLXFJVNYA/u+iSs0G3kV3ivnGIKVYPWsWD+XkeHqfQEsLy/fuZVcEi38+8hLwqIj430FliXs8CQDQ2Tr6OPAg4Kuw/r3XXMNrs2cz2EEnoimf1tdz5549MatBcMAJ9MR/N9YDscQvngWAzhsolQ08BdwD+CPkD0xKTeXZ6dNZnp0dlR2C2pYWni8q4tXjxz2r5osS5cDTwHpb32/pC88DQOeNlLoWeAa4k+jtPvTJzJEjeX76dBaOHesqEJy9cIG1x46xqrjYrZHoWWABMBkdBBcQxbWXLtQCfwBeERFXLpyWgYdvAaDzhkqlA4uBO8LfvlTxZKSkcHtWFksyM1mQkdFrLf/Jc+fYXF7O5ooK9tTURKJA1AbcLiJ5HX+hlMpEy2zdA0x1e+Ew5cBWYAuQZx10LU7xPQBcdHOlBgE3op+K2UAGMDb8GYkuFBT0/nU9MAy4Mhr3Tk9OJnPIEMYOGcLwQYOoDgapDDsXReJt0I0HRORPPf2jUmomevv0avTv7/h0F0YQ4Cu01FYFsA/YIiKOFD8slu7ENAD0hlIqCT0RznasYIefnjuB2FT9OOM5EfmdmxOVUmnooJCE1tirsu/zFi+I2wDQE0qpK9Dy0ktiPZYeaEE/+TfEeiAWS194sRjlKSLSgF5IfD7WY7kElcA8O/kt/YV+lwF0RSm1AlgPDI31WNDGKctEpCLWA7FYTOl3GUBXROQfwHcwNC3xiCBaKPVmO/kt/Y1+nQF0RSl1O/AcMMOnW7YBfwaetn31lv7KZRMAAJRSCliOLjjyqiFAgDeBJ0TEyCPBYolXLqsA0IFSKhGtTbAk/Pl6hJdsA/YCm4H37MS3XC5clgGgO0qp69CVh4uA8cAYel44FLSTbRVQiJ7020TkjPcjtVj8ZUAEgEuhlEpFVx5moCsMv0JP+pqw6rHFctnzPwoK+YPcRG/GAAAAAElFTkSuQmCC;fontSize=16;" parent="1" vertex="1">
          <mxGeometry x="628" y="392" width="80" height="80" as="geometry" />
        </mxCell>
        <mxCell id="fzYEetxtUc2qvv0lDvPF-10" value="" style="edgeStyle=orthogonalEdgeStyle;html=1;endArrow=block;elbow=vertical;startArrow=none;endFill=1;strokeColor=#545B64;rounded=0;" parent="1" edge="1">
          <mxGeometry width="100" relative="1" as="geometry">
            <mxPoint x="720" y="432" as="sourcePoint" />
            <mxPoint x="900" y="432" as="targetPoint" />
          </mxGeometry>
        </mxCell>
        <mxCell id="fzYEetxtUc2qvv0lDvPF-12" value="Amazon API&lt;br style=&quot;font-size: 16px;&quot;&gt;Gateway&lt;br style=&quot;font-size: 16px;&quot;&gt;" style="outlineConnect=0;fontColor=#232F3E;gradientColor=#945DF2;gradientDirection=north;fillColor=#5A30B5;strokeColor=#ffffff;dashed=0;verticalLabelPosition=bottom;verticalAlign=top;align=center;html=1;fontSize=16;fontStyle=0;aspect=fixed;shape=mxgraph.aws4.resourceIcon;resIcon=mxgraph.aws4.api_gateway;labelBackgroundColor=#ffffff;" parent="1" vertex="1">
          <mxGeometry x="210" y="1334" width="78" height="78" as="geometry" />
        </mxCell>
        <mxCell id="fzYEetxtUc2qvv0lDvPF-13" value="Amazon&lt;br style=&quot;font-size: 16px;&quot;&gt;CloudWatch&lt;br style=&quot;font-size: 16px;&quot;&gt;" style="outlineConnect=0;fontColor=#232F3E;gradientColor=#F34482;gradientDirection=north;fillColor=#BC1356;strokeColor=#ffffff;dashed=0;verticalLabelPosition=bottom;verticalAlign=top;align=center;html=1;fontSize=16;fontStyle=0;aspect=fixed;shape=mxgraph.aws4.resourceIcon;resIcon=mxgraph.aws4.cloudwatch;labelBackgroundColor=#ffffff;" parent="1" vertex="1">
          <mxGeometry x="1031.0000000000002" y="2003" width="78" height="78" as="geometry" />
        </mxCell>
        <mxCell id="fzYEetxtUc2qvv0lDvPF-14" value="Lambda&lt;br style=&quot;font-size: 16px;&quot;&gt;function" style="outlineConnect=0;fontColor=#232F3E;gradientColor=none;fillColor=#D05C17;strokeColor=none;dashed=0;verticalLabelPosition=bottom;verticalAlign=top;align=center;html=1;fontSize=16;fontStyle=0;aspect=fixed;pointerEvents=1;shape=mxgraph.aws4.lambda_function;labelBackgroundColor=#ffffff;" parent="1" vertex="1">
          <mxGeometry x="440" y="1334" width="78" height="78" as="geometry" />
        </mxCell>
        <mxCell id="fzYEetxtUc2qvv0lDvPF-17" value="Amazon&lt;br style=&quot;font-size: 16px;&quot;&gt;CloudWatch Logs&lt;br style=&quot;font-size: 16px;&quot;&gt;" style="outlineConnect=0;fontColor=#232F3E;gradientColor=none;gradientDirection=north;fillColor=#F34482;strokeColor=none;dashed=0;verticalLabelPosition=bottom;verticalAlign=top;align=center;html=1;fontSize=16;fontStyle=0;aspect=fixed;shape=mxgraph.aws4.cloudwatch;labelBackgroundColor=#ffffff;" parent="1" vertex="1">
          <mxGeometry x="1031.0000000000002" y="1720" width="78" height="78" as="geometry" />
        </mxCell>
        <mxCell id="fzYEetxtUc2qvv0lDvPF-19" value="" style="shape=image;verticalLabelPosition=bottom;labelBackgroundColor=#ffffff;verticalAlign=top;aspect=fixed;imageAspect=0;image=data:image/png,iVBORw0KGgoAAAANSUhEUgAAAEQAAABDCAYAAAAlFqMKAAAPJElEQVR4Ae2cB3RUVRrHM5lUSoKAiAImtIQWQkkhCATSENJm0ghVdEVQwQKuCO6yLEURBBdQDEiNLgvCCYEEIiUUC+uuHpemgA0FBCGhGEIIaf89/zvcySszoUZGj++ce+57M+/d+93f/b7vfvfeN+MEzXHy5EksX74cgwYNQp06deDk5HRXko+PD6ZMmYLc3FyNhLV76SSLr6qqwiuvvIIGDRrcFQA1gQ8JCcHOnTulqLWaCyCVlZUYNWqUw4FQQnJzc8O6detqFQYLF0BmzJjh0DAkGG9vb+zfv79WoTidOHEC9erVUwExuhiRlJKKFasykZ2Ti6zsTb9e2rgJGzblYNbsOegU0FklF8EkJSXVLpClS5eqKjUaXfDWordRCaC86u4l1n+m8Dzi4uNV8rHzvvzyy1qD4hSvqTA+MVGAuHjpMgov/HJXU1kl8L8Dh+Dl5aWCsnLlytoDQmclbZT5osVLUAHcVRCyIy5cuoxzF4sQEtpDJeO8efNqD4gSBs8z31stzEUKdTfzC0XFKLxQhL4RESogc+fO/fWArMx8z6GAFJz/BeF9+/0BhJpJDfkDiMKR/2aAcAQqKinF+V8u1arzdWgg9PZXyirECHT6bCG++f4HFF2+Iq6Z14bzdVggFOxqRRW25e/EiEdGIiQkFG3atEV0dAymTP07jv14EqUVVSg4f/GOgnFIIDSL0vJKTJsxEx4eHipvL4fstm3bYufuD3G1ohIFCh9wu1rjkEAYLWYseccmCAmEeYsWLfD198dQfKX0jmmJwwH5pbgEJ06dRpu2ba8LhFBemjQZZRWVIrq8Xe1wyGG3rLIK67M2qGC4Gp0wLsmIlVNd0d3fWfWdn58/Tp8pwJ2aBzmchnDGuShjsarRTRsagL0ewE+eyJ3lqvru/vvvx/GfToGa9bvUEE7yVma+q2p0XQ8n5M1xReEud4xNMqq+a9asOY6fOv37BVJ85Sq+2H8Q3t7qdVZPdyf4NTeoYNCHpKYNwqWbDNhoFqyn+EqZztQczmQYjHHIHfPU07rGK0cYnru6umJ7/i5cLa+4IXPhcM4RjP7my8NHsf/QV/i54Jx1LYYxjcMBoR9gFPrTz2cRGRVVI5TZc+aK4I0Qa/IfbCghMOrlzDo6pj/oexo1aoQeYWGYNn0GzhScw+XSMjE1cLjJHRtA4Riuvzhxkog3jC4uAo6npyfCevbEv95fJ3r7enMblkWHS6174cUX7QJ+eMBAHP/ptCjz7LmLjjf9Z0OoKaXlVfj22I/I3ZKHf65Zi4/3firCdYb1N6IZEsb4CS/YhSFNMSIiEidPnxUAe/Xuo7p/9uzZjrFAxEYTDNWdEKg5NxJzSKB87rnnx6saJwHYykePeUo0/PHH1XtGmZmZjgGkJt9g7zsJo+RqOcY+84xNGB0eC0Do1J5wrade3+0eHIQr5RX4Yt8+REVFoXnz5mJDrbi4+LcJRMAoKUVJaRlGP/mkbRiPBsC8PQ3Ju9IRNqMXPBpXTyAXvLUQ3GLlUVZWBu471/bhpFXVO7WmShiMSWhWj496wiaMjo8HwLwtFfEbzYjbYELqx4ORsjwdb2S8gT179tR2222WXytAJAwGXI8+9iebMDo90Rnm7RYYsdmJSM4fhBn/fRWFFedsCqr9sKioCEePHhWbVocOHQLTV199Be5E3s5RIxA6UfYy7Z/pRqJQCYP3jhg50iaMgNGB1TA2JiItfwiWHliO8kpOFuwf3333HV5//XUMHz4cnTt3FuszRqMRBoMBzs7OIjhs2rQpEhISMHbsWOzatQsEdzOHXSBsEEeFr7/9Hvm792B7/k4c/vobqxmw4VpHys+oFUWXSzB46DCbMDo/1cUKI26jCSlb07Hx25waZc7Ly0NycrLdBSqt2SuvAwICMGfOHJw/f77GOuSXOiArVr0rvjt1pgCjxzwp3hdxcXEBe6JuvbpIHzoER459h6vlVSogShgpaWk6GOzFwKe7CgcqfEa2CWk7h2D90Swpiy4/cOAAEhMTdWUpG3yj523atMGyZct0dWg/0AFZl7UB5y9eRO8+4XYF8Q9sh38f/AwVlZYtTwsMxiTFSEpO0T1nMBoQOLZbtWZsMMG0LRUZ+5do5bFeL1my5Lov7xgMTnB2dbYmg1G9PmMLVkpKSo2jlQ7I/IVvYmBsnK5R2sJbdmyFT/b/B+WVEGZyoegSEmz0prOLM7o8270aRpZJjCxT9k5FZRVXXPTH5MmT7dbvWtcVD/RqhvYjOyL8HxGIXNIfEYtjELk4RuTdJ4bAd0BLNGijnqEr5af/ofbZOnRA6tevrxPGtY4r3LzUQRMreLC9Lz499DmKS64gLk792gK/Z+91ff4ajGzL0BqfY8aQD0bgRJHt0WD8eNuRrGdjT7Qb0RGR7/SHeWuqML3ELcnQJtMHKUjKH4TY9YkI/VtP3BvYRNceyubr64t9+/bpmOiAKEny3K2+G3q9Fo6+b0ahTlP9S3h+XduhT5TevAij24QgoRlx2SYRZzDWSNqehnV2/Ma0adNsCt8i0gfRKx5G0o40AUBZHsuUPonnMiXkJAlNTMhNQtfnusPNy11XdqdOnXDq1CkVlBqBuHu746HXwoUg5h1p6PdWFOo+oH7bSAuQ1zST7n8OFo2Pv6YZFDRhSxLG7BiLy2WXVULwIisrSyewwdmAjo8FgL2emJdsbaxsNMHwOzY6MS8FhBCXVQ2F98VvMiMpPw19F0bCu5XejGJjY1FRUT3c2wXi0dADvef0FaopBWAgFbGoZijObs7o/mKIZTRRwGAZ5m1pyPlW/5rl2bNn0apVKx0QDtFsDBslZbDm2SYkbk4WzrpJ9/vwYIwvYt4daIGi0BR5PyPi6BUD4OXrravn7bfftnaQTSAejTzRZ24/oRmyQJkLKBnRqNdc72uM7kYETwq1CYO+Y/iWR3Gh9KK1cnkyYcIEnZB+6e1E/TKsl/XLnJrRY1ov1XPN+jQXJqXUSnk/c0Kh6bs3UJtPs2bNcObMGSGODkidpnXR541+oIkoC1OeEwq9ev0Hq191cvF0QcjLPSwapfAZ8jna/4Iv3pIMrPkPP/wArSNv1LER4jaa7fY2y2R57R/pqAJS38dLmI89IOK5/DQx6mlNnW9i8tAB4aiQsifdLgzZQHr6yKX94fNwSzTv20LMVNkDWocn7t9ogmlLCvae+tQKQp5Mnz5d1SiDiwE9X+mtMlVZpzInEPoXZcMatL3nukBofgk5ZtwbeK/q2datW4Pv6+qABE+2qLyycpvnWSYkbE62OLwtltzmfXRsOWak5wzDhdILkoPIua7Bt5SVjWrS7T4Br6ZeZj23CoTPcrmB2uxkqH5tnZE0Z9g6IEETLQ7RXuN0n2ebcD3hGSu89OHLqIJlbUNSOXz4sAoGwQTRIVPTbDhG5We3A4RaErs+AfVbqP3g/Pnz7wCQ6wjORpi2pmDRvsWSgzVfs2aNCoiLhwsil8RYYg1ZLkeTaxpoykuBTGmfDAFnzUrtuse/oRiVzB+kWu8T93No5pCsKJNO2XegemTr1q3brwPEvCMVa468bwUhT0aPHq1qEIdP9p4cWZhzaO23KBp95vUTzp4On4ngWpvUm/B08ow3GNLL+0Q+rx8GrI0XZck4hQND0MRQVf3X4FbbET+Qw6aVpqR6G3lKfjo2f58nOVjz9PR0lUA+Mb5ioYh10wwJx39oe3D+QhvnJFEmZ54bNLuHBifr9/I+BndMDds3QkRGDBI2WzTFtDUVYZphWwDh1F6pdt3GM9y2P+TeLKjYDYlIzR+MHT/mW0HIkzTNMgGDK/oG1kEzCZ8fqZJNKeetnLeKby0GAcKmGXM0c9JCjdC8FMshlE5Nqu3NAtDeH8u10vwh2HZsh+RgzVNTU1UNVgHZnIy+C+4wkMQbAMJ1ByVto4eLmCUm7xokekvMLLelCkgEdSsp/dPh2P6zXkO0JiOA5Fs0hL2YsCkJ7Ud0hEsdFzAK1ibOmZSy04S098jre9o1EjNlq8lso8k8pHpelMWFWnd3dSjLQtok+4kJWshfwxDyl9tLYTN7YfrqmdYtBakiY8aMUQnEGETrVDlx40w3apk6DVwbD//0dqrnvVp6IyZzIKKXD9Dfvy7BhlNVx0ACCIV79tlnVQUrqd+pc74dEB0djcLCQslD/EJKWb7RzSimBPQfVtOjpuQmiyCQgaBMqR8ORqdR6t/T3OPXUGgwo2J5n8wJ2lomQ4G8FLGQpKw/ODjY8ouqkpISxMVdf5VM+fCtnmdkZFiBHDlyRDdSiJlyLQdmNMXYdYmor5mgLliwwAKEEhIKl+615nOrDbf33Nq1a61AWGdoqDoWuLdrE8uM9drmlbJXlee3E6kyBgme3EPVGdzG+Oijj6qBSCk/++wzjBs3DkFBQfDz80PLli3vSPL39weXB0tLS2VVIp85c6bKXBlfhE3vJVRfCUB7fqtAhI/aZEbjzurJHd+15bap9WeqKimvXXDyde7cObGnwX2NW00sg9pg6zh+/Dj440KlRjGIEqNMriLc1gSGBKKd/nPxh06Yz2oBymsuOAWOEyG6qs5Zs2YJ8WoEYqsBtfHZxIkTVcIRTmuzn9ASe/EQnWLYzN4qtW8W3sIyD7KxHkMgNJXw+RFinVjZAXzpuKCgwHGAUPO4Cq4UkuednuCWZ5qIR2QPW/Nsk9CGbs8HoWno/WKi1j+zhiXE7WmIXvawbobLevhDTHk4hIZQmJycHGinEQy02o/sJBaYuYhshSHN59ois5gEbkkWgOTkTd5Ln0HzomZ4+VSv8En43CKVr1xQDocBQmHs/aCaa6ViP6aGbQit34jflGTZHNtkFj7D1r5Shw4d9NsQUlUcJecIJ3tPmXNfxX9we0QujhZbDpytivTBtTUS5luZUsVGFjeqOLQ2trNRxT9bOHjwoK7ZDqUhlI7qO2nSJJtQCIgbZ/cFNxX+5aFX+6D3633FWknvuf3Qa3Y4gif1gM+AljbNQwIODAwU75PoaDiaySgFXLFiBRo2bGgXjGwc1z3Ehrdmoie/1+bDhg2zbjko65PnDqchUjDmDO2HDh0qXsXQNuxmrxlkrlq1Slm8zXOHBiIl3r17twDTuHHj62qMEhTfaenSpQsWLlwoAkxZXk35bwKIbACDp9WrV4OvS9QEh/9nwH/J+fzzz+WjN5z/H78eU+DQE05lAAAAAElFTkSuQmCC;" parent="1" vertex="1">
          <mxGeometry x="749.9999999999999" y="374" width="50.75" height="50" as="geometry" />
        </mxCell>
        <mxCell id="fzYEetxtUc2qvv0lDvPF-20" style="edgeStyle=orthogonalEdgeStyle;rounded=0;orthogonalLoop=1;jettySize=auto;html=1;startArrow=open;startFill=0;endArrow=open;endFill=0;strokeWidth=2;strokeColor=#808080;" parent="1" source="fzYEetxtUc2qvv0lDvPF-22" edge="1">
          <mxGeometry relative="1" as="geometry">
            <mxPoint x="258.5" y="1328.5" as="targetPoint" />
          </mxGeometry>
        </mxCell>
        <mxCell id="fzYEetxtUc2qvv0lDvPF-21" style="edgeStyle=orthogonalEdgeStyle;rounded=0;orthogonalLoop=1;jettySize=auto;html=1;startArrow=open;startFill=0;endArrow=open;endFill=0;strokeWidth=2;strokeColor=#808080;" parent="1" source="fzYEetxtUc2qvv0lDvPF-22" edge="1">
          <mxGeometry relative="1" as="geometry">
            <mxPoint x="350.5" y="1251.2241379310344" as="sourcePoint" />
            <mxPoint x="297.5" y="1342.5" as="targetPoint" />
            <Array as="points">
              <mxPoint x="379.5" y="1342.5" />
            </Array>
          </mxGeometry>
        </mxCell>
        <mxCell id="fzYEetxtUc2qvv0lDvPF-22" value="Lambda" style="outlineConnect=0;fontColor=#232F3E;gradientColor=#F78E04;gradientDirection=north;fillColor=#D05C17;strokeColor=#ffffff;dashed=0;verticalLabelPosition=bottom;verticalAlign=top;align=center;html=1;fontSize=16;fontStyle=0;aspect=fixed;shape=mxgraph.aws4.resourceIcon;resIcon=mxgraph.aws4.lambda;labelBackgroundColor=#ffffff;spacingTop=3;" parent="1" vertex="1">
          <mxGeometry x="340.5" y="1202.5" width="78" height="78" as="geometry" />
        </mxCell>
        <mxCell id="fzYEetxtUc2qvv0lDvPF-24" style="edgeStyle=orthogonalEdgeStyle;rounded=0;orthogonalLoop=1;jettySize=auto;html=1;startArrow=open;startFill=0;endArrow=open;endFill=0;strokeWidth=2;strokeColor=#808080;fontSize=11;" parent="1" edge="1">
          <mxGeometry relative="1" as="geometry">
            <mxPoint x="298" y="1372.29" as="sourcePoint" />
            <mxPoint x="431" y="1372.29" as="targetPoint" />
            <Array as="points">
              <mxPoint x="361" y="1372.29" />
              <mxPoint x="361" y="1372.29" />
            </Array>
          </mxGeometry>
        </mxCell>
        <mxCell id="fzYEetxtUc2qvv0lDvPF-26" value="Amazon S3" style="outlineConnect=0;fontColor=#232F3E;gradientColor=#60A337;gradientDirection=north;fillColor=#277116;strokeColor=#ffffff;dashed=0;verticalLabelPosition=bottom;verticalAlign=top;align=center;html=1;fontSize=16;fontStyle=0;aspect=fixed;shape=mxgraph.aws4.resourceIcon;resIcon=mxgraph.aws4.s3;labelBackgroundColor=#ffffff;" parent="1" vertex="1">
          <mxGeometry x="767.0000000000002" y="1141" width="78" height="78" as="geometry" />
        </mxCell>
        <mxCell id="fzYEetxtUc2qvv0lDvPF-27" value="Ai Model from S3" style="shape=image;verticalLabelPosition=bottom;labelBackgroundColor=#ffffff;verticalAlign=top;aspect=fixed;imageAspect=0;image=data:image/png,iVBORw0KGgoAAAANSUhEUgAAAD8AAAA/CAYAAABXXxDfAAAHz0lEQVRoBe2beWwUZRjGpxRoF7C7IIdHjRVrBDUxMfqHYEw80MqhCCYGA42CYqJBY1QkCgpoBUXb7bFtd7cXh1oxtdqoNXL0pEVUDPSg17b03LZAd1trL9h5zPvNTjvubrezZXFnsU3ezGx30vT3Pe/1vTPDQcYPz/OwWCwwm83MWltb4S1ra2tDQ0MDqqqqUF1d7dKam5tRXlaOjvZOGf+t/Es4OZf29vbi4sWLXgenBZQDX19fj9KSE0jWpXl1AWTBk+r9/f1eU1vqNbLgG+qRn1eI6D1JSDXs89oCyIbv6+vzKXxBfhGidn6OeK0RKXpagA45Tuv2Gr+C//jDaOzZHTe8AO3my1sAv4QXF8Co34f2y0iCfgu/Z3fssAeMtwr4MXwcC4EErRGG5L3jSoJ+Dy+GgCEpw+MQuCrgxQXQJ6Z75AFXDby4AEYKgY5zbkuc+OVVBf/prpEyKGcB/AaeOjxqckhh9yZUATke4BfwpnoTSkt+xa6PYkCNzicfa0e3KC12R8UgNloPY9JemNvaRS93OvoFfE1NDch+yMmFLs6AeK0eCbEGt0bXpOj348v938DSZXUCp1/4BTxtdQneZKpDRXkFTp8uQ5kcKytDc1MLOjtcb4X9Bl7c69fW1kKu1dXVwdxuhtXq58qL8J4cyVto+0xbclc/fqf8BPwo4y7HhZlQ/nLdvqsH+HsIaG7v87q1dAzA1HwBFaZWVNabZdmZuiaXg06vKc93n4CtegNsVRvQfyoSQ+UvoPfkc963P9fAmr8Jlu83wZrz6tj23YtoKTmAqtqGMRdgfG4/2Aq+NBQo54CTHFDEwXaIAw5fATvKwfb1bCDueiBhztgWPxO8fj4af8vBWB4wLnj+Qi7wGwfkc7DlXWEr4HAxaz74pNvB62+VZUi4FubCZBYijq4u/Tx++BMceKXC6+airciIyvo2t64/TvifgV8n4JXp9kpWHgUcUMyBL5CRLxxiHinhQFo4YBg9/qFUeKoMA78EoPPrQFw6wgGFYyyABB6p4bjweRjOfnQTgx9tARQJT+A9OZOQtWEGkpep8fPr0zF0mAPvbgHs8DAuQPX2UGx9cBo23RuEHzfOgc0Y7jL7KxO+hEPRVhViHpoJXYQa2odnojxmKlDqRn0RPn0hDjw3C8/fOQWv3DMVmxep0BN7CygMHEug4uApxru+nYTUp9VIfEIN/XI1dI9rkLnuGgweChjd/UX4tIUoen0eNt49Fc/fNRnGZzS4pL/VZewrD55U36ZC3KMaBk7wZPFLNCjXulFfjPlkock59e4NKH5j3qiqkxcoCp5Ut2aT6iFIsqtOMU/wCY+rkRlJ6nOgKuDUMYrwSbcLSS79NiDjNpfuLrq/suBLhViPfURQncCTl6qhp+NyNfOGClL/uHt4pqrBtauL4IpSnlS3ZE9CylNCrCdGaHBgzTUgWOOTapb1Ex6zx/7hAOfML1WeanxqOGAUjlJg6bkilOfzOJbJC7eqwFRfIah8fGcw8DuH3NemD+cAygUs8zuqL8LrF8CqDUPmullIXqVB7fZQthBSaPFcEfDDGX5lCBKf0DDLeCYEPTkBbFfYun8ykpZK1F8rZP5/1X07PNIXImfDbETeMRnr75qCqCUz0K+bDxidOz1lwFOGf28kw1Nm/31XEFMdJRyL8UNvTmMZn2V+UX1p3ZfAZ667lpW61+4Lwlv3q2CJDnOZ+HwOz2Kd6jpTXc0UpmxvMk7BuaxAdGQG4nx2IMqig5BEiW8ZZX4XdV8CfzByBH7zYhWsMUqFt3dzw3V9mZoluPTVIUhdqR42+mxYIZQ9yvys7ku7Pn+DFzM8QYrdHLk1qUt1/l9GJc/e8NBRJ2b+X+xdn9/Bl3IoFjP8csHlSVEqaa4s3v57WhwW+9Kuz5/gxVhPIdWXCipThi9+X4WS7cEo+cDZSncEI3+LCga7d4h1f+BQAPhiYYZH2V7xMc8fE7o5rb2bo5g/viNYGHge4wBXRpm/hMNPm6aN1P0lGlTECl0fDTAd4d9epIJFSQmPevNLRzlkrZ/BmhpSMG0V1fVJbHLj1LdLJr8ET3Wfdnq6CA3b7lIZpO3uJTv8V2tnsRpPW9p3HlDglpbcvjJuKnNhit/T0UFMbXfg9B1NgmnYUbQtGIkRamSsDkHLvsnMI5jyKQtQse1GbFmsYsOM71+cLQwzXIyzfFfnCaKQw7lvAtF5MFDYp8sccbOZXj4H8xeBbD/AbobYEx7N7Wlwce6zMDR8eBMwyl6eWlzfwdtdmTyAzNPZPvMAygt0F4j+lgSegfnzAHMs93f63gFe3Ly4O/pceScISXLz6Dvlwef+j+/YnFf+jcq2K3ajsu8sbMfmAqc4oXmhuTvN349cAaNwOTgXiA8FdNeNbQlzwCffjMYT2Thjavb+jUp6com3FsNW8wJslWsxeOpZDJWtQe8fq71uf59che68jbB++zKs3700pnVnr0frsQxU1da7Badb1eO6S+v42Jalx4a+QaDF3ON1a23/C6amTlTWNeGMqUWescdSav4jeIsFvny7SvrAgSfn3lF+At5379V5orb0Wq8o39XV5dM3KqVAnpx7Bb67uxsDAwM+e6PSE2DHazs7Oy/vwWObzQb6I/QAr/Q9WG+cy3mX1hFI7ufGxkY0NTWxl6AdKxh9/gc1pqmdlNDybgAAAABJRU5ErkJggg==;fontSize=16;" parent="1" vertex="1">
          <mxGeometry x="660" y="1334" width="80" height="80" as="geometry" />
        </mxCell>
        <mxCell id="fzYEetxtUc2qvv0lDvPF-30" value="IsPass?" style="edgeStyle=orthogonalEdgeStyle;html=1;endArrow=block;elbow=vertical;startArrow=none;endFill=1;strokeColor=#545B64;rounded=0;fontSize=16;" parent="1" edge="1">
          <mxGeometry x="-0.0318" y="14" width="100" relative="1" as="geometry">
            <mxPoint x="529.5" y="1364" as="sourcePoint" />
            <mxPoint x="656.5" y="1364" as="targetPoint" />
            <Array as="points">
              <mxPoint x="656.5" y="1363.43" />
              <mxPoint x="656.5" y="1363.43" />
            </Array>
            <mxPoint as="offset" />
          </mxGeometry>
        </mxCell>
        <mxCell id="fzYEetxtUc2qvv0lDvPF-31" value="" style="edgeStyle=orthogonalEdgeStyle;html=1;endArrow=none;elbow=vertical;startArrow=block;startFill=1;strokeColor=#545B64;rounded=0;fontSize=16;" parent="1" edge="1">
          <mxGeometry width="100" relative="1" as="geometry">
            <mxPoint x="526.5" y="1394" as="sourcePoint" />
            <mxPoint x="657" y="1394" as="targetPoint" />
          </mxGeometry>
        </mxCell>
        <mxCell id="fzYEetxtUc2qvv0lDvPF-32" value="&lt;font style=&quot;font-size: 14px&quot;&gt;Pass / NoPass&lt;/font&gt;" style="edgeLabel;html=1;align=center;verticalAlign=middle;resizable=0;points=[];fontSize=11;" parent="fzYEetxtUc2qvv0lDvPF-31" vertex="1" connectable="0">
          <mxGeometry x="-0.2611" y="-2" relative="1" as="geometry">
            <mxPoint x="19" y="10" as="offset" />
          </mxGeometry>
        </mxCell>
        <mxCell id="fzYEetxtUc2qvv0lDvPF-34" value="" style="edgeStyle=orthogonalEdgeStyle;html=1;endArrow=block;elbow=vertical;startArrow=none;endFill=1;strokeColor=#545B64;rounded=0;fontSize=11;" parent="1" edge="1">
          <mxGeometry width="100" relative="1" as="geometry">
            <mxPoint x="483" y="1320" as="sourcePoint" />
            <mxPoint x="757" y="1180" as="targetPoint" />
            <Array as="points">
              <mxPoint x="483" y="1180" />
            </Array>
          </mxGeometry>
        </mxCell>
        <mxCell id="fzYEetxtUc2qvv0lDvPF-35" value="Amazon RDS" style="outlineConnect=0;fontColor=#232F3E;gradientColor=#4D72F3;gradientDirection=north;fillColor=#3334B9;strokeColor=#ffffff;dashed=0;verticalLabelPosition=bottom;verticalAlign=top;align=center;html=1;fontSize=16;fontStyle=0;aspect=fixed;shape=mxgraph.aws4.resourceIcon;resIcon=mxgraph.aws4.database;" parent="1" vertex="1">
          <mxGeometry x="767" y="1514" width="78" height="78" as="geometry" />
        </mxCell>
        <mxCell id="fzYEetxtUc2qvv0lDvPF-39" value="AWS IoT Core" style="outlineConnect=0;fontColor=#232F3E;gradientColor=#60A337;gradientDirection=north;fillColor=#277116;strokeColor=#ffffff;dashed=0;verticalLabelPosition=bottom;verticalAlign=top;align=center;html=1;fontSize=16;fontStyle=0;aspect=fixed;shape=mxgraph.aws4.resourceIcon;resIcon=mxgraph.aws4.iot_core;" parent="1" vertex="1">
          <mxGeometry x="1422" y="1755" width="78" height="78" as="geometry" />
        </mxCell>
        <mxCell id="fzYEetxtUc2qvv0lDvPF-40" value="" style="edgeStyle=orthogonalEdgeStyle;html=1;endArrow=none;elbow=vertical;startArrow=block;startFill=1;strokeColor=#545B64;rounded=0;fontSize=11;" parent="1" edge="1">
          <mxGeometry width="100" relative="1" as="geometry">
            <mxPoint x="200" y="1534" as="sourcePoint" />
            <mxPoint x="250" y="1454" as="targetPoint" />
          </mxGeometry>
        </mxCell>
        <mxCell id="fzYEetxtUc2qvv0lDvPF-41" value="" style="edgeStyle=orthogonalEdgeStyle;html=1;endArrow=none;elbow=vertical;startArrow=block;startFill=1;strokeColor=#545B64;rounded=0;fontSize=11;" parent="1" edge="1">
          <mxGeometry width="100" relative="1" as="geometry">
            <mxPoint x="1366" y="1347" as="sourcePoint" />
            <mxPoint x="1435" y="1447" as="targetPoint" />
          </mxGeometry>
        </mxCell>
        <mxCell id="fzYEetxtUc2qvv0lDvPF-42" value="" style="shape=image;verticalLabelPosition=bottom;labelBackgroundColor=#ffffff;verticalAlign=top;aspect=fixed;imageAspect=0;image=data:image/png,iVBORw0KGgoAAAANSUhEUgAAAEQAAABDCAYAAAAlFqMKAAAPJElEQVR4Ae2cB3RUVRrHM5lUSoKAiAImtIQWQkkhCATSENJm0ghVdEVQwQKuCO6yLEURBBdQDEiNLgvCCYEEIiUUC+uuHpemgA0FBCGhGEIIaf89/zvcySszoUZGj++ce+57M+/d+93f/b7vfvfeN+MEzXHy5EksX74cgwYNQp06deDk5HRXko+PD6ZMmYLc3FyNhLV76SSLr6qqwiuvvIIGDRrcFQA1gQ8JCcHOnTulqLWaCyCVlZUYNWqUw4FQQnJzc8O6detqFQYLF0BmzJjh0DAkGG9vb+zfv79WoTidOHEC9erVUwExuhiRlJKKFasykZ2Ti6zsTb9e2rgJGzblYNbsOegU0FklF8EkJSXVLpClS5eqKjUaXfDWordRCaC86u4l1n+m8Dzi4uNV8rHzvvzyy1qD4hSvqTA+MVGAuHjpMgov/HJXU1kl8L8Dh+Dl5aWCsnLlytoDQmclbZT5osVLUAHcVRCyIy5cuoxzF4sQEtpDJeO8efNqD4gSBs8z31stzEUKdTfzC0XFKLxQhL4RESogc+fO/fWArMx8z6GAFJz/BeF9+/0BhJpJDfkDiMKR/2aAcAQqKinF+V8u1arzdWgg9PZXyirECHT6bCG++f4HFF2+Iq6Z14bzdVggFOxqRRW25e/EiEdGIiQkFG3atEV0dAymTP07jv14EqUVVSg4f/GOgnFIIDSL0vJKTJsxEx4eHipvL4fstm3bYufuD3G1ohIFCh9wu1rjkEAYLWYseccmCAmEeYsWLfD198dQfKX0jmmJwwH5pbgEJ06dRpu2ba8LhFBemjQZZRWVIrq8Xe1wyGG3rLIK67M2qGC4Gp0wLsmIlVNd0d3fWfWdn58/Tp8pwJ2aBzmchnDGuShjsarRTRsagL0ewE+eyJ3lqvru/vvvx/GfToGa9bvUEE7yVma+q2p0XQ8n5M1xReEud4xNMqq+a9asOY6fOv37BVJ85Sq+2H8Q3t7qdVZPdyf4NTeoYNCHpKYNwqWbDNhoFqyn+EqZztQczmQYjHHIHfPU07rGK0cYnru6umJ7/i5cLa+4IXPhcM4RjP7my8NHsf/QV/i54Jx1LYYxjcMBoR9gFPrTz2cRGRVVI5TZc+aK4I0Qa/IfbCghMOrlzDo6pj/oexo1aoQeYWGYNn0GzhScw+XSMjE1cLjJHRtA4Riuvzhxkog3jC4uAo6npyfCevbEv95fJ3r7enMblkWHS6174cUX7QJ+eMBAHP/ptCjz7LmLjjf9Z0OoKaXlVfj22I/I3ZKHf65Zi4/3firCdYb1N6IZEsb4CS/YhSFNMSIiEidPnxUAe/Xuo7p/9uzZjrFAxEYTDNWdEKg5NxJzSKB87rnnx6saJwHYykePeUo0/PHH1XtGmZmZjgGkJt9g7zsJo+RqOcY+84xNGB0eC0Do1J5wrade3+0eHIQr5RX4Yt8+REVFoXnz5mJDrbi4+LcJRMAoKUVJaRlGP/mkbRiPBsC8PQ3Ju9IRNqMXPBpXTyAXvLUQ3GLlUVZWBu471/bhpFXVO7WmShiMSWhWj496wiaMjo8HwLwtFfEbzYjbYELqx4ORsjwdb2S8gT179tR2222WXytAJAwGXI8+9iebMDo90Rnm7RYYsdmJSM4fhBn/fRWFFedsCqr9sKioCEePHhWbVocOHQLTV199Be5E3s5RIxA6UfYy7Z/pRqJQCYP3jhg50iaMgNGB1TA2JiItfwiWHliO8kpOFuwf3333HV5//XUMHz4cnTt3FuszRqMRBoMBzs7OIjhs2rQpEhISMHbsWOzatQsEdzOHXSBsEEeFr7/9Hvm792B7/k4c/vobqxmw4VpHys+oFUWXSzB46DCbMDo/1cUKI26jCSlb07Hx25waZc7Ly0NycrLdBSqt2SuvAwICMGfOHJw/f77GOuSXOiArVr0rvjt1pgCjxzwp3hdxcXEBe6JuvbpIHzoER459h6vlVSogShgpaWk6GOzFwKe7CgcqfEa2CWk7h2D90Swpiy4/cOAAEhMTdWUpG3yj523atMGyZct0dWg/0AFZl7UB5y9eRO8+4XYF8Q9sh38f/AwVlZYtTwsMxiTFSEpO0T1nMBoQOLZbtWZsMMG0LRUZ+5do5bFeL1my5Lov7xgMTnB2dbYmg1G9PmMLVkpKSo2jlQ7I/IVvYmBsnK5R2sJbdmyFT/b/B+WVEGZyoegSEmz0prOLM7o8270aRpZJjCxT9k5FZRVXXPTH5MmT7dbvWtcVD/RqhvYjOyL8HxGIXNIfEYtjELk4RuTdJ4bAd0BLNGijnqEr5af/ofbZOnRA6tevrxPGtY4r3LzUQRMreLC9Lz499DmKS64gLk792gK/Z+91ff4ajGzL0BqfY8aQD0bgRJHt0WD8eNuRrGdjT7Qb0RGR7/SHeWuqML3ELcnQJtMHKUjKH4TY9YkI/VtP3BvYRNceyubr64t9+/bpmOiAKEny3K2+G3q9Fo6+b0ahTlP9S3h+XduhT5TevAij24QgoRlx2SYRZzDWSNqehnV2/Ma0adNsCt8i0gfRKx5G0o40AUBZHsuUPonnMiXkJAlNTMhNQtfnusPNy11XdqdOnXDq1CkVlBqBuHu746HXwoUg5h1p6PdWFOo+oH7bSAuQ1zST7n8OFo2Pv6YZFDRhSxLG7BiLy2WXVULwIisrSyewwdmAjo8FgL2emJdsbaxsNMHwOzY6MS8FhBCXVQ2F98VvMiMpPw19F0bCu5XejGJjY1FRUT3c2wXi0dADvef0FaopBWAgFbGoZijObs7o/mKIZTRRwGAZ5m1pyPlW/5rl2bNn0apVKx0QDtFsDBslZbDm2SYkbk4WzrpJ9/vwYIwvYt4daIGi0BR5PyPi6BUD4OXrravn7bfftnaQTSAejTzRZ24/oRmyQJkLKBnRqNdc72uM7kYETwq1CYO+Y/iWR3Gh9KK1cnkyYcIEnZB+6e1E/TKsl/XLnJrRY1ov1XPN+jQXJqXUSnk/c0Kh6bs3UJtPs2bNcObMGSGODkidpnXR541+oIkoC1OeEwq9ev0Hq191cvF0QcjLPSwapfAZ8jna/4Iv3pIMrPkPP/wArSNv1LER4jaa7fY2y2R57R/pqAJS38dLmI89IOK5/DQx6mlNnW9i8tAB4aiQsifdLgzZQHr6yKX94fNwSzTv20LMVNkDWocn7t9ogmlLCvae+tQKQp5Mnz5d1SiDiwE9X+mtMlVZpzInEPoXZcMatL3nukBofgk5ZtwbeK/q2datW4Pv6+qABE+2qLyycpvnWSYkbE62OLwtltzmfXRsOWak5wzDhdILkoPIua7Bt5SVjWrS7T4Br6ZeZj23CoTPcrmB2uxkqH5tnZE0Z9g6IEETLQ7RXuN0n2ebcD3hGSu89OHLqIJlbUNSOXz4sAoGwQTRIVPTbDhG5We3A4RaErs+AfVbqP3g/Pnz7wCQ6wjORpi2pmDRvsWSgzVfs2aNCoiLhwsil8RYYg1ZLkeTaxpoykuBTGmfDAFnzUrtuse/oRiVzB+kWu8T93No5pCsKJNO2XegemTr1q3brwPEvCMVa468bwUhT0aPHq1qEIdP9p4cWZhzaO23KBp95vUTzp4On4ngWpvUm/B08ow3GNLL+0Q+rx8GrI0XZck4hQND0MRQVf3X4FbbET+Qw6aVpqR6G3lKfjo2f58nOVjz9PR0lUA+Mb5ioYh10wwJx39oe3D+QhvnJFEmZ54bNLuHBifr9/I+BndMDds3QkRGDBI2WzTFtDUVYZphWwDh1F6pdt3GM9y2P+TeLKjYDYlIzR+MHT/mW0HIkzTNMgGDK/oG1kEzCZ8fqZJNKeetnLeKby0GAcKmGXM0c9JCjdC8FMshlE5Nqu3NAtDeH8u10vwh2HZsh+RgzVNTU1UNVgHZnIy+C+4wkMQbAMJ1ByVto4eLmCUm7xokekvMLLelCkgEdSsp/dPh2P6zXkO0JiOA5Fs0hL2YsCkJ7Ud0hEsdFzAK1ibOmZSy04S098jre9o1EjNlq8lso8k8pHpelMWFWnd3dSjLQtok+4kJWshfwxDyl9tLYTN7YfrqmdYtBakiY8aMUQnEGETrVDlx40w3apk6DVwbD//0dqrnvVp6IyZzIKKXD9Dfvy7BhlNVx0ACCIV79tlnVQUrqd+pc74dEB0djcLCQslD/EJKWb7RzSimBPQfVtOjpuQmiyCQgaBMqR8ORqdR6t/T3OPXUGgwo2J5n8wJ2lomQ4G8FLGQpKw/ODjY8ouqkpISxMVdf5VM+fCtnmdkZFiBHDlyRDdSiJlyLQdmNMXYdYmor5mgLliwwAKEEhIKl+615nOrDbf33Nq1a61AWGdoqDoWuLdrE8uM9drmlbJXlee3E6kyBgme3EPVGdzG+Oijj6qBSCk/++wzjBs3DkFBQfDz80PLli3vSPL39weXB0tLS2VVIp85c6bKXBlfhE3vJVRfCUB7fqtAhI/aZEbjzurJHd+15bap9WeqKimvXXDyde7cObGnwX2NW00sg9pg6zh+/Dj440KlRjGIEqNMriLc1gSGBKKd/nPxh06Yz2oBymsuOAWOEyG6qs5Zs2YJ8WoEYqsBtfHZxIkTVcIRTmuzn9ASe/EQnWLYzN4qtW8W3sIyD7KxHkMgNJXw+RFinVjZAXzpuKCgwHGAUPO4Cq4UkuednuCWZ5qIR2QPW/Nsk9CGbs8HoWno/WKi1j+zhiXE7WmIXvawbobLevhDTHk4hIZQmJycHGinEQy02o/sJBaYuYhshSHN59ois5gEbkkWgOTkTd5Ln0HzomZ4+VSv8En43CKVr1xQDocBQmHs/aCaa6ViP6aGbQit34jflGTZHNtkFj7D1r5Shw4d9NsQUlUcJecIJ3tPmXNfxX9we0QujhZbDpytivTBtTUS5luZUsVGFjeqOLQ2trNRxT9bOHjwoK7ZDqUhlI7qO2nSJJtQCIgbZ/cFNxX+5aFX+6D3633FWknvuf3Qa3Y4gif1gM+AljbNQwIODAwU75PoaDiaySgFXLFiBRo2bGgXjGwc1z3Ehrdmoie/1+bDhg2zbjko65PnDqchUjDmDO2HDh0qXsXQNuxmrxlkrlq1Slm8zXOHBiIl3r17twDTuHHj62qMEhTfaenSpQsWLlwoAkxZXk35bwKIbACDp9WrV4OvS9QEh/9nwH/J+fzzz+WjN5z/H78eU+DQE05lAAAAAElFTkSuQmCC;" parent="1" vertex="1">
          <mxGeometry x="607" y="1121" width="50.75" height="50" as="geometry" />
        </mxCell>
        <mxCell id="fzYEetxtUc2qvv0lDvPF-43" value="Amazon EC2" style="outlineConnect=0;fontColor=#232F3E;gradientColor=#F78E04;gradientDirection=north;fillColor=#D05C17;strokeColor=#ffffff;dashed=0;verticalLabelPosition=bottom;verticalAlign=top;align=center;html=1;fontSize=16;fontStyle=0;aspect=fixed;shape=mxgraph.aws4.resourceIcon;resIcon=mxgraph.aws4.ec2;" parent="1" vertex="1">
          <mxGeometry x="892" y="1335" width="78" height="78" as="geometry" />
        </mxCell>
        <mxCell id="fzYEetxtUc2qvv0lDvPF-44" value="Amazon EC2" style="outlineConnect=0;fontColor=#232F3E;gradientColor=#F78E04;gradientDirection=north;fillColor=#D05C17;strokeColor=#ffffff;dashed=0;verticalLabelPosition=bottom;verticalAlign=top;align=center;html=1;fontSize=16;fontStyle=0;aspect=fixed;shape=mxgraph.aws4.resourceIcon;resIcon=mxgraph.aws4.ec2;" parent="1" vertex="1">
          <mxGeometry x="987" y="1141" width="78" height="78" as="geometry" />
        </mxCell>
        <mxCell id="fzYEetxtUc2qvv0lDvPF-46" value="&lt;font style=&quot;font-size: 14px;&quot;&gt;1. Download Data&lt;/font&gt;" style="edgeStyle=orthogonalEdgeStyle;html=1;endArrow=none;elbow=vertical;startArrow=block;startFill=1;strokeColor=#545B64;rounded=0;fontSize=14;" parent="1" edge="1">
          <mxGeometry x="0.0667" y="-9" width="100" relative="1" as="geometry">
            <mxPoint x="857" y="1161" as="sourcePoint" />
            <mxPoint x="977" y="1161" as="targetPoint" />
            <mxPoint as="offset" />
          </mxGeometry>
        </mxCell>
        <mxCell id="fzYEetxtUc2qvv0lDvPF-47" value="Deploy" style="edgeStyle=orthogonalEdgeStyle;html=1;endArrow=none;elbow=vertical;startArrow=block;startFill=1;strokeColor=#545B64;rounded=0;fontSize=16;" parent="1" edge="1">
          <mxGeometry x="-0.0154" y="-16" width="100" relative="1" as="geometry">
            <mxPoint x="747" y="1374" as="sourcePoint" />
            <mxPoint x="877" y="1374" as="targetPoint" />
            <mxPoint as="offset" />
          </mxGeometry>
        </mxCell>
        <mxCell id="fzYEetxtUc2qvv0lDvPF-50" value="Admin App" style="shape=image;verticalLabelPosition=bottom;labelBackgroundColor=#ffffff;verticalAlign=top;aspect=fixed;imageAspect=0;image=data:image/png,iVBORw0KGgoAAAANSUhEUgAAADwAAABMCAYAAAAx3tSzAAAKq0lEQVR4Ae2ciVNUVxbG879MUjM1maQyNXEJajBmYjSZSmoyMYlRAQVcImBEDAoIiEEkKGiCxmXABMcli+MScZKSqCQq4AIjsgRZGmi6hbabbpCm6Y3f1HlNNyZjBB/Qz6pI1VePKrj3ve+e5Z5z7vIYo/zRGUysy/+CKREbmRy2gSnhqUxbupnQmG2ExuYGHTPj8giNzSN530lqdcZRsoDHRvOfje2dvLQym5DozUxelKKQnbEyh5lx24NO9JeD+2LCp/x1TT4VtbrRUBmZsMfrJS6niJDoLEWykxalMG1pFjNXaU/WT15IL8goxOF0jUh6RAnrOy1MjUhjSkSaIt1J4WmExGxjWlwe02KHEJPL9Pdygo4ZK4fMKS6PWfH5lNU0j53wpes3mbokg8nhqSjSXZzO3JitzAkgh7mr8pidsJOXEnYyOyE/OFi7kxdX7yA01kdapLz/dNnYCZ+6UMVzSzYxOSyVp8JSiYtYR2VUPOVR8ZRFxVMRHktpcg4Hqm/xWZ2Fz2tMQcGRRhuJh39g6tItih8Rwvu+uTB2wsV3Ef5TWCpJEYncjoyhIzIWfWQshoXLaEjJ5rTByanbUNzlDQrO9sCmU9eYEp0VIPzPUxNAODEiEUNkLC2RcTRHxqFbtJyalGxOttk5bvRwosMZFHxnhvQTVx4RHkmnR/TSP1Pp8DQ+WBCP8Z0l6OZH0jI/ktY3FlGzJp1/6/r42uDhqH4gKCg2QerxiZbwu0lsSNtF28FjNHx+1IfCL6k9XkK5yUmZZZAysycouG6HbcXXmBS1eQJt+M0ENh4qoRGoHvDh+gDUOeBWkNEL7C+p5NkJJTxvLelF39LkgBtWt4Jqq5s6m4eOfoIKK1Bw5hHhkXzWyLH0z5zWr0i4thfanUMYgHYH6B0/l7jBAeMBvyZpJuHrtkGaTG1060vo1n9Pd2cZFms1nXcsAdJC9LYHulxjw223b9CEtCaEq61eaqwOHFdWQ8kMOD8HfooBXTyujnw6+t0YBsDQ7yXv2AWW5X5BzMdHVUHaZn9ZSlufG+OAVoRtUG824ykLh3Nz4OI80K2H1iS8bZsx2h3cckGT1cmL7+/g8bdTeHJhuio88U4KkvTXmux0uTUlbMFdHgnn5voIt/gIe9qzMdoH6JDpagBOVbaw48QldhZXqIK0PXa5EUO/T621UWlFwvcnrB+arvoAB9CvEtLWjtY2PArCioSdgxwsrWF9QTGpRd+pwvqC0xSWVGFwDCreXkMJD9nw2Zfh4j+gZR20rsPblqmo9LANb+d3byXzx4XpqvD428k8H7NNaxsWLz2AvTIJzs2GH1+HhnhoS2bAsM/npR3Q6Rzk09OXid52hJhPjqrC0twj7DhxEYPDq52XlvDyus1Lg6WbLksLXeYWuqx6uu50Kh7aHyT452GTG8YCmculL83mYSEssXRtD+gH7oJEWveIrccaafkHUHPCj5KHe0j3bumMx++aeGm/StdI8uC6f/Ig4eBYY2npwz9YmhGW5KGt4yq9jUX0Nh2i11BMr/kst23NATuWD9XbB6kz9VN/Wx2kbXufz0NrZsPVtkFqu/twlUcPJw8345TkwdP+EQa7S0ke2u0eEvac5JXEXfw9Za8qvJr4Kavyj9HS4+KWU9NY2oy7bPE9YuksX/LgRPnI15P28FRYhlKSkbLMg+LpsAxe/WAX9Wa7YhqaqHT1KEJLmZ5EIhWtFr4ua+D45UZVOFrewIUmkxJ0aKjSkh6OnDzI/CsS6R4cG6QP6UsG8aGVsFIAcHjJ/qqUsM0HiNp6WBXCsg6QcbCEdu0LABY8lxbB97N8sXTzWtCtxdu2KZA8NFudvBT/MU9IAWDRRlWQAsALq7ZTZ7Jjcmkk4RtWL9U2N7aaPDwXF+Apj8LTmI5HvwV759d09HuVeVNs+PR/W8k9doGPT5apgrQ9cbUJoxQDtVJpJXmweqmzujD22jD29GDs7cXY10dH/2BgHhYnY/YO2bHYsgqIzVq8D0Hg4UseBpUKpZRm/fBHRBP11MRp+UPLR8nDbyF5COTDv6LWnS6fDYotq4HYryQffhPRSKU9SDxtbCmm/0YW/TVb6W/bj73rC7otVwJOS7y01JPP1Og5W2dQBWlbfatXidqEtCaEJbSss9hwSyH+zHQonQuNq0C3Gm/bhxjsToxOaO11sSCzSImfp72XgxpMis7irfRCbnY7EG3RjLCsPLjLl9wjediiBB5CuO2Om8icwzy3/CNl9UBWEB4UISs+YuHmIpqsA3Rqmy2NHEvLyoMst1S0mrnS1q0KFTozDRaHsoqhqUqPJnmQAoAE/UK6yeZSB6tLcVj+qsdDrdLtfR5W7TzGywn5vLZ+tyrMScjnve1f0WxzaqvSdWYbnkthUBIKP/wNmuJBt0ZxWka7U/GqUqV4Y8M+nln8IZOXblGFPy/+kNeSdvOT2aFdAeCG1TctmRoO4br6Ps5riTibc3Ead9Nz+5wST4u9ybR0TW/j5LVmiqt0qiBtpYgg/kAzG/aHllKIl49QYB9Unr/c8iArDlIAsKiEtJU+/O/RxIb9hOtsXmUdWFYK/R800U+NCf/mti35Ev2Jlurd/WsoYY+ymKao810qfbcNS9FNVv5s+EJC+dgHhbSVpMNPWiPC4qU9mOsLcF1eoXhqV3MOLkM+d0ynAyUeiX3P1RvY8+1VCs9UqYK0/a66Xfvkod7c7Svi/d88PFzEa+lx8soHu/j9/A08HZ6hCn94N1UpBMpSjaSJmkh4uBB/r+TBt4tHyrQd/R5SPvsPryftZl56gSrIysXavd/QesetzMUaE/71bUtiv1JplDlUFtTUor1vUJHsQxBLjy5bElX8sbGTi00mVZC2N7r6HoalFsmH77WYNpwP63pdzM/YjyTx01duVQWJweelFSgpooY2PEidpde3enhmGpS+DDdjQfc+3vas4YrHHbeyg2dmbB6z13yiCi/E5bE4+yCNUgDQymkphfieQTpazw7VtHLo1xVg7/oSS3d1YDetBPzNNheVehtVHT2qIG0buwe0VWl/LC1bHvTOITh8+6Vlz7Q/SJCnZExj2bIkbaW04+9TEy/tJ/yoEO9PFSfwGRQJP/nmWjIPnUGOJ8tBD0GjA3RDG7blI4IFOTh74Hw1f4nMnLhjPM+8s46o7CL+dbGewvM1Aew/X0PRuWqKzgYPRy7cIHHfKaYuy544wnI6/NmwVOUl8iLBc0PPKUu3EEzIvByyIoeZQ8fx5XTpuB+2FMJTF29UtvHKVl5VCNwXIGf4c9X1MfRu/wlxeU4o4btf9MC/x2xj+vJsBc/HbFVIP3AfgUEbvmxh3Ah/82Nl4MC0X8JqP1CWV0KWZjJpYTLPLkxWTp6HKrc1DH+42r7H7cB0aWV94Ei8j3C6aqkI4enLspTj9XI1Rkh0JuNJuLD40thPprUYTMqFB3JvhxCeEpGq2J1aSUg7UeXnV46fOsugzYrfyfmqm2Mn7HJ7iNy013eHR9gGhfT05VvG4VoLn9May8D52wrZN5L30GOXsy/3/xnxwLQ0r6zXMSM6k6mRm4aknKbc0CIq6n+pVs9Zq/MV6X5bUXt/pkN/HRVh+d+qhlbC0vcq6i3XW8i9HjNWZGt2NU1oXC4z43JZkn2Q0lGosn80/ge9KzbImojCUwAAAABJRU5ErkJggg==;fontSize=16;" parent="1" vertex="1">
          <mxGeometry x="160" y="1798" width="60" height="76" as="geometry" />
        </mxCell>
        <mxCell id="fzYEetxtUc2qvv0lDvPF-51" value="Admin Web" style="shape=image;verticalLabelPosition=bottom;labelBackgroundColor=#ffffff;verticalAlign=top;aspect=fixed;imageAspect=0;image=data:image/png,iVBORw0KGgoAAAANSUhEUgAAAFAAAABRCAYAAABFTSEIAAANWElEQVR4Ae2ch1dUZ96A+UN2z/nOnj1nP0uImrXBqkk0Rg0uoqgQKdIGpNgQQZpgAysMRQUFjViiAhKCKIomMRp7oShFitKLNOllePa8FxgZBxSEZeM4nPOcuXOL3ve5v7fct4wO2r8RGdAZ0dXai9EKHGEQaAVqBY7QwAgv10agVuAIDYzwcm0EagWO0MAIL39nBFbW1PHDT9ew8QlmpWsAJq67MHENYJXHflZvPYjdjiPYbdc8bLcfwU1+hvOpd6msqX+n4kEF3nz0lG9lPuguW4vuUmc+W+LEZ0udmWrmxUyb7cy02aHZ2O5Ez24Xhq7B/PYwa1CJAwpMzylkxvcb+czImQmLZUq+MN3MdMutTLPw+WQQgTLbbgdpuUUDSlQT2N3djWyrXIq8PnnjDeyk79MsfZlq4aOKuTdTNZD+QaJnu4vVfhG0d3aqSVQTWFBcwZRlzkw0dFBG3jgDOyaYbmaS5VY+t/BVYdL3nkw2cdcgPJi00p1/mnkpc9n01T25LjOv+P0Cbz/JUsm6/28gY6qhPQcsN3LKehM/WLkqOWG+juCwc2xLSWNH0gONICD5ET7nb/K1YyBfrPLslejLTOttpN7NfL/Au+nZfGbkpIy+vxnIWL7UgVIbF6ptXKjow9qZKjMZ91PuktwCKTWawZVauN4ANkHn0F2+6Y1Am+2k3E77MIErlzpQYLOWQpu15Pdh7UKhmT03fr5JfA38VNKuESSWdnCpCuzkcWoCr9xJ/zCBK5Y6SOI+JYG2wbGjLFBEnLUL+X1YOVO4SqaxETi6Ao1k5Js7UGjuIH2K7Xwze16ssOK3hBvE1sCF4naNIKGkg4tVMHoCv7XCxMmfnOv3yLl2l6zUO2+4couMvErSGiGtXqERpDcoyGmFDeHxTDBWrUQ+rAyca4GpZzBPOyCzA9Lb3pDWBoWtUNEG5a2agUhLXTd4HIpn/KgInGeBqccBnjUoeNqgIKOuU0l6XSf5jd2UtkJJi2Yg0vJKAe5agR/2QLUCR5gTtAI/JoFptZ0UtUIj8LqXBkB0Qb4LUcb8WcvMMY3AZ68V3Cuq59iV+0RdvicRc/0JZ29lDcrpG0+59qxkzCseIaasl9IWEAz0EMdUYF4ruEcm8n+LnBm3dCPjjN2YYrWdabLdTJMFDshk6518szGEey9qqO4cOBEDJWyk+142d/GiqYOXzR0UNXdR0tL9vxWYWd/F8xZwlp9l/DJXppl7I/rNZjntY5bzfmYPgr7TPua4HOCX7DKpuTBSMe+7XkRdQVMbZ/IvEZ2TwLnCBK5UxHLv1b0Bo3DMIrBP4LrQ81KLfbq5N1+YeTHdLgA9+93MVCNQkvovp318vS6Y33LKx0SgaOA/b2ziUNZJDmREE5UbTUJJGL9Wpvy5BE4x3YLB5lC2//yQXZfS2Jn8WElgSjrrj6fy5dog9B33jrnAvMZmIrN/RJ55guPPT5BYGsGNqtQ/l8CJxpvYGnebOwq4/lqVGy1wsVKBoW8UM+wCR1VgcQcUdfXSCUWiXO33ZiQi8KMQONnEA2Pfo4TfLuTQ3ZccvPNCSeSDYrYm3OOrdcHorxnFCGyDqpcZ1KYlUpt5idrsX6l9fouyhmZK2noqqI9G4HQLH6as8mSGLAD9NXtUcdjDTNkol4GtIKKvNdkd9v4VQibCDwvglCFVpc+lY6KC+WgETjXrqYUXex1hydZoDH3fYOQXzbdu4cxy2s+oVSK9AltSvEE+Dg7PgNPL4OxKqsryPj6BuivccI5IIqmiUxobSShuo4+k8k6OpVWw0OOQVDsPuRZuhxKByI6CfmWb2BYR2JLiA/Lx/QSafKQCl7ux8VgK1xoguaqb5Mo3XKmBM7n1LNpyeHgCmxSUNHb1ILb7vz1omkAxEK1nsw2L/eexCUnAWn5BiW1oAkZ+x/iX476hZeEuKC4oJ0+2njxze/Kd3CjY5MeL2GRKunojUdME9lUikyz8mGLpzxTLbUomW/oz1XrH0BvSCijKekHu/CXkzl7Ac0NT8ldY8eLgcc0VOMXUg8Xu4QRcTmNf6jP2XM1Usv96Fhtjfhl6Q1oIzH5J7uKV5H5jyPPllj2DWJEnNVfgRGNXtsb9wZ0u1Ua0aFT/1gwXK3ob0rIhNKQ/RYGTTT0w8o4g9FZ+b0O6kIN3eoi4X4x37G1tBPYfVHq7M0H0xojOBNGIHqgnRt+hZ/+Q2oGfYgT2dWeJmlZvzR70HPb0fK7ZK9W+c5wPSN1YWoG9w5oDRaDoDxTRN981lAWbwqSO07nr5VLWFX2AAq3Adwic/L0XK/yiuZ5Xzc2iem4VvuJRcTVBF24yU5uFVQfWB4rASaaerA48SXYT5DZDaTu0AeduZTHDfvfw2oGa3ox5Wg8FreB4IJa/LdqArrEn/1jigYl/DOJY1msoaoYm4OQvWUyyDGSa7T7+abMXffsgbmS/or5bfXBHDPaUA6VZheTPNSBffx4FBst5scyc4vBoyruhXEwlaYOyTuhMdoN9f4HQCXBC9MYsprYsVzomemKqxPSTpmYOZ8UQlHGUY7lHSSwN5feqy1T0DjL1f0Ucky79zDoFD2sqeVCXw+7EM1js3YFd8G6sDgTie+4Et6uzufsql8e1z8lpyePc41+RHZTjGBHGmohQnI+Ek5p/n+zmQl42tyt7hoW8l82Q0dTN47wq7u8M475fEPf3RPAwKJpHyTdJa+xWTmJ68rqbvLuxFCV4UJTkT9E1OUW/hPO0tBxxLK1OQUa9ggc1rcTk/UFU7u+cLvidxJJrXK3IkI5nv1YdXPqvCxTy0mpbSC47y4WScC5WHOVy9TEuVUdzuTqa5MooEkoiSCg5LHGhOILEskguVUX3I4qfSiOIKw7lQe0Tqc+ur+/uYW0X54vaiSvpIL4K4qvp+RTb5QrixLHifpR2E1tOD2UQWwZxxR0q58QXi9mzXfxUoiBBUKzgQnEXsUXtJJa2k9/ULQ15inv4rwvMqOsiva6d1Iqr/Fx6nOSyU1wqf4P4nlx2Uo3+54jti2UxXCyNIb0+XylQjKBl1itIKu0gqbSdpLIOVfr2i2NKxLlv0/943/bb53SQWCLSIYY6u9/kgrGZXCQktvGopoashnoKmhrIbxwu9RQ2Nal2UfUOeBc2dZPXODaIcrr/IPsYRGDP9DaRlTPqoLCxt0DvN/LfNwNgKJ/9C/C+7aFcN1rn9Jc3RllYOz+w/1R9tZVKautEtBMsmWbhKy2w/LApvvMsMPMKlhrGWY1Is1RFp4Igs0HBi2ao7ICKds1ApEXMNPOMTGCcmLIiLawchsA7aWKl0ptVmn+fv5qFjn78UVTHs9fdpNd2qJDT0EV+XTvPa9s0goKGdp5WvsbcLxLdle7K9XJiie+QVio9yS5gouEaJiy2Vy73GvedLfOddrHS+zDLPcNVMPYMZ4mbHMNNQRhuCv7oMXKT863LHqlrrm/F5nRLX6Zb+fFHWm7/4k/aVisDW1rbWCDzUlkvN97AlglGLnxu4iE9FfFk+iP2axKTTLcoI09InGG1jbkOO6mqFdNHVf/UBIrD0fFX+Nx4HRP+3RuFBnZSVIp1wWLNcN+T+SQ+LX3RkwVyJP66qrnebwMKFMc8g4+ju9SlZ92wgR0iCnWNXHrmAY5EongIQ+BDFnFL/+4orqafYeWPWGy9JfQMXQrF4AI7Orvo7FIoEavW29o7iYpLYb7MG90ljlJ5KK1cX+KEWPr/wTcryhPLrUjlirQtvqvzv45uPWt/lruHEHPxdxSDyBNGdXZGJ0onrvQIxWRLmJJV3gex2xnF4vV70bf2R98+EH2H3ejbB6DvEMgsRzET9cDwcNrPN+5RLPQ5zQLvU4Oy0OcUS3ecx3hXHMa7YofE8oB4FvvGSPNvhn1fb6VjtssBFrgdxHbvaTyPXmR9WDwuIbEqOMlj2Xf2OjriRxVmWG8bFFHm6dls56uN4apsCOOrYRMqyVu0LZbv/AfHYFscq4JSsAy9hkVI6pBYHXad5YEXmLM+9APuSzUtX0rpCudr18PMdYtk7uZBcItE531ZRZRFYrn7l+tDR4EQFnjFSPIW+Z1jML7zP4/p/mTM5VcwC04ZEpahqSzbFcecdSGjcJ9DT+uYChSJm+cWyXd+598ZgYv8z2O8+2fMQ65iLn8/FiFXJcmLvI4zZ618DAWGoTNjtR/TLLwHb5qMagSKJxvC3E2HpbJQlIfvYqHnMRZ6HX8vQtz8zZF8OcbRJ3KlzootYYjqetCsLJYvWPmN6s2JSJyzTv5u1sqZvTZ4yIxt5IVK5aP5rhh0Um6nSzXsuxvI3sxy3CtVIqNTFg69jPlT/n8bwpjveZwz1x6iI9qAW8LOoi8LYKat+D0s8btYb2G9HT3bnXy1IZx5m48w95Okpyae536Ub7YcwyMyifbOrp4foRUSf7xyG8fdxzH3PaSGhdjncxALvwisA05gv/9HHPaf/STxOJLEuV8f09reIb2ZDPoqN+B7i3anmgGtQDUlw9uhFTg8X2pnawWqKRneDq3A4flSO1srUE3J8HZoBQ7Pl9rZWoFqSoa3QytweL7Uzv4Psp/qpijnLD8AAAAASUVORK5CYII=;fontSize=16;" parent="1" vertex="1">
          <mxGeometry x="150" y="1922" width="80" height="81" as="geometry" />
        </mxCell>
        <mxCell id="fzYEetxtUc2qvv0lDvPF-52" value="Amazon API&lt;br style=&quot;font-size: 16px;&quot;&gt;Gateway&lt;br style=&quot;font-size: 16px;&quot;&gt;" style="outlineConnect=0;fontColor=#232F3E;gradientColor=#945DF2;gradientDirection=north;fillColor=#5A30B5;strokeColor=#ffffff;dashed=0;verticalLabelPosition=bottom;verticalAlign=top;align=center;html=1;fontSize=16;fontStyle=0;aspect=fixed;shape=mxgraph.aws4.resourceIcon;resIcon=mxgraph.aws4.api_gateway;labelBackgroundColor=#ffffff;" parent="1" vertex="1">
          <mxGeometry x="481" y="1862" width="78" height="78" as="geometry" />
        </mxCell>
        <mxCell id="fzYEetxtUc2qvv0lDvPF-53" value="" style="edgeStyle=orthogonalEdgeStyle;html=1;endArrow=open;elbow=vertical;startArrow=open;startFill=0;endFill=0;strokeColor=#545B64;rounded=0;fontSize=16;" parent="1" edge="1">
          <mxGeometry width="100" relative="1" as="geometry">
            <mxPoint x="251" y="1842" as="sourcePoint" />
            <mxPoint x="461" y="1892" as="targetPoint" />
            <Array as="points">
              <mxPoint x="341" y="1842" />
              <mxPoint x="341" y="1892" />
              <mxPoint x="461" y="1892" />
            </Array>
          </mxGeometry>
        </mxCell>
        <mxCell id="fzYEetxtUc2qvv0lDvPF-55" value="" style="edgeStyle=orthogonalEdgeStyle;html=1;endArrow=open;elbow=vertical;startArrow=open;startFill=0;endFill=0;strokeColor=#545B64;rounded=0;fontSize=16;" parent="1" edge="1">
          <mxGeometry width="100" relative="1" as="geometry">
            <mxPoint x="251" y="1972" as="sourcePoint" />
            <mxPoint x="461" y="1922" as="targetPoint" />
            <Array as="points">
              <mxPoint x="341" y="1972" />
              <mxPoint x="341" y="1922" />
            </Array>
          </mxGeometry>
        </mxCell>
        <mxCell id="fzYEetxtUc2qvv0lDvPF-57" style="edgeStyle=orthogonalEdgeStyle;rounded=0;orthogonalLoop=1;jettySize=auto;html=1;startArrow=open;startFill=0;endArrow=open;endFill=0;strokeWidth=2;strokeColor=#808080;fontSize=16;" parent="1" source="fzYEetxtUc2qvv0lDvPF-59" edge="1">
          <mxGeometry relative="1" as="geometry">
            <mxPoint x="526" y="1856.9999999999995" as="targetPoint" />
          </mxGeometry>
        </mxCell>
        <mxCell id="fzYEetxtUc2qvv0lDvPF-58" style="edgeStyle=orthogonalEdgeStyle;rounded=0;orthogonalLoop=1;jettySize=auto;html=1;startArrow=open;startFill=0;endArrow=open;endFill=0;strokeWidth=2;strokeColor=#808080;fontSize=16;" parent="1" source="fzYEetxtUc2qvv0lDvPF-59" edge="1">
          <mxGeometry relative="1" as="geometry">
            <mxPoint x="618" y="1779.7241379310344" as="sourcePoint" />
            <mxPoint x="565" y="1871" as="targetPoint" />
            <Array as="points">
              <mxPoint x="647" y="1871" />
            </Array>
          </mxGeometry>
        </mxCell>
        <mxCell id="fzYEetxtUc2qvv0lDvPF-59" value="Lambda" style="outlineConnect=0;fontColor=#232F3E;gradientColor=#F78E04;gradientDirection=north;fillColor=#D05C17;strokeColor=#ffffff;dashed=0;verticalLabelPosition=bottom;verticalAlign=top;align=center;html=1;fontSize=16;fontStyle=0;aspect=fixed;shape=mxgraph.aws4.resourceIcon;resIcon=mxgraph.aws4.lambda;labelBackgroundColor=#ffffff;spacingTop=3;" parent="1" vertex="1">
          <mxGeometry x="608" y="1731" width="78" height="78" as="geometry" />
        </mxCell>
        <mxCell id="fzYEetxtUc2qvv0lDvPF-62" value="Lambda&lt;br style=&quot;font-size: 16px;&quot;&gt;function" style="outlineConnect=0;fontColor=#232F3E;gradientColor=none;fillColor=#D05C17;strokeColor=none;dashed=0;verticalLabelPosition=bottom;verticalAlign=top;align=center;html=1;fontSize=16;fontStyle=0;aspect=fixed;pointerEvents=1;shape=mxgraph.aws4.lambda_function;labelBackgroundColor=#ffffff;" parent="1" vertex="1">
          <mxGeometry x="708" y="1862" width="78" height="78" as="geometry" />
        </mxCell>
        <mxCell id="fzYEetxtUc2qvv0lDvPF-63" style="edgeStyle=orthogonalEdgeStyle;rounded=0;orthogonalLoop=1;jettySize=auto;html=1;startArrow=open;startFill=0;endArrow=open;endFill=0;strokeWidth=2;strokeColor=#808080;fontSize=16;" parent="1" edge="1">
          <mxGeometry relative="1" as="geometry">
            <mxPoint x="566" y="1900.2900000000004" as="sourcePoint" />
            <mxPoint x="699" y="1900.2900000000004" as="targetPoint" />
            <Array as="points">
              <mxPoint x="629" y="1900.29" />
              <mxPoint x="629" y="1900.29" />
            </Array>
          </mxGeometry>
        </mxCell>
        <mxCell id="fzYEetxtUc2qvv0lDvPF-64" value="Amazon RDS" style="outlineConnect=0;fontColor=#232F3E;gradientColor=#4D72F3;gradientDirection=north;fillColor=#3334B9;strokeColor=#ffffff;dashed=0;verticalLabelPosition=bottom;verticalAlign=top;align=center;html=1;fontSize=16;fontStyle=0;aspect=fixed;shape=mxgraph.aws4.resourceIcon;resIcon=mxgraph.aws4.database;" parent="1" vertex="1">
          <mxGeometry x="1031" y="1862" width="78" height="78" as="geometry" />
        </mxCell>
        <mxCell id="fzYEetxtUc2qvv0lDvPF-65" value="" style="edgeStyle=orthogonalEdgeStyle;html=1;endArrow=block;elbow=vertical;startArrow=block;startFill=1;endFill=1;strokeColor=#545B64;rounded=0;fontSize=16;" parent="1" edge="1">
          <mxGeometry width="100" relative="1" as="geometry">
            <mxPoint x="803" y="1902" as="sourcePoint" />
            <mxPoint x="1013" y="1902" as="targetPoint" />
          </mxGeometry>
        </mxCell>
        <mxCell id="IOnJckYV8e3TUQ0V3vOb-2" value="&lt;font style=&quot;font-size: 14px&quot;&gt;2. Preprocessing&lt;/font&gt;" style="edgeStyle=orthogonalEdgeStyle;html=1;endArrow=none;elbow=vertical;startArrow=block;startFill=1;strokeColor=#545B64;rounded=0;fontSize=16;" parent="1" edge="1">
          <mxGeometry x="0.05" y="-19" width="100" relative="1" as="geometry">
            <mxPoint x="858" y="1191" as="sourcePoint" />
            <mxPoint x="978" y="1191" as="targetPoint" />
            <mxPoint as="offset" />
          </mxGeometry>
        </mxCell>
        <mxCell id="IOnJckYV8e3TUQ0V3vOb-3" value="Download Data" style="edgeStyle=orthogonalEdgeStyle;html=1;endArrow=block;elbow=vertical;startArrow=none;endFill=1;strokeColor=#545B64;rounded=0;" parent="1" edge="1">
          <mxGeometry x="0.0204" y="-7" width="100" relative="1" as="geometry">
            <mxPoint x="807" y="1240" as="sourcePoint" />
            <mxPoint x="927" y="1323" as="targetPoint" />
            <Array as="points">
              <mxPoint x="807" y="1277" />
              <mxPoint x="927" y="1277" />
            </Array>
            <mxPoint as="offset" />
          </mxGeometry>
        </mxCell>
        <mxCell id="IOnJckYV8e3TUQ0V3vOb-8" value="Ai" style="text;html=1;strokeColor=none;fillColor=none;align=center;verticalAlign=middle;whiteSpace=wrap;rounded=0;fontSize=18;fontStyle=1" parent="1" vertex="1">
          <mxGeometry x="991" y="1366" width="40" height="20" as="geometry" />
        </mxCell>
        <mxCell id="IOnJckYV8e3TUQ0V3vOb-9" value="&lt;font style=&quot;font-size: 16px&quot;&gt;Open / Close&lt;/font&gt;" style="edgeStyle=orthogonalEdgeStyle;html=1;endArrow=block;elbow=vertical;startArrow=block;startFill=1;endFill=1;strokeColor=#545B64;rounded=0;fontSize=18;" parent="1" edge="1">
          <mxGeometry x="-0.1523" y="17" width="100" relative="1" as="geometry">
            <mxPoint x="1173" y="1230.17" as="sourcePoint" />
            <mxPoint x="1316" y="1283" as="targetPoint" />
            <mxPoint as="offset" />
          </mxGeometry>
        </mxCell>
        <mxCell id="IOnJckYV8e3TUQ0V3vOb-10" value="" style="edgeStyle=orthogonalEdgeStyle;html=1;endArrow=block;elbow=vertical;startArrow=none;endFill=1;strokeColor=#545B64;rounded=0;fontSize=18;" parent="1" edge="1">
          <mxGeometry width="100" relative="1" as="geometry">
            <mxPoint x="1166" y="1443" as="sourcePoint" />
            <mxPoint x="1316" y="1403" as="targetPoint" />
          </mxGeometry>
        </mxCell>
        <mxCell id="IOnJckYV8e3TUQ0V3vOb-12" value="Retraining" style="text;html=1;strokeColor=none;fillColor=none;align=center;verticalAlign=middle;whiteSpace=wrap;rounded=0;fontSize=21;fontStyle=1" parent="1" vertex="1">
          <mxGeometry x="1080" y="1280.5" width="40" height="20" as="geometry" />
        </mxCell>
        <mxCell id="dRPyaWHS_Hkeha7Z-eqn-3" value="&lt;font style=&quot;font-size: 16px&quot;&gt;AWS CloudTrail&lt;/font&gt;" style="outlineConnect=0;fontColor=#232F3E;gradientColor=#F34482;gradientDirection=north;fillColor=#BC1356;strokeColor=#ffffff;dashed=0;verticalLabelPosition=bottom;verticalAlign=top;align=center;html=1;fontSize=12;fontStyle=0;aspect=fixed;shape=mxgraph.aws4.resourceIcon;resIcon=mxgraph.aws4.cloudtrail;" parent="1" vertex="1">
          <mxGeometry x="1243" y="1520" width="78" height="78" as="geometry" />
        </mxCell>
        <mxCell id="dRPyaWHS_Hkeha7Z-eqn-4" value="&lt;font style=&quot;font-size: 16px&quot;&gt;Amazon&lt;br&gt;CloudWatch&lt;/font&gt;" style="outlineConnect=0;fontColor=#232F3E;gradientColor=#F34482;gradientDirection=north;fillColor=#BC1356;strokeColor=#ffffff;dashed=0;verticalLabelPosition=bottom;verticalAlign=top;align=center;html=1;fontSize=12;fontStyle=0;aspect=fixed;shape=mxgraph.aws4.resourceIcon;resIcon=mxgraph.aws4.cloudwatch_2;" parent="1" vertex="1">
          <mxGeometry x="1087" y="1520" width="78" height="78" as="geometry" />
        </mxCell>
        <mxCell id="dRPyaWHS_Hkeha7Z-eqn-10" value="Camera" style="shape=image;verticalLabelPosition=bottom;labelBackgroundColor=#ffffff;verticalAlign=top;imageAspect=0;image=data:image/png,iVBORw0KGgoAAAANSUhEUgAAAQAAAAEACAYAAABccqhmAAAgAElEQVR4Ae1deXAmR3VvaVfa+9KutCtpL2kvaaXV3ve93st73/d9Suu9b9aLd2MwRRwIIZVKUZX8kao4JDYOrhR2TAhJCARjjLlCKpx/EMKRgDFgSBUUR6d+g2YZj2be6/nm++abmX6qUs1803P0+733ftPT/fq1UvInCAgCgoAgIAgIAoKAICAICAKCgCAgCAgCgoAgkBYEJimlPqCUek0ppVP+jzo+o5RCneVPEBAEYiIAR8qC4/uJ6QdKqYkxZZfLBQHrEXgu5W98v+N7f6Pu8icICAIFIjBGKfWrDBPAr5VS4wqUXS4TBKxH4PEMO7/bEvg967UoAAgCBSDQWyn17RwQwHeVUpBF/gQBQSACAltz4PxuK2BLBLnlVEFAEFBKvZAjAnheNCoIxEEAnWHPKqXeSMAp8Az0Xk+JU+GY147lOv8WL1qub9+8n4p/1IXRCzoyIZP8CQKREYDz/5AxMM4ACyl/XSmFZ5fjj+z8q6io1F2dl1Ph/CAh1AV1YnQEmeRPEIiMAN78nHGVqhwRbUn/sZ1/E5onpcb53VYI6sToCR2a0hmYtDXl4HlJNPvDjPcnZcCP7fzbuX1f6ggAdWIIAOWQTf4EgUgImBhWKc+JVNkinEx2/g0cOEjfvP7W1BHAzeuP6UEDB3N6kM7AIhiIbbfgjKrU5UnizUb+panzz23+u1uDzkCJDEzSmnLyrFI7OHf/JGFkOv8qUtX55zq+uz3XdcWkM1AiA5O0qBw8i3PQUpcnBWEmO/9c53e3zXxnICIDq5ICVZ6TfQRIB3cNr9CtQcdVUghu4+qSxs4/P+47pDMwKXux5jm2EMDfUwSQ1s4/PwEYdgaio1P+BAEjBGwggEx3/vlJQDoDjexaTjJEwAYCyHTnn58ADDsDJTLQ0AFsOG2kUmqvUuo9SqkPK6W+qpRCKO4vqGaxlJUtQpIkZdHLm/QCG4Ytw6Zf7LZx2HqdDY5NyVijlHpEKfVppdRvxGjeZDTiYOUL/04Ke9j8p5RS55RSwyhHyVtZg1LqD5VSPxOnF6cXG3Bs4KdKqXcpperz5uxeeTDOfSmhKb1Jsbg8J/9v6iR1/H9KqftKqWqv4+RhH6mtPydsL298sQEjG3hVKTUhD44PGTADDLPqkmRSeZbgnXUbgM9szjoJHFVK/VKcX8hPbKAgG0AmpTNZJYFT0rtfkNKz/uaS+he39YXRgpNZIwE0+yMtaNGrV29dVztST57UomfOmKMXLliqly5ZqZctXSX/gkFmbQA2DFuGTU+a1KJra0fqXr16RSVJtKIz8zmADj/jb/7q6mo9aeIUvWTx8swqWUhKSDqKDSBUGmTQr2+/KETw4yx0DGKap1Fvf2VlpR4/rlkDjCjgybnibHmxAbQOmsZP0PAFwz4SjA6kOq/iTRNBqqqq9PSOWeL40rQXG1i6Ss+YPlujJWziO0qpq2ntD0CEHyKaSEEGDBig589bJIovofPjzTJn9nzd2tLmvGEa6hv18JoResCAgbpv3366qqpa9+7dWytV4WTwwT6Oo3zw4CG6ZthwXV/fqJHpd1r7DD1v7kK9bKn0x5Sy5QGfgG9w/tMdSDcqjSSA8F5SgOqqanH+Ejj+ooVL9dTWdg1HHzRocJQmJakvrz7RTMW9R48eq9vbp8unWwn0uGD+Yl1d3cdEJ0+mjQAwsYeM7YcBzZgxR978RTKc2bPm67FjxztOWVFRYWI0RT0HzxwyeKgeN65Jz5m9QPRaJL3ic8CgTwAt7VRNIMKsPtLA0OFXyiaUDfeeN2+RHj++2Wmqc3gnXY7WwcQJk50hLxt0UUoZx41tIn2pW7ddaWoFYEpvaKXRwSG9/YX33ndMm6lHDK/V5XjTU3oNKsMSYcOH16aqkxff1yNG1BYy/h5q00GymxxDDADwmTsnvNUEX8HnMnO/l9JCAEjmQc7nxzh/KRkzn/deqVta2lL5tmcM84HhDhky1OlELKd+4Py9e1c9qJNp3Ut9Hjpeqc5wtKaYOsDnatNAAvuoiiLCT4J8or3926Z2ZNrx/faAzwPIVA4iwJvfX5+0/K4dUReKCVoBBhGDu9NAAEjjFQoywnvLofgsPnPWzLl68CB2ea1QrCk9pKFs2LAasulbCp0ZOFHZ8MTLkZK5traOq9u700AAyHMWWlHE9lNCStkqp3+ksXFMUb/x+1T30Q0No51v8ZUr1uod2/fqQwdO6DOnzuvLF2/py5duP1hf8Ma1u/ri+Rv67OkL+sihU3rblt16xfLVToAKhv0QuEXpOEoZergxerFk8YpE7CJK3cpxLmX/+HRm6pSKtRa/QVUSkyAoIW0va2+bruGsFIYmZQjkaW1p12tWb9AnjnXqWzfuPXBwf9beqL+R6//E8S69ft1mPWVya9Hqi87NUuvfBLtynkPJj2Fzpm5INFr2v9eoSmImFCWkrWV4AzY2jOYUTJYjcg+fDfv2Hkl0xWCsTrx/31Hn2SAeSv90WYXTGijlrE/6+eEt16Suo+x/4YIlHLbfL7v3c6m7ly5JpqlHAZm2MoTpwnkLMTIMBWICybatexJ1+rBWAz4fUJfmpokFyQMMMFqAKLhS6KkQjJO8hpIZLwmmLj9PAwGQlaQEtLEMTf5COqYqK3tpNJnxnR7mjOU+fvJ4lzPsV4h86GfAvINi2wTjQFp/bXVJ/7nnc/Jy1wsBFCkEk1NEMcqbmydG7uhDYA3CQ7vOXk6t4/uJBysDwZmjBi7h/MmTW4tKApwDCQHEpxBpAbAktNKZXccZo78ccfbofPM7WFZ+Hz/W6eR88MvF/cYnTjEIF/fgniUEIARQNGMLMlp0cI2sG8UaotdQ+/cf4HxXZ8XRuXpu3rRD9+vXPxIGGBYNwjPqMS+uQftCAEIARTG0IMOE8yMHXJDhhR3DMBvG5DmnMinHffbtOaxXLF/j9B80NU105hSAYNzee3yvY3/o0GFOTsbx4yfoWbPmOcOJuPbShZtFq0vLlLZIWIwcWR9bN2E4u8eFAIQAYhtZkPMjgUYU50e8+sYN22I52/Wrj+qd2/c5DlxTMzySs7kO4d/iu7yubpSeO2eh3rXzgL5+9W6sOiKW4LfJSMyG4OK2BPzy+H8LAQgBlIQAYLh+Ywv7jVj5o4dPF+RYCPjZs/uQbmvrME0mYVyvoPr26dPXiS48eOC4vn2zsGCj40fP6qFDa4zr0dRUeJ9AkAzeY0IAQgBFJwD09nuNjNofO2Z8Qc3sq5fv6DWrH9bDhhXnTU/VMawMsf14o9+49tbI5IVPi8YGc5LEp1FwS4ueaBVWd/e4EIAQQEGGFWaMbVOnObn2XAOjtoj1jtqkRjN/1cp1Gt/x1L2TLEMLZvVD6yPLcu3Ko056bJO64lOkkDgBk3uX85wwO3KPG9QtvgfHvANpiK4gNmzxnWz6fYsmO2LsTTrz3HO2bd3tpAAzMApSJ6W6Hs36PbsORpLp1o3HNIKjTOqEZKZRIwZN7lvOczi/MKhbTPeNfzmpPE7AvJQjbHOgYXgvnD/KZJ2uzsu6uXkSibOBoSR2PZrrj3RdNSYCkEBra7tR/YYOGRZpxag04RJUF87+g67xHYvvwTHvQCqOEzAv5fWjGkgcXKWh2R/lzY84e3fIzr1HFrboLETd3dYLtwUmkye1GmGI6cSmdpN2rDg5DOof033jX04qjRMwD+VIk22gKI0OP9NvfkyyQey/yX2pcwaOGKnb1m7VD128q/e99ynd9cF/0zc+9lV974uv6bd95WfO/93P/o9zrPPZj+u9f/SXevXlx3Tr6s16UF197OdjTQHMHuQIAOXApqHeZIZkhYONie0UMi+BwrOYZfhc5GQweF58D455B9JIOAGzXr540TKNtx2nKCy4YRrgg/OiDCN6n43OsrGzFuh1N5/Qlz78hQdO7jp71O2F5z/j3Gv09LmsjN56ePfHjBn3pgQkFBlceOS6sziJ9/qgfayrZ5JUBAk4g65PwzFk/OHs36CeMd03/uUkwJyAWS/HYhyckhDkc+zoWaO3YOeZi870WO6e/vJ+g4fqpaeu6Mv/8MXYTh9GEhdf+KxedOy87mPY1+GtI4Kizp+7ZoQBEpqYJPJE+mzOfpB917Rj1lvfUu9j9uP8efwUaIN6xPfgmHcgHYBTUJbLZ840eyuaRvidPnleDxoYLScgHH/1lXv67qvfK5nj+wnh0Ve+43wm9Bk4iNS933gx7//s6YtGJLB2zUb23kgvhpEXzoaQfRcJOJGDz1+npH+jDnjzmzg/5DKoX0z3jX85WUlOOVkuR/w8pyAsA001ed0yOEaUJCGVvXrpeQdO67e8/K3EHN9PBLdf+qaeu++UrjBf3dZp3Zi2BIAdhy+CkbJsQ1zdOfnju2/8O5BK4gTMajnSXHPKQbCOyXc/zoEhc/dzy4ePm6DP/M0/lc3x/URw6qmPaNTJrR+3xeeANympS4L+LaIFTQKe2tvKk3I8CdvlsIzvvvHvQCo+CZCSfgZm+fXvz09vNRkGQ883VuI1ULRzzoyt+/VjX/h+apzfJYO3fu5/dcfG3cZyoGPQZHQAn08cNohETNoGknoeJ3t8941/B1JBSQGV5HOw7DanGHRQ+d9oQb+R7Ye7F8rR5N9w58nUOb5LAO724dvvNP4kwBBhECZvPnbPWYCUw2jatOKnE0vSpsKexckd333j34E04DDBsnwcbxxKMUjjZZLJZ9OG7eR93Gf0qqp2xvBdJ0v7FvEGvQ1Tne/csZ8lgZMnzmlg6uIRtEUHY5ZtKqzuQbL6jsX34Jh3IBUTJlhWj3d08ME5eKu/+S12v8fvc51XjKbvwvmP/NlzqX/z+0np0Ps+oFF3n7H2+I0oR5OwYZP5AtOnz8odCXD4xfTdolzeQ6neSmfV0cPqPbxmBCkvsveaJPA0SaONZj/epn7nysrvfX/8V0afA1MmT+1BkH4C7TxzSQNbr23597GCcpjesnrcL2PA76I4cZybkErJKvBB9V4wfwmb6Rbhu37j9f/esnkniZmr5Cx883NktO7G241kRVITP07+39M7ZpH3wmdC3haicW2B2Mbx3aJcSyolyJGyeox7ayMM98wpOm8/ev3xvUoo1ClDbz/nXFkp79i0h5UXw6DcPAmsO8DhNjFnS9Fz8hbFg2PehFRKVp09qN5coA6SbvrfWv7fK1esIfGCwjGmnsahvkIJB1GKNWObWLmR4ciPl/83UqVTToHVlYN0l9VjlKzdZTHdN/7lpEKyCry/3liDj1MGN+6PbD5cYAu++9MU5FOo0/uvO/3+j7L9AYMHDWHTi2GVY04PiP/36y+rvzlZ47tv/DuQCskq8P56jx/XTMqJ1gEX2GIS3z7/4JncNP39JDB79zESQxj7w+u3kK0A5B/k8iOgleDXX1Z/CwGwq+7QSSGLpXg0LSllIJe+v7nq/Y0MQFy4Lyb2lDO23++wxf79lk/9l+YmECGdOZdtmOsMzFNMAGVz3WXxX+Ex70A6RrEcsJz3Qc8yOvgoZWCJbq/D+/f37z1KXo97r7l6P7dvf5dMVp2/w+Jw6OCJWFhiNGDJ4uW5aAVQNicEkFDroIUJ/UWTlGv+c4EsePsnOaXXdcikt5CRawVwgVRIH9aHiTQsJINwOV8yYc8WAkjIycMUgOONDXSaqtaWdvKNhfTX1dV0VBySeSTtjOV63sLD9HAeCJUbEkRuRco5MNmI0mlWyigZpQWQEDkgnReliDWrN5AEsHvnAfJ6fF4UI31XuRw66nMvvfh5Eg9gzaUXx5AhpZO8zBCkZOwui/kFH/9yUhFZYdqwemLqLzLPUIpACiv/N7/3NzoIqeuRwy+qE2X9/MZ2OqoPWXy8GPr3uaAghA2H6TRLxym7EQJIoAXAOS++Rbkc/9zyXetvvcM6AoDMlHGPGllPEgD6AbhcfyCRLDl7UF0pjIQAEiAAfN9TSsD6dv63k/c3stpQ16OslIk809pSOP+hV0hc8Fl0+eItEttRzFoMeegI5GwnfgM+/h1IRQaxWpaOYWVaSgnc5J+9uw+R1yNvf1qdtJT1evzLP9WDakeR2HBDq1wylQkTJksLIL5/s3cglZglZw+qK7fiz6qVa8m31Irlq0l8sGhHKR0tzffG4iMUuSJy0tua8u9z2DY0jBYCYN03/gmkEoOcKkvHuOi97dv2kkbKvaWwYk+anbSUdeOCgubMXkBiu2UTPa0aUYVZsrWgulIE2V0W34Nj3iHXBDCQyX3PRa1xcwiQNKOUTpbme2MZMsrAMf3a/9b3/j544Dh5fR5Cgil8hAAS6ATEElSUEs6epuf/Dx9OZxDq+ttPWEsAZ5/+FxLbkXWjSALAWgqUbjBBK+itmqVjlHxCAAkQAJZwopTA9VRzLQgs1Jnmt3Qp6wbZKWyx8Ir3je/fxwIj1PWIKMySswfVlZKvuyxmAz7+5aQSgoTK0jFuEhDCfP2G6f3NrXGXp8QfUcni0c98l7Sdfv36k9heuXSbvB7knSVbC6qrEEACb/kg4N1jStGzADE/3evw/n2OQO7/x4+sbQFAdsrAsY6eH0/vb0zAoq5HBKerx6xuKfm6y+K/wmPegVRCVoF3682FAXNRgNz69I//5xvWEsC9f/8haTsI5/U6vH//xrW75PUgX1ePWd0KAZS5BcA5MIzQb5je39wnAJbUitp0zsv5SBBCGXifPn1JbLkoS4QKZ9Xx3XpT+EgLIAFy4OLNucU/uRyAN/71a9YSwNV//BJJAOhA9ZKpfx9rBVAOginYriNldUvJJwSQAAH07dOXNDJuGBAr4VJK7Hz249YSwNlnPkZiUzuijiQAzMKksMUQblYd3603JZ8QQAIEwK0DeOTwKdJIuUAgBMPkpUkfVY5dT/456cBcINChAyfI69GCcB0pq1shgAScnDKOGmYpsG1bd5MEwIUCr778mLUEsKLrFunAXGowLhR4eA6WChMCKDMBYF46pQRMSPF/m3p/P7RqHXk9JsREfXPm5XxuMhA30WrJ4hUktjIZKOb4nuHlpBKot2sWysaPp9cDmDFjDkkA3HTgQXX1VhIAhj/7D60hbYebDszlasBU7izYGFVH6uXTXWbopqU7jVQiJVwWyqZOnUbKN3r0WJIAECrMKfHC85+xjgTOffCTLC4Y5vO2pvz7mCtAYQuCyIKNUXWk5BMCSODzAFNSKSUg3BTpqfzG6f09YkQdeY91N5+wjgDWXnucxARLfXsx9O/fuvGYrqqiMy3nYYkwyvaEABIgACQFxUITlCK4pKAzZ8whrx/dMcc6AhjVQres5syeTxLA0cOnSUwRwLVs6UppAZSu5f/gzqQiqOZNVsq4ocD16zaTxrp710ESI5DLxRc+aw0JPPJ3L7N47Np5gMSUywaEVO5ZsS+qntSLR1oACbQAoJzRjWNJg50yuZU0VoQLVzMr2Sw6dt4aAlh45ByJJ0KAuYVBmsbTuRqxmAvlWFkpEwJIyMkpg+A6ApEanJsV2Da1gzb6AQP1o698J/ckcPulb+rqfgNILLhEq8Ca+/4H3pROs1ImBJACAli4YAlpsFDS/n1HyVYAyjll2hAUtOzMdRYHbvhv757D5D0wC3DRwmVCAA++0ku7QyojK0zL1XMQkxtw1sy5JAFgyWtugRAsmok3ZF4Cffxy3PzEN3SfAQNJe/lt7/89EktuodW8fP/DJrmXRmld2+zuZCU5x8pKORcQhPRT3NRgbj07KHvuvlO5JYCOjbtJW4H869ZuIp3/6uU77EKr48Y15eLtLwSQgua/S1AYluLYeNvWPaTxXr/6qEaiSuo+FZWV+tRTH8kdCRz/ixdIuYEJsOFSrG3asJ29D3Tl6i3rW8pWusvMXtMlPItUSNYV4K0/ctRRCuFmryGYZeWKteQ9cP/h4yboPCUKufPp/9ZD6sewcnOrLAM/bnZlHmYAem2OsjchgIRbCNzQExTCBQVheGvokGGsM6C57P+GzuJvLAHWsnIDKy9y+HOfUMeZ+f/AHyTsdaCs7wsBJOzklMEsmL9Ec0k+sSClP2zV/xurCRkoVj98+52ZJ4GHLtGJO10cdmzfx+KGeAv3/KAtdDN/3mIhgBI294NuTSqFcqgslqGXOsj43GMIQT3XdYU15ubmSeR9cD/0B+x771OZJYHtT/wpS5iQc+KEySxep06cY+9VW1uXK+eHf7h2RWyDfDLRY2Qls+jkVJ3xhieU4ZSZtAIeOXdVY+SAu1fv6j760PuezRwJHPiTv9aVvXqz8iHl2rlOnjC5YCzgiAQilO6yWMbZR6KeHvIwUslZBJ2rMxcTgKbosaNn2bcal9HGVX6vqmqdpTUE8eY3cX7Ix42c4PMJE3+4T6+8df65NujaALENccvkDltHAFNb6ZlsUBZ6q/3f/kG/EUBEKPdBGT4H1t14e6pbAujwwzc/56yuvFwyFeCFab9cVibcDzpxnSZPWxcrYpucp4c86YGRBlUyT8rwysKN5wOLzZt2sCSA1W2QVCQIu6Bj0zfv1Xdf/V7qiABDfSa9/a5MY8eMZ+dPgABMgqfy+vaHvbl4EdsQt0zuMFlJr9Pkad+kFYC4AW7dABg5zsFa9oSS31RWM7ZJn37/R1NDAgjyMRnnd+UbNqxGc9l+gMuFR65rLi077tnePj2Xb38hgBQNAQaRF1avdY06bNsypY1tBcDYuzovay7vgPcZaGbP3n1Mv+Xlb5WNCBDb37FpD4uBt96I04eskJn6x5JrJnEXiB8I0k1ejnmxC9lP7lUf8iTSAPKiiCA5EHJq8r3LJQxxHeH0yfORSAAGgQlEq87fSfSzABOWlp+9wU7s8RvsoIGDdeeZi6Tju1gAb//1/t8OCc6aJwQQ4phJHSYVFeQ4eTrWUN9Iyg+jxfJiJqMCMH68HaN8DrhOASJYeLhLX3rx8yVrESCTD57Bzed36+TdDh8+Qned5d/8wODA/mNsGjbcG30nebKlIFm8GIbsJ+Xnoc8hHSBIqDwdW7xomUYGmxDlPDiOzwWT7144APoEuCxE1PMa22fp9bfeoc9/6JVYZIDU3cjeu/b62/SoKe0PZKGeHVTW2DjGWPbz565pdOoF3cd7DJgvXrRcCCDULZMrIJWVJ2cPkwUZbLzGGbbf2DCGne3mNoGR9Wam4RBh2PNwfOCIkRoLcOAzAVGFZ57+Z33z41/Xd175toaD3//S604/AhbqxFp9WK5reedN5xoubz/1XLds9qx5bIy/K/PlS7c1t5aie18EW4XpI0/HXXmJbXKeHvIk0vjzpAxKFqxCQyjpQRnCXrk04q5DYItgIZOIQZNnJ3kOeu+3btll9L0POTFJaszocQ9woupqQ9PftTUKh+6yELdM7jCpNFeQvG+XLF7OzvV3lYmMNghw8To6tY+wYZO5A+79y72dNHGKRlOekslbBiwmT2oh7ciVCZ8HS5essOLtD59x5Sa2yXl6yJPISubd8b3yzZu7UPfuXUXi4SqytbU9UksADoNZhCZTid1nJL0dOrTGKLTX6/x485s6PzpT87DYh9dmuH0DHYa4ZXKHSYPnBMxbOb5NTYYGodjJk1rZ9NdeZ8E+HAaLZppEIhoYD6k70+tRl4dWrTeK7PPKg2/+MWPMmv3AdNo0O777vT5hoIPkPD3kSaQReYWxZR9JKQwU55zTUD/aiXjzOobJPohg7eoNmlu+3LQehZyHiL71azdFJjHIh08E0w4/1G3ixCnWNPu9fmKglxC3TO4waexeYWzajxLfj+g4LpNQOCncc8bN29o6jIYjDQyK1CcWOEErB2nOEa0XXq/wSD+M85sM9bl1xTCiTbbjldXFgNgm5+khTyINxiuMbfv1oxpIbLxKxfft6ofWa6QPL8SpcA2GDvfsPqQxw7CWWZDU+2xuH0E8iHrEUudoeRRaP8gGGSsrexnjgpmAeVjjr1Db53QT4pOJHiaVWajgebgOC4siS42BEh+cM2lSi3HQDOeIWJocTovvcyTLaGqaqOtqRzpvXwwtYkUj1A1BNYMHDdFYxRjnIP5g5Yo1Ggt04Dude45JOSb2mMT2e7Eaabnzwwe8eITsJ+rsQQ8jK5kHR44jA0hgVISWAJTcv/8AvXHDtlitAROnTOIcDPEh26/JrD6vgcP5gV0c7PNwrReTkP0gn0z0mBCAwazFKH0CrqIxZ/7kiXNFeQMn4ez+Zxw5fMoomYcrr7vFyEAenLcYMriYENtEnT3oYUIABgQAY8DogOkQoatwnI/Aoc4zlzJDBEjgiRx+UWVVqsJJEFoMx8nLPVw7ILZBPpnoMSEAQwKAUaIH3TRYyKt0dJxN75ilTx7vSi0RYMYjUndHd/zfzphsb8vHir7FJB+vDYTsJ+rsQQ/7RUjFHGKwKWzTVPGIGIwTyIO173Zs3xs58MbfRC/Gb6zVt2njdnbFHspGkGQVmJjiZ8t5SxavIF+uSqmfBzlk0sdeo5S7cMFSUWxACwHKbTScQBSGL3ry0SrYv/do5LDiOM6P4UYs0Y1Pk6qqas5IyXJMogIWtjh1FDmxEE2Y7ruPfz9pZw963tepSs6cMUeUG0AAriFgKnHUHvIgvDGkh0k4SKKJz4QoMw45MkBPPlJzr1i+2hnKq6oym+8QVE/3GMgLsrs4yHZVDywwdOviFbL9apBDJn3sxZDKOZXHuLYot6dyvZggqQgyCxXy7RyGPQKLMPwII4LjIkPxoQMn9NnTF5zQY8QIIJIPb3MkKkEnI9beO3jguN6yeaeTbKO1pV1jOK4YDv+7elY4LR8bknl4dVzIPgj9d7ipoP3nk3b2oOe9h6ok4r0LEd7Ga+bMXqBrhplnB6ZwT2MZsiIhStFG3RYiMwKzGD2+O8ghkz62l6ok1soTtqdbAH7jwBBanE5CSh/lKBswYECuU3f79VeM3/AZ+A6jr11JO3vQ8+qUUr+hKiqfAdEIwDUgTPCJkiqc0kE5yjDhZ8qUqRLRR/QBubr2bw2a/79WSnInYksAAAcRSURBVI0IcshyHHuZMrB+fftZlcXFr8y4vzEPHs3BiopK7o1Q9nL0Y2DyEEYn4spt6/UYFenbl000+8lyOHrYM89RBIAyTASxVaHFkhvDQk1NE5y5AhzeSZfjk6W5eaJGHYslr633wbqSBvrrDHPGchyvUUr9lKp0ZWVlLpdvLpeRIjUWSLVcnwh40w8ZPNSpAzL/lguHvD13+vRZJi29N5RSw8rh6NQz0SNJMld1VbWeP2+RGEsB34SUoSPYqm1qh7NQBgihFJ8K6JDCMlxYrwD5DBctXCZ6LLIe4RuGgVW/TzliucrquVYACAI9wkIChXUKUiTgLcM0WrQQ2qZOc97QSEyC73JkHkIADmIE3H+8ydE6AzljMVOE5WJlIsQlYPISRiSQDESm5pZWZ/PmLTL9tPuJUmpkuZyce+51rhWAcgSWSCdRaQ3KSwiyn26sEawFAjbxHaXUJc4Jy1neWyn1qokgeOuMG9skMQJFbkaKs6fb2b36QW8/OvwifLK9opSCj6X6b4JSCs0UI0YD82G1HAkWyo7heo1Y9qPrDbaOcX6DoT6vD/1IKdWcas/3VG6zUuqXpiSA89DJhPx5AGbGjDl64YIlMktMWgeZ72jEWx62DJtGanPEcxhE+HkdH/vwpY0e/8rE7kkuQjAKQci5Zi0qwSl3OCHK9ngmPD6gkkeitgTEgHNnwP63mfw2/DxWSv1KKXU6wK8ydQifAz8WxxbHFhuIZAPwmcw1+8OYCR2DRqMDYiSRjETepuZv0yxhhd7+zHT4hTm9/ziGLzCGaTxCIGQgZGCZDfxMKXVfKVXtd548/R6llPoDk6hBy5SfpTeU1LW4LQ/Mo3lSKYWp9db8YTIDZhG+JKMF8qa3kOwxnx9TejGrL3UTe5JmoVql1G6lFCYUvaCU+opS6gfdaY/lbVPct43gmSyeSN0NW/5yt22/SymFTD6pSeaRtLPb9jzS4biMvHkvN3jz22YvIm/OEBACuHk/dDUjIYCcWbuI0wMBIQAhgB5GIQfsQUAIQAjAHmsXSXsgIAQgBNDDKOSAPQgIAQgB2GPtImkPBIQAhAB6GIUcsAcBIQAhAHusXSTtgQBJAAbDYLZf3wNQOSAIZAkB2x04rvxZ0rXUVRDogUBcB7D9+h6AygFBIEsI2O7AceXPkq6lroJADwSwjFNcJ7D1emTFkT9BINMIPCcEUDABPp1pzUvlBQGl1BSl1OtCApFJ4DWl1GixIEEgDwiMUUo9I+nQjEgAKePw5hfnz4PliwyJI0D2F3zly1/T1L9BSyVxgeSBgoAgYI6AEIA5VnKmIJA7BIQAcqdSEUgQMEdACMAcKzlTEMgdAkIAuVOpCCQImCMgBGCOlZwpCOQOASGA3KlUBBIEzBEQAjDHSs4UBHKHgBBA7lQqAgkC5ggIAZhjJWcKArlDQAggdyoVgQQBcwSEAMyxkjMFgdwhIASQO5WKQIKAOQJCAOZYyZmCQO4QEALInUpFIEHAHAEhAHOs5ExBIHcICAHkTqUikCBgjoAQgDlWcqYgkDsEhAByp1IRSBAwR0AIwBwrOVMQyCQCSDL6rFIqDWsOoA5IfY7sx/InCAgCJUYAzv9Dg+SdZEugBNcj9TnqJn+CgCBQQgTw5k/auU2fh9Tn8icICAIlRCANzf4wQkBOf/kTBASBEiIQ5nxpOV5C0eXWgoAgkBZHD6uHaEgQEARKiECY46XleAlFl1sLAoJAWhw9rB6iIUFAECghAmGO5xxftnSVLuW/wQhECUWXWwsCgoAQgNiAIGAxAkIAFitfRBcEhADEBgQBixEQArBY+SK6ICAEIDYgCFiMgBCAxcoX0QUBIQCxAUHAYgSEACxWvoguCAgBiA0IAhYjIARgsfJFdEFACEBsQBCwGAEhAIuVL6ILAkIAYgOCgMUICAFYrHwRXRAQAhAbEAQsRkAIwGLli+iCgBCA2IAgYDECQgAWK19EFwSEAMQGBAGLERACsFj5IrogIAQgNiAIWIyAEIDFyhfRBQEhALEBQcBiBIQALFa+iC4ICAGIDQgCFiMgBGCx8kV0QUAIQGxAELAYASEAi5UvogsCQgBiA4KAxQgIAVisfBFdEBACEBsQBCxGQAjAYuWL6IKAEIDYgCBgMQJCABYrX0QXBIQAxAYEAYsREAKwWPkiuiAgBCA2IAhYjIAQgMXKF9EFASEAsQFBwGIESAJQSpW73GLViOiCQOkRKLeDc88vPQLyBEHAYgQ4Byx3ucWqEdEFgdIjUG4H555fegTkCYKAxQi8kYLv/DAS+LHFehHRBYFEEHguxQTwdCIIyEMEAYsRmKKUej2FJPCaUmq0xXoR0QWBxBAYo5R6Rin1kxQQAeqAN784f2LqlwcJAoKAICAICAKCgCAgCAgCgoAgIAgIAoKAIBANgf8H4n8V5wkHTVQAAAAASUVORK5CYII=;fontSize=16;aspect=fixed;" parent="1" vertex="1">
          <mxGeometry x="239.02999999999997" y="380" width="84.97" height="83" as="geometry" />
        </mxCell>
        <mxCell id="dRPyaWHS_Hkeha7Z-eqn-13" value="" style="edgeStyle=orthogonalEdgeStyle;html=1;endArrow=block;elbow=vertical;startArrow=none;endFill=1;strokeColor=#545B64;rounded=0;fontSize=16;" parent="1" edge="1">
          <mxGeometry width="100" relative="1" as="geometry">
            <mxPoint x="1270" y="1121" as="sourcePoint" />
            <mxPoint x="1364" y="1271" as="targetPoint" />
            <Array as="points">
              <mxPoint x="1270" y="1121" />
              <mxPoint x="1364" y="1121" />
            </Array>
          </mxGeometry>
        </mxCell>
        <mxCell id="dRPyaWHS_Hkeha7Z-eqn-15" value="" style="edgeStyle=orthogonalEdgeStyle;html=1;endArrow=block;elbow=vertical;startArrow=none;endFill=1;strokeColor=#545B64;rounded=0;fontSize=16;" parent="1" edge="1">
          <mxGeometry width="100" relative="1" as="geometry">
            <mxPoint x="1200" y="650" as="sourcePoint" />
            <mxPoint x="1200" y="808" as="targetPoint" />
          </mxGeometry>
        </mxCell>
        <mxCell id="dRPyaWHS_Hkeha7Z-eqn-19" value="" style="edgeStyle=orthogonalEdgeStyle;html=1;endArrow=none;elbow=vertical;startArrow=block;startFill=1;strokeColor=#545B64;rounded=0;fontSize=16;" parent="1" edge="1">
          <mxGeometry x="-0.0154" y="-16" width="100" relative="1" as="geometry">
            <mxPoint x="1530" y="209.99999999999997" as="sourcePoint" />
            <mxPoint x="1604" y="209.99999999999997" as="targetPoint" />
            <mxPoint as="offset" />
          </mxGeometry>
        </mxCell>
        <mxCell id="dRPyaWHS_Hkeha7Z-eqn-20" value="" style="edgeStyle=orthogonalEdgeStyle;html=1;endArrow=block;elbow=vertical;startArrow=none;endFill=1;strokeColor=#545B64;rounded=0;fontSize=11;startFill=0;endSize=6;" parent="1" edge="1">
          <mxGeometry width="100" relative="1" as="geometry">
            <mxPoint x="493" y="1464" as="sourcePoint" />
            <mxPoint x="765" y="1563" as="targetPoint" />
            <Array as="points">
              <mxPoint x="493" y="1464" />
              <mxPoint x="493" y="1563" />
            </Array>
          </mxGeometry>
        </mxCell>
        <mxCell id="dRPyaWHS_Hkeha7Z-eqn-25" value="MQTT&lt;br&gt;Publish" style="edgeStyle=orthogonalEdgeStyle;html=1;endArrow=block;elbow=vertical;startArrow=none;endFill=1;strokeColor=#545B64;rounded=0;fontSize=16;" parent="1" edge="1">
          <mxGeometry x="-0.1175" width="100" relative="1" as="geometry">
            <mxPoint x="1513" y="1796" as="sourcePoint" />
            <mxPoint x="1300" y="1285" as="targetPoint" />
            <Array as="points">
              <mxPoint x="1670" y="1796" />
              <mxPoint x="1670" y="1285" />
            </Array>
            <mxPoint y="1" as="offset" />
          </mxGeometry>
        </mxCell>
        <mxCell id="dRPyaWHS_Hkeha7Z-eqn-30" value="" style="rounded=1;whiteSpace=wrap;html=1;fillColor=none;strokeColor=#707070;verticalAlign=top;" parent="1" vertex="1">
          <mxGeometry x="110" y="350" width="350" height="164" as="geometry" />
        </mxCell>
        <mxCell id="dRPyaWHS_Hkeha7Z-eqn-31" value="Open / Close" style="edgeStyle=orthogonalEdgeStyle;html=1;endArrow=block;elbow=vertical;startArrow=block;startFill=1;endFill=1;strokeColor=#545B64;rounded=0;fontSize=16;" parent="1" edge="1">
          <mxGeometry x="-0.0294" y="-20" width="100" relative="1" as="geometry">
            <mxPoint x="476.5" y="432" as="sourcePoint" />
            <mxPoint x="612.5" y="432" as="targetPoint" />
            <mxPoint as="offset" />
          </mxGeometry>
        </mxCell>
        <mxCell id="dRPyaWHS_Hkeha7Z-eqn-32" value="" style="shape=image;verticalLabelPosition=bottom;labelBackgroundColor=#ffffff;verticalAlign=top;aspect=fixed;imageAspect=0;image=data:image/png,iVBORw0KGgoAAAANSUhEUgAAAEQAAABDCAYAAAAlFqMKAAAPJElEQVR4Ae2cB3RUVRrHM5lUSoKAiAImtIQWQkkhCATSENJm0ghVdEVQwQKuCO6yLEURBBdQDEiNLgvCCYEEIiUUC+uuHpemgA0FBCGhGEIIaf89/zvcySszoUZGj++ce+57M+/d+93f/b7vfvfeN+MEzXHy5EksX74cgwYNQp06deDk5HRXko+PD6ZMmYLc3FyNhLV76SSLr6qqwiuvvIIGDRrcFQA1gQ8JCcHOnTulqLWaCyCVlZUYNWqUw4FQQnJzc8O6detqFQYLF0BmzJjh0DAkGG9vb+zfv79WoTidOHEC9erVUwExuhiRlJKKFasykZ2Ti6zsTb9e2rgJGzblYNbsOegU0FklF8EkJSXVLpClS5eqKjUaXfDWordRCaC86u4l1n+m8Dzi4uNV8rHzvvzyy1qD4hSvqTA+MVGAuHjpMgov/HJXU1kl8L8Dh+Dl5aWCsnLlytoDQmclbZT5osVLUAHcVRCyIy5cuoxzF4sQEtpDJeO8efNqD4gSBs8z31stzEUKdTfzC0XFKLxQhL4RESogc+fO/fWArMx8z6GAFJz/BeF9+/0BhJpJDfkDiMKR/2aAcAQqKinF+V8u1arzdWgg9PZXyirECHT6bCG++f4HFF2+Iq6Z14bzdVggFOxqRRW25e/EiEdGIiQkFG3atEV0dAymTP07jv14EqUVVSg4f/GOgnFIIDSL0vJKTJsxEx4eHipvL4fstm3bYufuD3G1ohIFCh9wu1rjkEAYLWYseccmCAmEeYsWLfD198dQfKX0jmmJwwH5pbgEJ06dRpu2ba8LhFBemjQZZRWVIrq8Xe1wyGG3rLIK67M2qGC4Gp0wLsmIlVNd0d3fWfWdn58/Tp8pwJ2aBzmchnDGuShjsarRTRsagL0ewE+eyJ3lqvru/vvvx/GfToGa9bvUEE7yVma+q2p0XQ8n5M1xReEud4xNMqq+a9asOY6fOv37BVJ85Sq+2H8Q3t7qdVZPdyf4NTeoYNCHpKYNwqWbDNhoFqyn+EqZztQczmQYjHHIHfPU07rGK0cYnru6umJ7/i5cLa+4IXPhcM4RjP7my8NHsf/QV/i54Jx1LYYxjcMBoR9gFPrTz2cRGRVVI5TZc+aK4I0Qa/IfbCghMOrlzDo6pj/oexo1aoQeYWGYNn0GzhScw+XSMjE1cLjJHRtA4Riuvzhxkog3jC4uAo6npyfCevbEv95fJ3r7enMblkWHS6174cUX7QJ+eMBAHP/ptCjz7LmLjjf9Z0OoKaXlVfj22I/I3ZKHf65Zi4/3firCdYb1N6IZEsb4CS/YhSFNMSIiEidPnxUAe/Xuo7p/9uzZjrFAxEYTDNWdEKg5NxJzSKB87rnnx6saJwHYykePeUo0/PHH1XtGmZmZjgGkJt9g7zsJo+RqOcY+84xNGB0eC0Do1J5wrade3+0eHIQr5RX4Yt8+REVFoXnz5mJDrbi4+LcJRMAoKUVJaRlGP/mkbRiPBsC8PQ3Ju9IRNqMXPBpXTyAXvLUQ3GLlUVZWBu471/bhpFXVO7WmShiMSWhWj496wiaMjo8HwLwtFfEbzYjbYELqx4ORsjwdb2S8gT179tR2222WXytAJAwGXI8+9iebMDo90Rnm7RYYsdmJSM4fhBn/fRWFFedsCqr9sKioCEePHhWbVocOHQLTV199Be5E3s5RIxA6UfYy7Z/pRqJQCYP3jhg50iaMgNGB1TA2JiItfwiWHliO8kpOFuwf3333HV5//XUMHz4cnTt3FuszRqMRBoMBzs7OIjhs2rQpEhISMHbsWOzatQsEdzOHXSBsEEeFr7/9Hvm792B7/k4c/vobqxmw4VpHys+oFUWXSzB46DCbMDo/1cUKI26jCSlb07Hx25waZc7Ly0NycrLdBSqt2SuvAwICMGfOHJw/f77GOuSXOiArVr0rvjt1pgCjxzwp3hdxcXEBe6JuvbpIHzoER459h6vlVSogShgpaWk6GOzFwKe7CgcqfEa2CWk7h2D90Swpiy4/cOAAEhMTdWUpG3yj523atMGyZct0dWg/0AFZl7UB5y9eRO8+4XYF8Q9sh38f/AwVlZYtTwsMxiTFSEpO0T1nMBoQOLZbtWZsMMG0LRUZ+5do5bFeL1my5Lov7xgMTnB2dbYmg1G9PmMLVkpKSo2jlQ7I/IVvYmBsnK5R2sJbdmyFT/b/B+WVEGZyoegSEmz0prOLM7o8270aRpZJjCxT9k5FZRVXXPTH5MmT7dbvWtcVD/RqhvYjOyL8HxGIXNIfEYtjELk4RuTdJ4bAd0BLNGijnqEr5af/ofbZOnRA6tevrxPGtY4r3LzUQRMreLC9Lz499DmKS64gLk792gK/Z+91ff4ajGzL0BqfY8aQD0bgRJHt0WD8eNuRrGdjT7Qb0RGR7/SHeWuqML3ELcnQJtMHKUjKH4TY9YkI/VtP3BvYRNceyubr64t9+/bpmOiAKEny3K2+G3q9Fo6+b0ahTlP9S3h+XduhT5TevAij24QgoRlx2SYRZzDWSNqehnV2/Ma0adNsCt8i0gfRKx5G0o40AUBZHsuUPonnMiXkJAlNTMhNQtfnusPNy11XdqdOnXDq1CkVlBqBuHu746HXwoUg5h1p6PdWFOo+oH7bSAuQ1zST7n8OFo2Pv6YZFDRhSxLG7BiLy2WXVULwIisrSyewwdmAjo8FgL2emJdsbaxsNMHwOzY6MS8FhBCXVQ2F98VvMiMpPw19F0bCu5XejGJjY1FRUT3c2wXi0dADvef0FaopBWAgFbGoZijObs7o/mKIZTRRwGAZ5m1pyPlW/5rl2bNn0apVKx0QDtFsDBslZbDm2SYkbk4WzrpJ9/vwYIwvYt4daIGi0BR5PyPi6BUD4OXrravn7bfftnaQTSAejTzRZ24/oRmyQJkLKBnRqNdc72uM7kYETwq1CYO+Y/iWR3Gh9KK1cnkyYcIEnZB+6e1E/TKsl/XLnJrRY1ov1XPN+jQXJqXUSnk/c0Kh6bs3UJtPs2bNcObMGSGODkidpnXR541+oIkoC1OeEwq9ev0Hq191cvF0QcjLPSwapfAZ8jna/4Iv3pIMrPkPP/wArSNv1LER4jaa7fY2y2R57R/pqAJS38dLmI89IOK5/DQx6mlNnW9i8tAB4aiQsifdLgzZQHr6yKX94fNwSzTv20LMVNkDWocn7t9ogmlLCvae+tQKQp5Mnz5d1SiDiwE9X+mtMlVZpzInEPoXZcMatL3nukBofgk5ZtwbeK/q2datW4Pv6+qABE+2qLyycpvnWSYkbE62OLwtltzmfXRsOWak5wzDhdILkoPIua7Bt5SVjWrS7T4Br6ZeZj23CoTPcrmB2uxkqH5tnZE0Z9g6IEETLQ7RXuN0n2ebcD3hGSu89OHLqIJlbUNSOXz4sAoGwQTRIVPTbDhG5We3A4RaErs+AfVbqP3g/Pnz7wCQ6wjORpi2pmDRvsWSgzVfs2aNCoiLhwsil8RYYg1ZLkeTaxpoykuBTGmfDAFnzUrtuse/oRiVzB+kWu8T93No5pCsKJNO2XegemTr1q3brwPEvCMVa468bwUhT0aPHq1qEIdP9p4cWZhzaO23KBp95vUTzp4On4ngWpvUm/B08ow3GNLL+0Q+rx8GrI0XZck4hQND0MRQVf3X4FbbET+Qw6aVpqR6G3lKfjo2f58nOVjz9PR0lUA+Mb5ioYh10wwJx39oe3D+QhvnJFEmZ54bNLuHBifr9/I+BndMDds3QkRGDBI2WzTFtDUVYZphWwDh1F6pdt3GM9y2P+TeLKjYDYlIzR+MHT/mW0HIkzTNMgGDK/oG1kEzCZ8fqZJNKeetnLeKby0GAcKmGXM0c9JCjdC8FMshlE5Nqu3NAtDeH8u10vwh2HZsh+RgzVNTU1UNVgHZnIy+C+4wkMQbAMJ1ByVto4eLmCUm7xokekvMLLelCkgEdSsp/dPh2P6zXkO0JiOA5Fs0hL2YsCkJ7Ud0hEsdFzAK1ibOmZSy04S098jre9o1EjNlq8lso8k8pHpelMWFWnd3dSjLQtok+4kJWshfwxDyl9tLYTN7YfrqmdYtBakiY8aMUQnEGETrVDlx40w3apk6DVwbD//0dqrnvVp6IyZzIKKXD9Dfvy7BhlNVx0ACCIV79tlnVQUrqd+pc74dEB0djcLCQslD/EJKWb7RzSimBPQfVtOjpuQmiyCQgaBMqR8ORqdR6t/T3OPXUGgwo2J5n8wJ2lomQ4G8FLGQpKw/ODjY8ouqkpISxMVdf5VM+fCtnmdkZFiBHDlyRDdSiJlyLQdmNMXYdYmor5mgLliwwAKEEhIKl+615nOrDbf33Nq1a61AWGdoqDoWuLdrE8uM9drmlbJXlee3E6kyBgme3EPVGdzG+Oijj6qBSCk/++wzjBs3DkFBQfDz80PLli3vSPL39weXB0tLS2VVIp85c6bKXBlfhE3vJVRfCUB7fqtAhI/aZEbjzurJHd+15bap9WeqKimvXXDyde7cObGnwX2NW00sg9pg6zh+/Dj440KlRjGIEqNMriLc1gSGBKKd/nPxh06Yz2oBymsuOAWOEyG6qs5Zs2YJ8WoEYqsBtfHZxIkTVcIRTmuzn9ASe/EQnWLYzN4qtW8W3sIyD7KxHkMgNJXw+RFinVjZAXzpuKCgwHGAUPO4Cq4UkuednuCWZ5qIR2QPW/Nsk9CGbs8HoWno/WKi1j+zhiXE7WmIXvawbobLevhDTHk4hIZQmJycHGinEQy02o/sJBaYuYhshSHN59ois5gEbkkWgOTkTd5Ln0HzomZ4+VSv8En43CKVr1xQDocBQmHs/aCaa6ViP6aGbQit34jflGTZHNtkFj7D1r5Shw4d9NsQUlUcJecIJ3tPmXNfxX9we0QujhZbDpytivTBtTUS5luZUsVGFjeqOLQ2trNRxT9bOHjwoK7ZDqUhlI7qO2nSJJtQCIgbZ/cFNxX+5aFX+6D3633FWknvuf3Qa3Y4gif1gM+AljbNQwIODAwU75PoaDiaySgFXLFiBRo2bGgXjGwc1z3Ehrdmoie/1+bDhg2zbjko65PnDqchUjDmDO2HDh0qXsXQNuxmrxlkrlq1Slm8zXOHBiIl3r17twDTuHHj62qMEhTfaenSpQsWLlwoAkxZXk35bwKIbACDp9WrV4OvS9QEh/9nwH/J+fzzz+WjN5z/H78eU+DQE05lAAAAAElFTkSuQmCC;" parent="1" vertex="1">
          <mxGeometry x="30" y="20" width="50.75" height="50" as="geometry" />
        </mxCell>
        <mxCell id="frwQdyB-kEVW_D3ccvK7-2" value="" style="shape=image;verticalLabelPosition=bottom;labelBackgroundColor=#ffffff;verticalAlign=top;aspect=fixed;imageAspect=0;image=data:image/png,iVBORw0KGgoAAAANSUhEUgAAAQAAAAEACAYAAABccqhmAAAgAElEQVR4Ae1dB3hUxdr+0kkhCYFAGqEkQEghQToWOoKAICBSRAERxEYTQZGiKMVy5SpWkOYVAUUEFRBBem8CIh0s19/eRa+N+Z932bM5u3vOzGyymz2bnfM8ec5mz545M+/M+86cmW++j0gdCgGFgEJAIaAQUAgoBBQCCgGFgEJAIaAQUAgoBBQCCgGFgEJAIaAQUAgoBBQCCgGFgEJAIaAQUAgoBBQC/kYgmoiuI6LniGgbEX1FRN8T0T9E9DkR7SCiZ+2/ifd3ZoPs+bFE1IqI7iGip4loNRHtIqL99j/U15tE9AIRjSKi9kRUKcgwUsUtIQKZdmL/QkRM8g+/RUPMKuEz1W1iBOoS0Xg70f+SrBd9/f1NRDuJaDIR1RE/Tv0i2BCIJKKZRPRHCRqX1tD+R0QPElFUsIHno/KGEVEvItpcijrR6kZ/vkhEW4ioLxGF+ijvKtkAQiCbiA56sZEdJqLqAVR+K2a1JxGd9GKd6AVA//kYEV1PRCFWBEHlyfcI5BHRFz5oaJgnaOD77Je7J9Szz7noSVoWnzEiwLPVEUQI1CKib3xAfq3BQgTUSECuQaEHvouILviwPrR6MTv/TkRj1WhArsIC/VcViOhAGTS2D9ScgLCpYM5kcRnUhRnxXb9fRUQJwlyrHwQ0AjPKsMFNDWikfJv5ZCLaU4Z14Up2s/8xJ4S8qaMcIlCbiDBjb1b5ju8LKsSzyamJbHkWse05xHbWJ7Yii9j4FGJ1Kojvtz8Dz8Iz1eGMQBIRYYTkwFv2c6VKlViHDh3Z+PET2OzZT7N58xawBfMXs6WvvsZeeH4emzH9UTZ8+AjWulUbVrFiRY/Tt+fjQyJKcc6y+q88IPCiqKFFhYSyZzOK2D9FPdg/RdeyD/Ni2YFccvrbl0vsvlRikSFSDfip8gCcF8sQZzfakSZnZGQk69WrN1uyZCk7c+Yc+/jjTx1/Z8+eZ/v3HWI7d+x1+9u+bTeb8/Rz7OqrOzOkIap7l+tY0anoxXKrpPyMAKzIfnapZKdGAfK/n30FY0XXOf6+b9DEifx6MXihBrEosQjgmaohXap8TPi9zqsD/bWIiAg2aNBgduDAQQfh9eTXPp8//wk7sP+wmwDoRWHVm++wnj17s/DwcKc61z/P4PPbRASbBHWUAwT6GFSwU2N4LqPIQXxNBC4W9mBH82JMRQAjAVG6RNS9HODnjSLcL4GVDc/CwkK2ceMmLvE1AcAZInDwAF8EIAiLFy1hOTn1ZepM+w0MvNRRDhDAUFyrVLcz3vkx7NeIrz9/XlDXVADwOpAdZZ6u/ZnPlAP8SluEQiL6k1cH2rVbbhnqNtTXk93sM0Rg317j1wH9aGDrlp2sd68+bm1Ae77LGebHTUtbeHW//xHgzjjPTm9gSH4IwU+FLU0FAK8E96YIBWC7/4vv1xyEy7z3h4aGsunTZ0j3+kZCcPbsx2zP7v3c1wFNDMaMuYeFhITICMFHRBThVwTVw0uNwGcuyu5U8cdy2psKwJ+FnbkC8FqWUADw7GA+RvKwxzUQsbTk1wTh5IkzUgIAIRg3boJTO+Dk845grsDyUPbfOJXLfm7QzVQALhZ15woAlgl5aRMRnh2sRxX7dmouRiNGjChVz6+RXzsfOnRUWgQG9B/IzZu9br8monKz/RuV0oGIoGpziGg9EWHZ46y9skqzM04DE2lgHz3SRNp4BrbO4pnYp125jBnBLdNvDa71pQD8VMZltdLj4FdBaxOG5xYtWjIs52nk9cb53LnzbNdOuVcBLBcWFhYZ5s0l7xjJBOQB89cuRPQvIjpkd24hU2Bf/gYONmB19QQRXUNEyKMvD67t/0e+fQX40pcFs3Da2BSF/fim7ahChQps8+atXiW/JiBHj3wkPQp4/bWVLLpCtGk+7WU4HWjbiBsR0b99vPFFBJrs9R/tduEYHfhiiyZ3EnBORqHpCOCnBvxJwHHiSUDsOAvG430e+XFt7Nh7fEJ+iMC5cx+zXTv3SYvA4MG3yLTVdlavSDi4GEpEp0TgW/g69oPfQkQoi7cOrhVgg+gE02XA/+bzlwGz1DKgUR3BoQeXUBkZGezkydM+EwCIwAcezAVseG+zjPkw3MFZ8sAQ+m4i4s52iyrFYtc/tW8V9cbrAbzAcBskTID16//4LDIEwt4AUbpBaAiE+jonwuXZZ58Xkv+jj06wu+8eyerUqcPq1q3LhgwZwnbv3iu8T3sNOHnitPQIAKsC/foNENUntnpbzptQWyI6LgI8gK+fIaLOpZRdmONy95xXCA1zMwX+rkFj0xUAmAJL7AeA30A4Gg2mQ2jx17x5CyGJMTowmpyLjo5mo0aNZidOnBKmASHw5DVgySvLRQKA67lWqcwMIloRwMSWAVv/m+VElF4K8OeJsIoODXNsBvq7sJuhGTCs/9DzS5AfebfskLEUOPJuRf1wHauGhYWxtWvXCck7evQYfd27fcYrxDPPPCdMR8ZEWDMOwrlmzZpuz3JpN3g99fvRjYi+c8mYKOPl4fq39hWNklQAvMJKmaPCNHhqWiKDkc+2HGK76pPtMyb8JN75NZzhaQYiHUyH0MFH//4DhKRFz41hv0z7btasOVuzZq1pmkePyq8GQACu7y00E37enxUKk0QsncHDqRRARr9LDo9iPRPS2OSUHLakRhO2v24bdja3I/u+oCv7o7C727uw67ux6P8/C7vb0jqfezXbU7c1W1yjIRtbrTJrVTGEJYSVPN/2sqDsj5bQPBP3lRg3D+992J8NxQ/Pbi5ql/Hx8ezgwUOmZNXe3XFOTU2VrieYEffs2ZPt3+++c/DEcc/mAaZMeUj03Pf8gK3tkYl2t8aiDBpevyw6kT2els8O12vLLuq2vIrI7M3rvxd2YCfzq9ocbdxRlVg9eecaRmXaVAIXTpigQjAJo/S8+R3cjnlzFcNfbU72uVi63S3CdfLkKVLkhwBceeWVHtcHnIA88MAkp81EZ86c9Wgi8KV5C0XPxSpVmR+pdos6UeacrseFhrPRydnsaE67Uvfq3hSCrwsasIO5obYJtteziPWuRCw6tESkhGGTp95bgKUvV0v+G4SegG4SkT8rK8uJmPre3ujzqlVvMRgKidI1ul67dhZbsGChTWxgD6B/xxd9fvutdaJnwsdDmR6IPCNcVtEDkRgWYRvef5vfxVLE14vIhcI2Th53NtUjNjS5REIAc2NPXW/BSs0XIgCrv5wybR3+fxi8/GB5jEuchQsXSff+miCsXPkmA5lFaZtdb926Ddvw3vseCcD7G7eKngdXb2V2pHlC/hAidnNSJvsq/xrLEl8vAn8XdmWn8pKdltrW1SXWPZEYymJWsQbfQwQ8HQnA+SOs9Dx5Du+3GPbD5XiwHdNFGLZp09Zj8msiADdgkyZNZpg/ED3H6Dq8AN1wQz+2ccNmKSGAvwCjdHTfwby5TA6882MjjShDtuu1ImPYluwrA4L4ehHAbrtz+RlOIoB99s/WIJYSIVd2O0Z4HfDUrTNcU8Pry6+yOBv8Drv9MOEXjKHBMPLCaodpGwUB339f3ruPRnzXMyYPsYKAZUTe88yu1apZi61Zs14oAuvWbhClj/L6/MBsv3TvhBn9Hwq6Bhz5i4WgB/skv6abCGzNIdY23rxxGVQ27M9L4rwBowes2XsiBD8QEbz9ILBosB5COxR4+HElc2n+hw0BDIkM6l74XY8ePYUCsHTp66J0YKHq8wNLfaKM2IbJs9LyA5j4xQ44WVEPdi4/3U0E9ucSG5FMLFQCDztms0pRO3ifvYGIsNaLWW2EB8dWYlgRouIRaXY2EfUOQgs/V1hhgcpto0lJldmRIx96VQA08YApMYyBRHnQX09PzxAKwKxZj4vSxKueTw8Y+QjX+SNCQtmizEYlJv8XeZ3ZKzUas7uTs1jHilVZdlQsqxQWwZCuHrSSfA4PCbGlhTSvrliNjUrOZstqNmV4ZnGvryf/pc94HTidV9VNBPBKMC2dWJjYCy/yDuyw/VkdvkMA3nKPiNrG9OkzfUJ+TQRgLnzPPeNYTEyMVJtNS0sXCsDQocNEab3qO1gvWY4JLfxA0lW1mnPJZEQ0rAr8O70BaxxTSVRIn1wPpRDWMjbJlocfTV5ZMDFo5I8fIjArg1iEnAjAYhATqOrwDQJw7MJtI7m5eV539KER3/W8Z88+1r9/fwaDIF6+ZF4BiooactMgovG+gfRSqsJ3KsyOe9rzf5bXiY1MzmIxoSWbQOGBWtJrsFHAyOBrgxWLCw3aOOwEQHz9H0YCkisEy3xZUUGcdiUZHxPLli33ae/vKgL4H8uGRhuI0EYTEhIYHH/w7AAwASgRO6Cjr+oeO95E6sM8eeeHSe6M1DwWayHiu5YRQvBoWj77q9DZLTeMhfTE138eUVWMk/05cH2mDu8iwHWxDty7dOlS5uTXBAHuwZ944klWo0YNB5cQCwAhxHjkx7XRo8Y67nFtp/b/seIT4104L6UGE1Vse+VmALP9RkN7o++O57RnBRXiuOmJnleW1xvFJLJT9Ts4le9kfhVTEWgvtzoAs81gXJ7zRRtFmtgKC1/5pu0qKiqKbd++s8QC4Br+SyO2p2cIwdtvr2HLl61gO7bvEZIfvgGxVMgrGxGt8RWwcObBfTjW+WWW+v4o6sRezExjMSUzreXmQZTH0l5PCItwmtv4rbCd6asALAcl7QRu91WlBWG674rq+K677vaI/Fu2bGMjR45i2NWXlJTkaH+xsXEMDkPhEKQkfgMhAHt2HxASXxsVPPTgw45nc8o4xBd1jk0jXLNUvPOKjHz+KrzGtpZ+f2qIJ0tmMoUu09+EhYSwudUbOkYCn+Vnm44CXqwpNR/wcQltA3xR14GcJlanuG0hJSWFwYuPTG+9bdsO1q5dO6ngHJjc69SpM9u0aYtU2nj+Rx+dlCb/ls07WPXq1bllIyJ4d0aMSa8f8OHHfTjMe42G+dp38FxzODfSFrVWlFYgXIfgvWgXgb8Ku7BDueGmItA1gY+dvbyDvV5rwZUgOimhn8knn5wtRdAZM2YyePbxtC3Gxsayxx57XPgM9P579xyUFoA777hbJi8+CfGGbZR4TzXNADb2mNn2Y938k4JLFnSPZnhkLKM9D6q2xO5ItAkRwT6+JJZ0rnRAGkgLad5KRFg75UbndcUAI4E37Uud/y2oYyoA6+sSixO/7sBlmi+8DbuWu7z+f69r/bj+37DhZbYgnaLef/z4+7S2V+Iz0uA959ixE9Lkf+ftd1lcnHCuDMZgPtnncYUrkK7/w2mH1tPrz4hffzq/mo0Yb2STp+/8EB28z/hkRtOEBXgW3CkJexINg/iwcHayfgeG8FyH8sJMReDWZHMB1dIiohYm+VJf8xGoSkRw225KWIT2WrVqNZeUICxm53npyF7D8x5//AnD56H3371LLigI3v+7db1WJk8IauOTg+uuGktkRlt6bRZzdvLvrk+srrxjDSxjjCUiBGz014HRwTjRJhKtMTSMTrQtEZ7Pr24qAO/XkxJARKlRh+cICH0p9urV25CM+l5669btMj2tDBltv8Ek4a5de9yee/jwMeneH0uDIuMh+8jV052mUihj6Q8bSkwLDWce+l5f+6wN+7E2fpf8mjh63nypnJXNj+BC6v945deuzUzLY6IAHf2TzHG0pwMLS7Uk6FndNhRFksJ7OSzx9GQ3+tyqVWvTdq7Vs6dnV3uDM2cQEmyvtABIWP0hz3j98cnRVVRgI08+elfVa+tKO9BAGC68k1vtgNNM4ZZnGDJ9md+ZHcmLNh0FLBdH6UVldrIaABbOD+ZMtora6PjxE4Tknz9f6GarWBxgzisw6dXyhK3B+jgBnngAllz2g22OzzoN7o4/+PDTenztjBnxw3mRDhL0E/d6ABY9vxXJr7V9iMAXWqWanbFp6dP82o6y6y0Dtc/1xa9CcAqqDjkE+pvVhfZ9ZmamMLrP6dNnWa1atYsJbjLirVhYxBqv3cDiP/+W0adfM1r2JqPcPOF92oSgJ2HBN72/jaWkSDkdvVYOqpL9Cg4sTAsIB54a8bWzfs883nsriGe/8c5vpWG/GVJ4HYCrJVM8MAr4OM88UAdEYFQ18/vtae83y4D63gkBBDOB/YRpfeDaCy+8KOz94aRTlE5cfgFr9+0vrOP/GMv96Q9GX/x46e/M54zq5XDvb9u2rW31Yd9e+WW/W265lZumPb8bnRDx8j8Ij40IuaYZgfdejfg4/1nUyckqTiIoJdLGhF+gHJN5eODav9Lz2MG8ENNRwNLa5nja04Y7J2xmUQcfAXhJMm2buNayZUsh+Q8cOCiOtxcSwppu2WkjPwSg5YV/igUAQrDwVW4+YMBz7MPj0u/9b658WyYSMNpJAR+i0l3FJhXTgsFvv6vrbtcglbnR5vfb08ZSnz9n+z1FCM44uK8CzWOT2PH8RFMBgPOQyuFCXODIQh3mCFQXhVHDu/e6de8KBaBfv/6mbVxr/6n9bnSQHwLQ7veLzgJw6jNuGvAcvHuXfBTgDh06ctOz5wsbnnx63KkBYHTulei66acHO5JbPAH2bl0pE1if2C37FBWiEUZ4aN/Bn8CeHHf/gdocAM5tKgoFAM9QhzkC2EbNJcnAgTcJyf/OO2uF/vvCYmNZq3P/dRKAtq4CcPw8Ny+IBaDZ84vOL77wkozp8fdEhBG6Tw8YFpgWbIqL8c+vDVo59XqPpJvfa08XFn5laeTjLbBga821GHy2Ol8AhomNgp70VmbLYTotRd6osK/+4MEPhALQtGkz0/attf3sKdOcyI8RQPNf/3YeATwzl5sOJvNExMd17ParXz+Xm5Y9X3B24vNjvQaC0RmuuvTv/18U5DoJQF/x7D/MewP1WGqEifbd8CopTljoe398htcg7bcm57WBCoyP842w1/tMMHNgOmXKg0Lyz5nzjOP3ZulVyKjO2n1/wU0A6v74v2IB+OxbRjn1uWm1bdtOSgDuv+8Bbjr2fB7zkim8sKq4/tT21W3tJABn89OcGn3zOGEjxwajQD2GmTUaL32P1Rd1uCOAPRtckmRnZwuj+yBsd3p6OjcdPKdwyWtu5O/wP8aiv/q5WACmzRSmAyceohHAhvc2s8qVqwjTIqKr3WHxzTfneWAjqKZ+BHAsL95JANIj+RVl34Tjm5z7PtVmPGy8cA1BRNThjEBF0QQscF+0aLGw9xeF9UY6iS2vYB1/v+gmAPX1S4B4969U7B/AqN4jIyMZQnmJBODGAQNlyL/SGRLf/genlaaZcrX/x1Zf/VA3Xhxht4pvs+/T1LH5xBQbL1z7xqe5D8zEHxfh2r59eyH5YZsv8tAbEhbGWuw55Eb+Nr9dZBFf/lTc+w8aKmwD3btfJyT/a8vfYBERkaK0sNsP4ePL7MADTTPlGqJbC6SpiYCEZ9xAjkwL00tTbLxwrUxju5VZiyr5g7JFRlgRERFs06bNQgHo3r2HsN6q33qbG/kx+Zf5/W/F5N+ym1F4ODctuB57Y8UqoQBcecVV3HTs7WlmyeEr2Z3cTOmH//isEV87S5CgZLmyzl3clQCJ8vPwxdZWdRQj8LYIz+HDbxOS/403VgqX2MLj41nrT790E4DLL/zDQjTrP5xbteXVn+3aLUNuFZL/6aeeFaZDRAjo6mlIuWL0SviJmzElAIT3MS5Gpbiu3IUXN9r2IhwrV67Mjh49xhUAhOA2c8etT7/eo/9yIz96/yrf/lrc+7/0srDeq1atyjZu2MIVACz7ZWVlC9MiIr94i+JmTAkA1SMiGGRwcSrBdcy9YPOROi5ZiX4ownDWrEe55MfWX7jpEqUTWy+HdfjlTzcBaPjLn8XkxyYgiXDg2MknmvgbPfoeYZ6ICLtksfxZ5gc3c0oAbPUBk9TldmeMXLxEjc+eBnp+Rf7ipj5ahFteXh5D7260v1/77tixjxh6ZFFal61a40b+9r8zFvO1btlvgnjjUH5+gdDN97vrNtoCgQjyhBByVxbDUbafuIApASjbygjCpyURkTAE3fLlr3HJDxEYMWIEty2DhMmdu7iRH0N/J6OfI6cYVazITQvee16at1DY+/fqdT03HbswvOLPeudmUAmAP6smKJ6N6MfcNtit27VC8sPNF9bieWmFRESwy4+ccBOA1r9fZOH6Zb8+/bjp4Bnw3yca+r/yyjKZ8F7YJl/DnzXNLawSAH9WTbl/dp4oug922O3YsUsoAB07Xs1txyBtjZFj3MiP3j/9O92y37ubhV6AYF/w1uo1QgFAgBGeINmvYeu5Xw9uJpUA+LVuyvvDN4kIMmrUaCH5lyxZym3DeEZklWTW9ssf3ASgxa9/Fy/7/d8PjJqKSXvHHXcJyT9zxmPCPNmD8Ph9oxw3o0oAyjsH/Va+3iLyp6amCqP7nD17nuXk8D314Dm5z7zgRn70/pW+0S37Pf08lwtIJz09g23ZvJ0rAJLRffCsG/yGvu7B3EIrAdAhpT56CwF4oT4nEoCnnnpa2Ps/+OBD3PaLZ1RsUMg6XPjbTQAa/Kxb9jv3BaP0DGFas2Y9ziU/5gVuH3GnMB0i2mGVADHczCoB8FabV+noEHhARP7LLmskjO5z+PBRpyCeZmk2Xr/Jjfztf7/ovNtv1DguD5B248ZNhOTHhiCJ6D5wwddYh4dfP3ILrgTAr3VTHh+eTkS/mJEV32OJbdWqt4S9/6BBg7ltF2lV63W9G/kx9M/68fdio58DxxgJ4gPC9djLi5cIBaBLl27CPBHRXCtVLDfDSgCsVFXlIi8v88iPa3363CAk/4YN7wuX2EIrVGBXnjzvJgBX/fYPC9Mv+3XtzuUA8nT99TcIye9BdJ9UK9Ukt/BKAKxUVQGfF7hch9WbaZtDmK29e/cLBeCqq1qZpqGlX/v+SW7kR++f8t2F4t5/9TpGISHctODrb+2a97gCsGP7Hqk9CER0j9VqkVt4JQBWq66AzQ+i++zRyGl2njCBH20XFn9z587jtlmkHZWWztp996ubADS9oPPz9/n3jBoUCdMaO2Ycl/yY+Js6ZZowHSLyaXSfkrYMbsaVAJQUVnWfCwKDzEivfV+jRg126tQZbu8vG92nYMHLbuSHm6+Eb34p7v0fFUcIrlWzFtu2dRdXADyI7oMQfJY7lABYrkrKXYYQZ+Fzjehm57lzX+KSH70/Rghm92vfJzRtbujmK+9nXaQf+PivWk2Y1uwnn+aSH73/kMFij0FEtMGqtcoFQY0ArFptAZWvGRo5zc7ejO7TbNset94fPv6j9BN/w27ntnvkE/MMInv/lSvfYjBXNiuX/fu/rBwWj5t5JQABRTQrZrY2Ef3OI8il6D7rhb0/Vgd46eBa2sBBbuTHxF/NH3TLfjsPMhL45oPrsWVLVwgFoF3b9sI8EdFsK1aMliduAZQAaDCpcwkREHpUwnq+tqff7IzoPrAP4AlAWFwca3X+czcBuOK3f1jol/Ygn3Dz1U4ckmvgwJuF5H/h+XlC12P2rc4+j+5Twrqx3cYFVQlAaaAN+nsR+5DbvhDd59Chw0IBkInuU+eh6W7kR++f/K1u2W/pSm5+kN+kpCT23vpNXAGAm68cQaAQe9ktH/6NC4gSgKAncUkBCCOiwyIBeOihaULyP/PMc9w2imdE16rN2v/4u5sANP71r+JZ/0+/YZRdV5jWxPsnccmPeYEJ4+8XpkNEiO5j+aC43IIoAShp+w/6+xDXjtu26tSpI4zug1cCuAMTpVW07A038mPZL+5r3bLf1EeE6dSrl2OL3ceb/LsU3aeyMC0i6hgIrYBbECUAgVCFlstjJSJC0BNu21q8+GVh7y+z1z+pdVs38mPon6OP7vPhGUbxCdz8hISEMLzX88iPa/36DeCmYy/3CsvVikmGuIVRAmCCmvqahwBi2nPbFTz4mE346b8fMuQWbjq26D77DrsJgFt0n4HijUNXd+wkJL9Vo/vwKkN0jQuwEgARfOq6CwL1iehPngBciu6zRUoAiooacttnxtDhbuRH719dH91nw3ZGYWHcdLCW/+bKt4UCcPnlV3DTsZd7ugsmlv6XWyAlAJauOytmbh2P/LgG7736Xp73OTExkds+Wx465iYALV2j+7QUk3bo0GFC8v979hxuXuzlRnSfeCtWjFmeuIVSAmAGm/reAIHuIvJXqVJFGN1HLwjRvH36ISGsw2//uAlAZX10n3mLue0b+U1JSWWw5+e9+2M/QG2JQCFEdLMBLpb+iguQEgBb3SEwyOtE5I04gUgDxjGIOFSeDgSBPSkSAETu0RNc9Dk2NpbbPq8686mTABTp3Xx9/CWjzBrc+5HfadOmc8kPYRg1cowwHSLa76/oPqVpSNyCKQEgkF8YuELU8A2uI9wY0i4vx3iDMjq1rfz8fGF0H1dBwD28dGuOvdchALboPl/povuME28cQhxB7OXn9f7r1m6Qje5zRSBWJhdgJQC2np+LEa+BCq4h3Fh5OKoRESIdm+KEJbbly1/3qPeHGPTuzY+sExoVxRq+8ZZNBOr8+L9io5+5ixhFRJjmB3mFafHCBS9zyQ9h6HldL2469nLD01FAHtzCKQHwyrDfDOOfArLFuGd6Po/8uNa9ew+PyQ8BmDdvvhl2xd+HhLCkzl1Y6OSHGN17P6NmLYqvcUTp2m7dheR/5T9LGTYrCcp3gYgy3WEJjG/+4BXuj8LuTC8CB3ND2YFccvxFhJirvj1dvBsG6hHFw8YL1/4XqMDo8t2QiODl1pQkstF9XIf/+P/MmXMsOTnZNG3ec3nX4Ln3nbffFQpA0ybNZJ4NL8cBeyBMtWkhv83v4iQAh3MjHeSHEMSHmd9rT7dKwCJDVJWHjReuwVoukA+4+doqwmH06DEl6v01QZg+faZp+xQ92+z6yLtHC8k/ffosmed+SkR+j+5TmkZ03gwkfH8+92onATiWF+8kABmRQgFoWprM+fleOLGUaQQl/c1ZP5evtI/vL8InNTWNHQaPn0EAAByrSURBVD9+slQCgLDgjRo1KinGbvc1adJUaO/vQXSf60sLor/vP8KrxH11WzsJwNn8NCcBaBEnJMit/i5gKZ4/nIeNF64dKkXe/H1rNBF9LMJgzpxnS0V+bRQAT8GZmZluZBY93/V6tarVpAJ7Dh8uDjVORNutEt2nNI1hvStI+v9fqdHYSQC+KMh1EoC+SUIBeLU0mfPzvZilN210w6ukOGGhnxvB51kZ5vfa013r5/KV5vEP8rDBNfTa589/4hUBgBBs2bKN1axZ07Q+RPmpUaMmgwsv3pIfriG6j8j+wD7v0ag0AFrl3qd5wE1OyXESgF8btHJq9I+kCxs5osDEWqWwHuQDeeZGsHmueoYTFq4CMDRZiM2THuTHSj+F/QJmvk3JiCW21avf9hr5tZHAsWMfsV69pJblHHnDEmTXrt0Y1vNF5Mf1azp3cdzLKeMLVqqQ0uTlTk4hWc+ENCcBYEU92NHcaEfDX1+XWAinIdjTvqU0GfTTvXh1MW0IoRTC9uakO3BwJT/+b1PR/H572pb3FmOC/RIeNrh2ww19vU5+TQRwfvPNVaxLly7cJbrIyEjWtWtXtmiheK1fE4Z5cxcIXY/ZbR4wQVwujva8ykwOj2IXi65zEoHPC+o6Nfy8aGFDP0VEEQGEFpYuMUFnKgDNY5PY8bxEJxz0IrA/l1hSuPn99rTbBBAmWlYLRct+iO6zb98BnwqAJgZHjx5j8CswZsxY2yYjbDS677772cKFixiChyKOwK6d+6R6flt0H4lAIUQ0RgOjPJzhsJC7jvtBvbZOAvBnUSemtwcYlyJs6CDSuAACawKP/Lj2ZHoeO5gXYioAr9YWYvI3EcFxRqAd74mwmTjxgTIhvyYCvPP+/R9IkR8jgMmTppoKvq7Mp4kI9iHl6jioK6AbCI+l5TsJAAyDPimo5Wj879cjFh0qbPBwDY1lNasfLYkIBjpuOGjfxYaGsY/zGjvKr+/5tc8jq5nfb09nn9WBMMgfbN1NccG1mjVr2XpdHinL6trx46ekyb9xwxZZg6MuBrgE/FdP8Cq2YXSimwD8VdSFHc4rNgrqL14NQMP5PyLKsDBamNz6gocFro1Kzmaf5tfmCkBOBT5RiGiWhXEwy9pqETYvvjjXEr0/Vh/27D4gLQCDBg3hCpu93IG8amNWp7bvoWpcAI7ktHMTge8LmjhIsLau1CgAz4CnWCuKAMjPtYkARnGh4ezLvM7sSF4FR9m1Xl87LxUP/4HD1dwasd7FXFFk34KCAq8u+5VmpHD06EfS5F/x+ioWFRXFbf92L0fwdlQujwpE9ANPBNDr6fcEaJ8/yS9+FbhbPOzVQEYva6XXgRYyPT/wmZWWz35q0NKU/BABCdsIbC8OtD0Sc3jtA9deemmBJXr/s2fPS0/84d2/TZt2Wrvknf9VLpmvKxTWNU0BQM/nui8AInCxsAc7m59qI8Se+sTqiYe+2jPwnj3ZzzYCIOF9ond+DZdGMYnsr8Ie7Hx+dVMB2Cg3H/KsDvdA+AirP/gv0OrO7Wyl3v/QoaPSvf9zz70oG90nKRAqqjR5vJxXwbj2QLV6hqOAf4quZWfyL1nFvZFNLEY8IahvQBgNYD28LI2F8KxhoqU+PR4JYRHsdP2O7M/CzuxQXpipAAytYk4SXXpWGv3ItJmBurzr687xecGChZbo/RFeXFvTF50R3adOHXGgECK6TQakQP8NdnZxXTqBBF/mX2MoAheLujtWBh6vTiyU01uYNCZY3S0lItjfN6NLO/G8MUxGGjDaQJqoyGUiCz/X/IWHhLC3arewlfuz/GxT8sMoKlYsfscD0H78HVdM9P9nZWVZ5t1/395D0gJw77gJDgHTl8fl84eBEN3HW+IDiz0uKAOTMg0FQJsT+L5BE9vqwMRUfjqi51jlOqwc52deZivzX4Vd2KHccFMBuCZBqsyDvFVZZZROIhFxfUZMnjzVEr3/8Y9OSpMfsf8qV5aK7tOhjHC2xGPQW2J/s6kIgBCbs6/kigCI8mlBbfZAakhJRgKmz+blyxfX0PMvyGzkKOtnBVmm5H+hhpRJNLZeB5JFJBold8tveHi4VHDP0szoy9x77hyW/fZLC0C/vv1l2hkcwQbdwd0bAKLVjIxh3xd0dRBD6/1dz38WdmIv1UiTGRbLVEaZ/iYxLMIx7Ee5fits52T9qC354bypHrFqEeaiqROnQHyXXKTLv1sdtGrV2hK9/5HDx6TJv3zZCobgJLxy2SeGs4OO/USEJUHY7nMB6pGQ6rZHwFUAtP9P1W/PCqPjuOmJnleW15vFVGJnczs6CdzJ/CqGvT9s/iU2/aDsePf3xpxGWbZJzAt9zsN+5sxZfheAM2c8W/Zr0eJymbb4SFkCbbVnwUhFCNKM1DwnkmiENzr/WdidPZqWbzOkkUnbH7+JDwtn/0ovYH8X9nAq11cFDQzJj95/mHjLr4ZjO6tVskR+ELtAy7/hedu2HX4XgIMHjkj3/k88MduwHC7lhOjFSeBTrn/CdYYBwDAfsFD3jmxEfNfv/i+vMxudnM1gT+8Cut/+B/HHVa1jaOdwobC16dD/wTSp936UK1CdotzEq6OUlBS/k//kSfllP0T3qVWrtkw7w7Jn0B/pRMR1GIrGgYmyN2s1d+oxXUlv9D+Mip7OKGQYbkv4E5CpNI9+g/38V8ZWZs9kFLKfG3QzzP/fRV3Z0bwYw95/RgbKzu8d7eT5mohSA7Q1cZ3FlNTVt8yknsxvYO+/b+9B6d7/rrtGybSRXQG4TOuz5oU9Ahd5vYAmAvrZciPC8777Kv8atrRmE9smm07x1Vi9qDiWFBbJIkNCZSqM+5uIkFBWKSyC5VSoyK6JT2Fjq9ZhK2o1Y3gmL0+wazidX9WQ/A+mS9s5YJt1J5/Vju8T3sar+4cffsSvI4BjH56QJv+ad95lcXEVuW3F3tYDzUjL563gUV4j0K6hF5+emic9Mcgjn/+v9WDn8t29/WDCb3iy9LAfjS2gwkQbtKSvtPo1Oq9bt95vAgBPwbs9WPbr0aOniPy4vtgAg6D/CuvWm4wagNF33RNSpZYI/U9yZy9HWn6wt+GTgppuPf+WHGKtxS6+9I1sQ4BbkCUY1a/2HfzsnThxym8CcPjwh9K9/+JFr8i4+YIlalrQs90EADQGuLDWN3DTzzUiY9gmgbGQRjgrnTHsN+r552RKr/NrmBwItBjxBvV+Ga++EeZb5j3dF785c/qcNPmxH+CyhlIxBSYaYKC+0iGQ4snmGbwSDKhUnX2R15n7rm0VAcCE36k857V++DjomujRkB8CcIaIECwz0I/OPAFAVF1fkFsmzQP7D0sLwMPTZmiizDufs9u/BHqd+Tz/tT0RATQgLLFNrFaPfeMSYswqxEc+LjRowz7Mi3UM+7Gld0gVYhXEG3tcGxXIX8vntVA2D8CeBdfyOf6HR14Zsnr7NydOnJYm/+ZN21lqaqojz5zy9CobSMvHUzASkH4d0EDHuv/I5Cxm5FnIn2IAIx/NwenyLGI9KxGLklvec21YGPaXh55fa6X3aHVndB469Fa/CMCePfLLfsOGSUX3wfyWOjxEAHMC7xs1DJnvCqMTbJ51DtZrw/4pcra6Kysx+K2wLTueV5nBe+9tycSyosx7O4kyYcIv3kMMrf7zabxyjxt3b5kLwNGjx6V7/5VvrGbR0TGuIu36Pzwzw825OkqAQLjdsaXQToDXkCqHRzLsK8Brwn9qNGZ767a22eHDUMg1NHlJxAFpfFfQxZbmzjqt2ILMIjayaiV2ZRyxiuLIxq4NxvV/lB1LfcCivB1cF2BlbQOAZT9P/Ps3a9bcta6M/g80z0yWbGMILPIlj+Tl9BpCe19jyRrxTqb+w6u3f//7qTIdAXji5mvChIlGZHf9Dj4wAzl0vXdq2UupYP0UnnZcQS6v/8O2P1DNe2Wr/C1efc6fX3YuwE6dPCs99F+96h1WsaLQ4g/tcpQsEOp38gi0JqJjvIYT4NewTTrQ3HnL157zL7fy6mr58tfLbAQga++P0F6SW33RRgPNMYtz7Vj4P4RNul0mdjyvgVnsGjz5wJlHoO3nL00zOcqrg7IyAz56RN7Rx6CbB8uMODFvE4gxGUtTl365Fwo7mIhO8BqSxa/BiQfWw4Oxt/iEVzc7duzy+Qjg1Cn5wJ5Tpjwk494bAjHPL2wI8oc2IqJ/ExG2xsqotD9/g8khbArB5CY84gTr8TOvrhCV19tGPvr0MOsvG9pr/kuLZCL7oE19RkTl3r+/lRssXg+wPRY7DPcTEdZh/Ul2PBt5QKBOxOrD+30wDfPN2koYbxs4NgKBoHrCevMz9vnLmvsuW7qCJSUlybQhbM1WQ3+zGvfT9wiP3db+fj2biNYRESIVn7U7I+G6o5YUD6QBxyZIE2kjwCOehXd6PDsQQ3T7urqAiSmp4uLifEZ+CMkRyZ1+/3n5VVnX3ijLDF+DptJXCJQXBLDnw1QA0tLSfSYAH34oZ+03f/5ilpiQaJpHl/zDUhOjGnUoBBQCEggUuRDIiWg5OTk+EYCPJAN7zJnzHIuJEZr5annGCk5liTKrnygEFAJ2BGDPoRHI7dykSROvC8Dx46ekTH0n3j+JRUZGuuXJJL+IwlxuQ3qr1qoQ8BUCPUwIZSNe27ZtvSoAx46dEJIfW3t7XtdLlvj43e9EdIWvAFLpKgTKMwI38wTAm96AZXb4vbx4CcvKyvaE/Ag9X573aZTntqfKZgEERvIE4MYbB5Z6BIClvg8O8QN6wI//7SPu9GTID5FQ5LdAA1JZCGwEpvAEYMSI20slAGfPnhf688cSX/36uZ70+vgtjJeCKppvYDczlXurIvAkTwDGj7+vxAKAyb7du8yj+Gq9fkSE9ESfJhLYkg6LU3UoBBQCpUTgJZ4ATJv2sMcCAMvBQwf5Q364765bt55GaE/OcFFXXnwxlrLq1O0KgdIj8AZPAJ566mmPBACOPHl2/Vu37LS960uE7DYSBfhmiC19kVUKCgGFgIbARp4AyDoDQa9/+IOjXGcesOjLzvZohl8TgV+JaJiWYXVWCCgEvIcANmppRHM7v/baCuEIQPSuv2XzdnbzTYNZWFiJokTvJaK63iuuSkkhoBDQI/AxTwB4zkBk3vXnzV3AatWs5SYsvGfar2GJ775y6oRVj7/6rBDwGwLdRUTctWu34QhA1OvDmu/GG2+SidNnJA67iSjXb6ioBysEggAB+EI4zROA8PBwdvLkaScBOHv2Y3bwAH+G/4Xn57HMzBpGxBZ9B5PecWo3XxC0PlVEvyMAonEJ2aaN8z4AUa///satrO8N/Uva6+8gonp+R0VlQCEQBAhUJaIfeQIQGhrKVq9+29b7o9c/cOAD7gx/KXr934hovOr1g6DVqSJaBgGu8Q+EoV+//jbyHzt2ku3aaW7Nh16/FO/6qte3TJNQGQkWBGBCC595psN/BNvYs3sfO7Cf3+s/99yLLC01zTQdzjOwrn8XEYUGC+iqnAoBKyAAz8fbOMS0kfmee+5lu3ft4w75n39uLsMkoSgtg+sINAs3ZOpQCCgEyhiBfgaEdCJx9erVGQx3du7Ya/qHTTy1a2c53SdKl4gu2N/1Va9fxpWuHqcQAALRMhGcHn/sSVPia6IwauQYT8m/hYiyVTUoBBQC/kNgqqiXbtKkqZD869ZuYAkJCbIC8JPdhj+Yg674r8bVkxUCdgQyiAgTb6bEhZ0+HHNovbzZ2QNffYj7kKlqQCGgEPA/AthGa0p+XOvTp6+Q/PDXB/sAQVpY10ecSHUoBBQCFkCgJS/0F8gcHx/P1q55TygATZs0E5Ef1ydboMwqCwoBhYB9nR3babnEHTdugpD806fP4qZhf8anRBSjkFcIKASsgcBQEflr1arNsKxn9s6P77ds3sGwPChKi4j6WKPYKhcKAYVARSL6PxFpZ89+mkt+CMDw4SNkyA+zXjXbr9qdQsAiCDwmIn/r1m2F5H/7rXUsNjZWJAAwLW5skXKrbCgEgh6BLHvQDFPiwhX38mUrhALQufM1pmnoBObFoEdcAaAQsBACq3XkNCTwoJsHC8kPJ54Sy34I0JFiobKrrCgEghqBdiLyJyUlsffWb+IKwI7te1hhgyJD8XBJf2xQo60KrxCwEALhRHTUhaBuJJ70wFQu+THxN3nSVLf7DNI9Q0RRFiq/yopCIKgRuNuApE5EzqmXw7Zv280VADj5qFYtxek+k3S7BjXaqvAKAQshkERE35oQ1UbmkJAQBicevDV/XMP8AC8d+7X3LFR2lRWFQNAj8IyItJjRF5F/5cq3WIUKFUQC8BcR5Qc94goAhYBFEIAPfZDSlLggNcgtEoA2bdqZpqFLHxGF1aEQUAhYBIF3deQ0JPCwYSOE5MfrAV4TBGl9R0SVLVJulQ2FQNAjcJ2AsDbHnYjUw+v9MTGICUJRWkR0W9AjrgBQCFgEAUT3OSUi7fRHZnLJD2HAjkBROkT0oYrVZ5GaV9lQCNiDZ3KJe9lljYTkh1EQjIMkBKCDQl0hoBCwBgLViAg+90yJCzPexYteEQoAwnnx0rFfe90axVa5UAgoBIDAQhFpr+vRU0j+V5csl/Hvj1DdyquvancKAYsgcJkouk9cXEW25p13hQLQonlLmd7/EYuUW2VDIRD0CEhF9xl592gh+REDQDSKIKIviSg+6FFXACgELILAjSLS1qhRk23dspMrALiemVlDRgBuski5VTYUAkGPABxufiISgCeemM0lP5b97rprlAz596sAnkHf5hQAFkJgmoj8LVteLiQ/5gYwRyBI6yIRXWGhsqusKASCGoHq9gCbpsRFtN6lr74mFIDu3a8zTUMnCouDGm1VeIWAxRBYriOnIYH79RsgJP+ihf+RcfOFSL4qrJfFGoDKTvAicLkouk+lSpXY+nc3CgWgYcPLDMXDRVwmBi/UquQKAWshEEpEmIzjEnfC+PuF5H942gxuGvZnYJJRRfexVhtQuQliBIaJyF+nTl2hmy/sBkxNTZURgF5BjLUqukLAUgjAAOcLkQA8M+d5Ye9/69DhMuTfZKnSq8woBIIcgSdE5G/Xtr2Q/KvefIdFV4gWCcDfRFQY5Hir4isELIMANt9gE44pcaOiotiK11cJBeDqjp1M09Cl/5xlSq4yohBQCNA7OnIaEnjI4KFC8s99cb6Mm68fiChZYa4QUAhYA4H2IvInJyezjRu2cAUA0X1yc/MMxcMl/VHWKLbKhUJAIYDoPnC9xSXu1CnTuOSHvf/EiZO5adifcZyIIhTsCgGFgDUQGC0if35+AUPvznPyuXHDZlalSrKMAHS2RrFVLhQCCgFE94HbbVPiws3XvLkLuOSHMAwceLNpGrr031aQKwQUAtZB4HkdOQ0J3KVLNyH5X39tJYuMjDS8X5f+n0RUzzpFVzlRCAQ3Anmi6D4xMTHsrdVrhAJw1VWtROTH9ceDG25VeoWAtRBYr+udDQl8+4g7heR/+qlnDe91SfsrIkq0VvFVbhQCwYtAbxeCupE4LS2dyUT3yc7OdrvXIO1bgxdqVXKFgLUQiCKi0wYkdSLyzBmPCXv/sWPGOd1jkuYhIgqzFgQqNwqB4EXgfhOiOsiMPfy8JT9ce3fdRpaYkOi4h5Nmq+CFWpVcIWAtBFJE0X1AZLj6ghuvNWvWmwrB9b37yJB/mbWKr3KjEAhuBOB3T4a4tt/Ex8ezUSPHsG1bdzkJwZJXpKL7/EZENYMbblV6hYB1EGgucvNlJg7w+693/d28eQsZEXnIOkVXOVEIBDcCiO6zy4zgst+3atWaSU78/ZeIYoMbclV6hYB1EEC0HZle21u/GWCdoqucKASCG4E4Ivq8DAVgJxFhxKEOhYBCwAIIPCwiP2b9Rb+RvP4PETW1QJlVFhQCCgEiqkVEv/PIi91+o0eNZ336DJAJ3yUSigUKdYWAQsA6CKzgkR/XrryiNZs1c7btb9pDs1j79p1sdgCi+wyu/0JEadYpusqJQiC4EWhjQFKnHhy7/aZMnu4QAE0I+ve7mVWvLhXKW5/ehOCGW5VeIWAdBGB7/4FIAHpe18eN/FOnTGc39LnR9tfqqnayrwVniQh7DNShEFAIWACB4SLyp6amsxnT/+UmALcMuc0hAL179WOxsXH6Xt7s83UWKLPKgkJAIWDfd/+NSACGD7vTjfwTJkxxkB+jgIKCIjPC67/fqFBXCCgErIPAkyLyNygociP/zBlPsptuGuoQgGu79ZSZDER0nwbWKbrKiUIguBHIISL43tP30E6fw8Mj2ITxk90EYOyY+xzkR+9fs0Ztp/tM0pwT3HCr0isErIXAGhOiOsjcrm1HN/JPf+RxNqD/IIcAtG8nFdrreyKqYq3iq9woBIIXga4i8ifEJzCs9WvLfdr5rjvHOsiP3r9y5SoOweCkeVfwQq1KrhCwFgKItHOCQ1YbofvecKMb+ac9OIv16zvQIQDNmraUIf9HKrqPtRqAyk1wIzBWRP7MzJoME31ar6+dhw+7y0H+Xj37suhoYVhvCESn4IZblV4hYB0EqhIRou2a9twhISHszjvGuJF/8qSHWd8binv/+vXzTdPQpb/KOkVXOVEIKARe1JHTkMCNGzV1Iz9GA4MHDXf0/l279GBhYWGG9+vS/4OI6irIFQIKAWsgUEREWIs3JW5kZBSbeP+DbgIw/t5JDvJj4i8jI9M0DV36j1qj2CoXCgGFABDYrCOnIYE7d+rqRn6YAA8ceItDANq07mB4r0vaiO6ToGBXCCgErIFAHxeCupE4Kakye+Thx9wEYPTI8Q7y97l+AEtMrOR2r0Hat1ij2CoXCgGFQDQRnTcgqRORBw4c4kb+R6Y9zvr3vdkhAI0ua+p0j0maB4koVMGuEFAIWAOBySZEdZA5K6uOG/mx9HfH7aMd5L+uRx8WFRXluIeT5lXWKLbKhUJAIZBORL9yyMrg5mvUyHvdBODBqTOdlv3q1smRIf+rCnKFgELAOgg8yyM/rjVvfrkb+dH73zr0dkfv37lTN5tQCNJCdJ9M6xRd5UQhENwIJIl6/+joGDZ50iNuAjBp4jQH+bHsl5qSJtP7Tw1uuFXpFQLWQgAbcLjExT5+zcxXO8PoZ9DNtzoE4Mor2nDTsD/jUyKKsVbxVW4UAsGNwHKeAFStWo1Nf+QJNwEYd89EB/mv792fVawYLyMAfYMbalV6hYD1EDjHE4ABAwa5kX/G9CfYgAGDHQJQVNhIhvzbVXQf61W+ypFC4DueAEydMsNNAEaOHOcgf/dre7OIiAiRACC6T2MFtUJAIWA9BBB8w5TAkx542EkApk17jPXre5NDAGrXzja9V5fufOsVW+VIIaAQAALwv29K4hsHDHYSgBG3jXSQv2OHaxi2BfPuJ6KfiShFQa0QUAhYEwHsxTclcbWqKQ6XX/oAH7179WWVKiWZ3qdL815rFlvlSiGgEAAC9+jIakjotLR0NuzWO9iQIbcxbPTBTj9sChLdR0SnVXQf1cgUAtZGIJWI/pIgs825R2io0MGHXhi6W7voKncKAYUAEFgqIwAe/uY9Ba1CQCEQGAhkEBF3NcBD8iOt7MAousqlQkAhAAQGE9FFD4muH+7rP9+sIFUIKAQCD4H7vCAAMwOv2CrHCgGFgIbAUCK6UAIhwDbf27RE1FkhoBAIXATqE9E6D0QA8QOzAre4KucKAYWAEQII0z2DiHYT0e86QYAv//1EhOF+PaMb1XcKAYVA+UMglojiyl+xVIkUAgoBhYBCQCGgEFAIKAQUAgoBhYBCQCGgEFAIKAQUAgoBhYBCQCGgEFAIKAR8i8D/A3RNaMKU/ZUAAAAAAElFTkSuQmCC;" vertex="1" parent="1">
          <mxGeometry x="810" y="364" width="60" height="60" as="geometry" />
        </mxCell>
        <mxCell id="frwQdyB-kEVW_D3ccvK7-8" value="" style="shape=image;verticalLabelPosition=bottom;labelBackgroundColor=#ffffff;verticalAlign=top;aspect=fixed;imageAspect=0;image=data:image/png,iVBORw0KGgoAAAANSUhEUgAAATUAAACQCAYAAABpufztAAAgAElEQVR4Xu1dBXSUR9d+FoIED04SCO7uUFyKFylStGhximvx4l4Ibi3Fi0txbXF3aYKEBEJCgAjE9z93+DZ/iO37znpy7zl7DjJy55nZZ0euaLRarRYsjAAjwAgkEgQ0TGqJZCZ5GIwAIyAQYFLjhcAIMAKJCgEpUgsPD0dISAj45Jqo1gIPhhGwKgQ0Gg1SpUoFOzs7VXqpIjVfX18EBASIDpjQVOHMhRkBRkASASI3IjYHBwekS5dObyt6Sc3f3x/0CQsLQ2RkZFSDTGp6seUCjAAjYAQEiNTEXZlGg5QpUyJDhgziE5/ES2pEYn5+fggKCoralRGRffr8GV4+3vB+54PnXh547vUKn4I/G0F1boIRYAQYgS8IFHbJj7yOuZE9cxbkzJodmdJnEKSm+xC5ZcmSBfb29rEgi5PUAgMDQUfNiIgIQWj0+Rz8Gev2bMOeU0cQ9OkTgkNDGH9GgBFgBEyKQMoUKWCf2h6VS5TFgA7dkM85TxSxJUuWTBxHs2XL9pUOsUhNR2j0GEBk9trHG1v/3od9Z47hY4C/SQfAjTMCjAAjEB8CqVOmQq2KVdGpSSuULVoiitzoMSFnzpxRDwpfkRodNb29vcXdGZHa1Xu3MH7pHPh9/MBIMwKMACNgNQj0a9cV3Vu2h33q1FF3bY6OjkiePPn/26nRYwAdOYnQ6Ni5bOsGbD68ByGhoVYzEFaEEWAEGAFCgI6e1cpUwNT+I5DVIbP4O92zOTs7fyE1OnL6+PgIMqPPgj9WYfOhPYweI8AIMAJWjUDZIiWwYOQkZMnkIIiN7tg0nz9/1np6eor7Mzpy/nlgFxZtXmvVA2HlGAFGgBHQIVCyYFGsnjQHaeztBbFpvL29tXT0pB3apTs3MHj2RPFnFkaAEWAEbAEBMvPo3boj+rbrIh4LNG5ublraoX3w/4huvwyFxxsvWxgH68gIMAKMwFcIrJ08D+WLl4LmyZMngtQW/7kWfx7azTAxAowAI2CTCJQrWgLLx8+E5tGjR9qAwAB0GjsInj7eNjkYVpoRYAQYgZQpUmLVxNnQ3L9/X/vPjSsYNn8qo8IIMAKMgE0jULVUeWhu376t7TlpBB4+/8+mB8PKMwKMACOQTJMMmuOnTmpbDuvFaDACjAAjkCgQ0Kzfskk7aM7ERDEYHgQjwAgwApo5rou1U1cvZiQYAUaAEUgUCGhG/DpRu2LnpkQxGB4EI8AIMAKa4dMmaFfu2sxIMAKMACOQKBDQDJ06Xrt695ZEMRgeBCPACDACmqFTxmtX72FS46XACDACiQMBzdAp47Sr92xNHKPhUTACjECSRyBRkloeR2ccW7dNanKv37+DziMHJFj3t19moFj+Qqrbp2AB/SaPQmhYmOq6XIERYASUIZAoSS1/7ry4e+C0MgRilLp48xoa9GiXYN0zm3ajUqlyqtt/8twN1To0Q3AIJ61RDR5XYAQUIsCkxqSmcKlwMUbANhBgUmNSs42VyloyAgoRYFJjUlO4VLgYI2AbCDCpManZxkplLRkBhQgwqTGpKVwqXIwRsA0EmNSY1GxjpbKWjIBCBJjUmNQULhUuxgjYBgJMakxqtrFSWUtGQCECTGpMagqXChdjBGwDASY1JjXbWKmsJSOgEAEmNSY1hUuFizECtoEAkxqTmm2sVNaSEVCIAJMak5rCpcLFGAHbQIBJTYLUNBqN9OxqtVrpulyREWAE9CPApCZBavph5RKMACNgKQSY1JjULLX2uF9GwCQIMKkxqZlkYXGjjIClEGBSY1Kz1NrjfhkBkyDApMakZpKFxY0yApZCwGZIzSFDRhTJVxBF8xcEvT4WzlcAaVLbIyw8DPefPhb4Xb13Gw/+e4y8TnlMmqPAUpOVUL/5nPPAMUcuFMqTD/Q465zTEVkdMosqHwMD8MzjBYI+fcLTl89w78kjgZulhebTPnVqFHLJj3Rp0gh1smfJCsfsOaNUe+j2BCGhoXjt8xYvvDzw2P0/RNrgC3LqVKnF2iUpnLcA0trbxwm/u8cLMV/h4eF4/Ow/hIWHm3WacmTJhkqlygpdc+dygnPOXMjqkCVKB+93Pnj91htPnrnhxsO7uP/0EfwDA82qo77OrJLU0tqnQYWSZVChRGlUKV0eJQsXQT5nF31jifr/O48foHSR4orLRy+oJPFKqwZNxJdPrXzw98euYwcRERGhtqoonyxZMuTO6YhiBQqhUN78qFCiDIrkK6B6rERoT5+748LNazh79SIu3LiKN75vpXSKrxLp6pQ9J1ycnEHZvVwcnVEgd1445sghfnTo77JC83vjwV1cuXMT1+/dxr2nj2SbMmq9bJmzoFiBwsjrlFuQQiGXfGLd5nPODSI1GaEkPa/eeMHz7Rt4vfWGl/druHm8gLcvkfwreHq/gX9ggEzTok6eXE6oWakqapSvghoVK4N+HDVQbrIUHhEuNhVnrlzApVvXxXr6GOAvrY8xKloNqdHuK33adPixVXtM6D9U/NkSooTUzJlNKnmy5GI307JBEwzv/hOKSqTm04djZGQkXDdvwOSlc8WuSK0k0yRDihR2Qs96VWqASL9RzbpIlyat2qakyrt5PEe/SaNx9e5Ns+5s7JInR7q06dC0Vn0M7NITZYuWkNLf0EpE8kQoWw7uwbV7t6DPFpJ+cGgXv2jcNDFXxpZfVyzGoo0rERISCi3Mb5dpFaSWKUNGzBs1Cd/WqBN1ZDI20ErbsxZSS50qFbq2bIe2jZqjdJESyJDO9CT/34tnGDV3Go79e0YRXLRTbFyzLqqUKS92J3TkTZUypaK6xi5Eu9+bD+5i/KJZ+PfGFWM3/1V7RNY/deiKZnUaoHiBImaZGyUDmrduOaYum58gqdGRcuawcWhauwFojZlKaAe55/hhTF++EIGfgkzVTZztWpTUaHF0bN4aM4ePF/dj1iCWJjW60+jy3fcY1r0vHDJmsggkPccNxfa/9+nt++L2Q6qPvnobNUKB6csXYf665aCjkTGFjsxtG7fA0G59kDmTgzGbNrgt3/d+KN2ijriPi0vox6Z9k5ZYOnEGUtilMLg/pQ3cfnQfQ2dOxNW7+neQStvUV85ipEa7swMr/kC54qXExb+1iKVJjcjs16FjLQoHXU7X7tIKtCATEmslNTp+bTu8F30njkREZKTBWNJxbWSvARjTe5BJdzeGKDps1iSs3r4pzibomLx5/nI0rdMAdFVgbgkNC8OQXydg076dZunaIqRWvngprJ+1WLx6WZtYmtRG9OyPaUNGWxyWB/89QYPubeP95ScFrZXUSLfwiAgs2LAC05YtMAjLamUrYMaw8eJFkMjNGiU4JBiV2zWB28vnsdTLkTUbfp+zFDUrVLGo6vSaO2XZfCz5fQ0itYb/0CQ0GLOTGr22nNu8D/RSZI3CpPZlVmi39m3P9uKFMT6xZlLT6fzD8H44cOqo6qVmZ2eHzs3bYNH46Ra7J1Sq9Mbd2zBw2rhYxemx7c95rmhQvZbSpkxajn5oBk0bhz/3/6X3McMQRcxKavTMfWTtNqslNLH7uHkNDXq0SxBTU75+WstOjQDYeeQAuo8dYtOkduP+HdTs3FL1d+S3X2aIl3giN2uWt+98ULxZLXwODv5KzVQpU2HrwhVoVKOuValPL+1tBvXA8QvnTKaX2UgtY/oM2LNsg3gps2ZhUvv/2aHLZ5e6FWya1Ej51gO749i/ZxUvu4XjpqJvh26Ky1uy4B97d6D/lDGxVOjWqj2ImFNYISnTK3vdbm3g9/GDSaAzC6kl02iwZsYi/NBU/S+mSUadQKNMal+DU/q7unHe1YhdrZW+fsac3oduT1GpbSO9Rx6yCZw4YBhG9R5o7mUn1R89gtTo2AJkpxZdihcsgqt/HZFq01yV9p86is4jBpjkfs0spFYgtwsu7fgbaeJxDTEXkEr6sXVSe+7pgYCgQNgltxMW7YYen5r06YRzVy/GCZ2tkFrQ508o3aKuXq+J5nUaYsuCFUiePLmSpWLxMut3bcXg6eNj6bFx9m9o17iFxfVLSAGyXavWoRnILczYYnJSI/szWvwFXfIZRXdaoPTL++zVC9A2Nvh/FvCpUqREQZe8cM7pJFxUMkvaeNkCqT179RJPnrsLP9cnz91w5/FDeLz2xLsP72NhTMTW94cf0a1VO5D7mVppNbA7jsdzdDOU1Mi9h8ZChpp0N/TM0yNKPbLXo0elEoXIRS6PWrW/Kk9uYfW7txMuVfEJ2aDRA5bOX9agDgHQ3dEr79d44ekBjzdeXzVXo0IVMTa1Qms/6FMQ6ConIiISdbq1Eb6X0YWMoK/tPgZ7SbcsXVt09UBGzPSDRu5ZJGRXWrl0OdSsWDXKj1XtGKKX33ZoL3pNGGZIE3HWNTmpkRsG2cgYQ8g6+YtRZcK+kwXy5MWd/aelurRWUvv0+RPW7NyMRRtXgRacPleYmINfOnEmen7fUTUmw2dPxqptf8RZzxBS6zNxJHYc3qt3LsmGkR5Ppg4epVr36BU6DOuLg6ePxdkGmWrQGv2uXiOD+tBV3n3sMMbMn47XPt5xzhP1JeOeNHftMkxzXSi6qViyLG48uBPLj/jSjsMoVbiYQeP46+hB8UAU3xojq9IuLdvBdfIs0JHdEKnctjHu//clIIWxxOSktm3hKrSo961B+h4+ewJjF8yI924nZuP5c+c1aZQOc71+fgjwBz3X/33uFK7fvx3rhUsNqNXLVcLxDTvUVBFlR8yejJUmILWanVqKL6USIWIjo+TpP8e+EFdSn8oMnzUZq7bHTc7kdH/1r6NSO1ld/6GhoVix7Xds2LUNT1+4J6iWNKmtWYaprvHb3VGQg0vbD0sbCJOrGVn/bz6wGyGhIQmOgeaETEU2zloCMqSXlTlriKgNsyWM2bdJSY0G++zkFaRMIe8PGN+9QUIg2jqpdW/dAVsO7sZvf6wFHTmMIbKXx9ZAarrx07GqmKRDP31x6AsUU8jaft+KP1CncnVpmOl4+dMvI3Du2iVFbciS2rLN6zFm3vR4++jQtCXWzVgk7aFDx8E+E0eIo7NSGdCpO+aNnqy0eKxy/1y/jEa9fpCuH1dFk5La6N4DMXnQSGmFL92+jia9OyE0TF3kCFsmNV1kC2M7AScGUjPEhYycvacsnRdrLZJ3y/kt+6XX6MvXnqjavqmqcDuypHbg9DH8MKxvvLruXb4RDavXlhoL3ccWaVxd9WmA/EgfHD4Px+w5pPr99PkzslWTCxMWX4cmIzWyjzn7516UkQzH8sH/I2p1aaX4yBl9gLZMalIrQ0GlxEBq9avWBH1xZdyV6J7oxzGDYyE1vEc/g461rQf2UBzVRNe5KUiNHoGen7ombWEwYvYUrNz2u4KVFLtIlTIVcHTdVmlH+Rb9uuLUpX+k+jbrTo2CKNJFcs6s2aWU3XXsELqNHiRVNymTGv2YUFwzsihPTZ9UqZE7lyPKlygtddluTcdPMtw+tm67lJlKfKR2etNuVC5VTmqdbTmwWxzX1Ar5YlJIKbWS0E6NCH//yrjvDPX1Q/dn1To0F5F2ZYRCGNFdHt3pycjSTWvFnbmxxGQ7NQq3TaRGXywZqdjmWzx0fypTFUmN1IiwvilfWUQKpki45PNHpjRkF0i/4DI7Gx3w1kRqFP774vaDgrDVSlykRuYbbieugO7V1AqFsK7dpaUwrVErdAdFd1FqJSFSM+Sqh8IV5aldXjpUEz0a7FyyFk1q1VM7JFGeQoOXa91Aqq5Zd2r1q9XE/hVyvxyP3J+iQhv5F9PETGp050ZH+m/KVwK9aJLdENktmUqsidQM+aGMi9TIhGPrwpVS0BGZkfEoRchQK3NHTcTAzj3VVhOv4O1+7h2nqcXaGQvRsVlr1W1Shc0HduGnifJ339SGIfed9AORr35FUOhyY4jJdmo9vu+IZRNnSum4/fA+9Bw/VKouVUpspEa/hGRMSe47dAcks7OQBTMxk9qKKXNAPpIysn7XFgyePkGmKmRJjWwoG/fuGGtHRbZiB1f9iVqVqkrpQ+Og8RgijWvWw66l66SaoIRAxZrWxLsPflL1Y1YyGaktHDsVfX+QcwqeumwByNBQVhITqZUoWATj+/2MulW+MemOLD6sEzOpnf5jt9jpygjd99K9r4wYm9TIJe7I2q2oVq6ijDpo0KM9Lt68KlVXV0n2IYrqU4SRit9/C3LxM4aYjNQoQkCvtp2kdBw9bzpcN6+XqptYdmoZ0qXH4K69MbJnf6RMYb7wyzFBT6ykRne9dOdLR1oZUWM8HLN9Y5Ma2YGe27xX2pMgW9Xi+BT8WQaGqDp0z+l3RS6rV7B4qGgm7taMISYjte2LVqN53YZSOpI/GBkCyoqt79RyZsuOY+u3I7+zi7QhpSx2SYXU0qZJi0vbDyF/buWpF6Njk6tGaenUdMYmNXp9FASdV46g05Y1kl/2rWdSy85mSG330vUiTZqMUDzzdX/Jn/FtmdRyZcuBva4bUbJwURnojF4nse7UyNuFiEDGsZxAzly5qF5Xovgmg0nta2RshtT4+Bl7SVNEjS8vZnG/8mRKnwE39pwAxZW3FkmspEYYE6lRNBAZsabjp6E7tfwNKsPb10cGhqg6Dhky4dW5+EO/J9Q43amVb9MQL71eGaSDrrLJjp+GkNrSP9dh7PxfpQdoqzu1yQNHiBdOa8qulVhJLXNGB0FqzjlzSa0z8lckv0UZMfZOjWLmHV+/Q/rRw9IPBTbz+kkvdhP6yZllHD57UtjjyIotkhodg8hhWybmWUycyG+Ugu9RdiHvd77w8fMVv8RkkU8JktVIYiU1Q+/Upiydj3nrXNVAGVWWsoVROCW1Ep9Jh6GvnxOXzMHCDXL2eroxkIcEeUrICMXVy1evEugYagwx2U6ty3dtsWpabAdiJUpTyB2XOmThnHDctPjaskVSWzB2KvpJmsBQVAXylT19+V+s2r4p3gzlY/oMwqSB6tx6Ei2p2acROzWKvScjl25dFwl61Ma1o75onmm+1crFW9fQuFdsOzVqZ9uiVWhRV85g/eTF8/iuv5z5lW4MFBaKbChlhH6AS7WoI1M1zjomIzWyev9ny35pF52+k0aJVFoyYmukRiYbZDNVtlhJ1cOlBUHOyFfv3sR7/48J1mdS+3+HdjriE6nJBlSkAJB0P+rj9071nMmSGuVirdGpBUL+F+05eseyR1pqIyAoCIUbVZN+zSXj3wOrNqF2pWqqsaAKK7f+jhFzpkjVjauSyUgtj6OzWDR0+S0jFKaYwhVTaBK1Ymuklj5tWjw5ehFkm6ZGKKw5HdMpJLYSYVL7OkrHymnz0PW7tkqgi1WGdsfkWrT10B7V9WVJLaGHJgrXvmLKXNW6UAUlOV4TapiuTO4ePCP96NK8bxdxyjCWmIzU6AtKdkAuTrmlde02ejB2HTuour6tkRr5bnqdjz9+flwAhIaFiZ0C+ckqFSa1r0mtd7vOWDJB/kGKEtzkpbsglf6fpiA1yk1w/5B8Ls0VWzZi5Fz1R2Jae33ad8Hi8fEHr0xoffoHBSLXN6WULmFF5UxGarS9p1Desga4pD1dINIxlNJpqRFbIzWKbvDXb+r85l56eaJah6ag+0elwqT2NallzuQAjzM3lMIXZ7k9xw+jyyh1KfVMQWqk3K19J1HIRS78D5kZNe79A67evaUKj9y5nHDdgAeu89cuCX9WY4rJSI2UrF+tFvavkAs8pxvkxwB/dBszGOeuXlIcATcpkBrdpVXt0ExkF1IqTGqxg0QakjxGh/vBM8cxaOo4+LxXdr9mKlKjRyCaY1m5/eg+GnRvp9hlilIJLp88G/QoKCszVy7BjJWLZavHWc+kpEa7teu7j4sYX4YIJW29cOMKyNNASfyqpEBqb3zeiuPnWz9fxdAyqcUmNcpSNbLXAMUYxlfQ0/s1yGd538kjel9Epw4ZhZE91fepz3i7YskyOLFxp3QEWhob7Zw6jeivN3s6Gfz+NmEGOjZvLf0YSP1VaNMQj9zlglPGNxcmJTXqdEjX3pg1Qi5ES0yl6ULz3tOHuHz7hnB+pXyE9HJDkjKFHRxz5ETGdBlQOG9+dG8jl8xBSYq8h3//I+VeE9+ilDl+hkeE46eJo7D9sHIfWSa12KRWtWwFnNwo98oe15eKdtC3Ht6Dm8cLeL19I5KYOOd0FPlEyTezeMHCcJDMvqSP1Cji8c29J5E7p6NBJE0ks2LrRuw8ciDO3AvN6jQQwRZqlK9skKG4vpwLsoMwOamRGwpdYBLgtiBKSI1eKp1y5FQ9nPgWJSVfph2tjFDcuaP/nIF/gD8itdpYTZC1OZmMUHDJn7v9hKE/9lHVTWK1U4sOwoVtB6VzaagC08DC+kiNmqcfyB2L1xi0e4qu5okLZ+H28ksW9VzZs6NZ7YZGyWD/OfizOGk8fSHnBJ8QlCYnNeq8fZPvsGHWEgOn1DzVLUFqFH7b7fhlpE2jPoN6RGQEPN+8ge8HP9y4//95NFOlTAkKf03HBMpTQLsDepGmf1cjSYHU6OXw+p7j0qHn1eBpSFklpEbtn/z9L1QtU8GQrkxe98j50+gwtI+0gb3FSY12CxSKqLFk1A6TIxytAyWk5nbislRCmfgWpUhcseNvFHIxTggYY+KVFEiNjEfXzVyEdo1bGBM6o7ellNQa1aiL3cvk4xEaXfEYDZLhct1ubeDx2sskXZllp0aaUyKQJ0cvwCFjJpMMxFiNKiG1IMm4UY+fuaE6RemI4eNGiVEoVFPDb+RyNhpr7HG1kxRITbc+nx6/JG0sbso50LWtlNSo/BTxANIfGmjMoZriPsitrN/k0dLeQko6MhupkTIUmprCDpN9kLWKKUmNkjNTdIfw8PBYw29epyG2L15tdbAkFVIj4ClL+x7XjRaNNJzQAlBDanSlsWvpepGgx5pk8cbVmOq6QLF5lozuZiU1UpCiUVCWKdkcgTKDVFNHH6nRyyq9MMlIfFEWdG0R4desKJc8Q0YfJXWSEqkRHhSCfsaw8SDXNWsTNaRGulPW9L2uv6NEoSJWMZQtB3ej/+Qx0qn4lA7C7KRGipE/6I4la0SuSmsTfaRmyH2FPlKjIABnNu0GxZy3FklqpEa4d23ZFiunykWYMeW8qSW1L8SWEzd2H0f6dOlMqZretimS9bBZkxAhGXlHbwfRCliE1Kh/epHr1rIdRvcZCAphbS2ij9Qm9B+K8X1/llL3yLlTaBtP3kZdg60bNsXKqXOFCYY1SFIkNcKdXg8pdFZBK3q8kSE1GkvmjJmwaPw0tG1k/ocQiu23YP0KLNu8Xio4hcx3wGKkplM2W+YsIKvuxrXqSXv5yww8vjr6SI2OzpSoWUbI2pystfVJk1r1sWzSTIGHpaPgJlVSozmix60Zw8ahbeMWghgsLVfu3MS3PduLqBoyQg789KOcPXNWmeqq6pDRsfurF/jpl5G4fMcw/1pVHQOwOKmRwvTFzeaQBbUrV8eoXv1RopBlko6QUy9Z6A+YOjZOHCnCqPvJK8gi+dCxaONK/LJ4jqI5ohj6E/r9jF5tOysqb6pCSZnUCFN6maaTxOAuPYUVvTHk6Qt3KcdzfdcX+nSj71n2LFkxacBwaY8bfX3Q/38MDMDI2VOw/9QRBH76pKSKUctYBanFHBEZjdJLVPkSpVCyUFERRz6rQxaDB06/cN6+b0Vo65evPYWdjMcbT2ExTb8qT5+7J9gHubvc3HtC/ILLyOi50+C6ZYOqqsUKFEKzOg3RsHptlCpc1CQJjelX1dP7Dd74voXfh/d44+sj/kxuPicunIs3yawhzuAyiUsoRyf1STk71cpfRw/ixzGx3aTUtEOnCrLYp7vg0oWLoViBwkihICfrC69XIGfxCzeuYs+Jw2hZv4nI0q5WKKgDxR4jg2tDhXQnuzwaT+kixQ1tTjjBn796CYfPncTuY4f0+o4a3GECDVglqcWlLxEKuRMVL1BYvJxGPw5UKlUO9548xOdoca1CQkNw98kjkf355sO78HjjBS/vNwZhSVnS9634A8mTJZNqp/PIAdh74m+pulSJjJgpOm69Kt+gfPFSKFm4mPAYoGgJZEAaXULDQqP+SqRF/ohE6uQz+8HfH+6eL/H2nY/4ssWX3Upa0SRUkdYkzYNTtq/d5kLDw3D3yUOxLmOGh5KNUmsqX0kXR2fhmN66YTPkypZdmLToPE+iP1qRjVlYeBgiIiLFWqLv2AO3J9hyYDd2HT341ffPkkvAZkjNkiDp+jY0tAuFTKYdkbHFPlVqpEr19e6FchawWCcCi8ZNw08duqpWbu3Ozfh5xi+q6ymtQMdTcqUj6wTdpoHyo+qEcobQxT+RWWBQEHzf+ykOU6RUB2OUY1JTiCLtiO7sPyPlyE5dUFw4x5plFPbGxRIzAhQQlI59amWa6wLMWbNMbbUkV55JTeGU9+/4I+aPkU8O8fe5k2g7xDgXzQpV5mJWigBFii2av5Bq7bqPHSLCAbEkjACTmoIVQvcL57fsF25esjJ81mSs2v6HbHWul0gQcMqRC/cPnZUK5FihdUM8embcgIqJBNavhsGkpmBWu7fuANfJsxWUjLsIXa7W/7Edrt9Xl1xFukOuaJUI0J3ViilzVCeUpsFQcpcsVYpZ5bisTSkmNT0zQq+NZzbtQQo7O+m5o6xDBRtWFZesLEkXAUqcfGnHYSmToOP/nkWrgd2TLngqRs6klgBYFIJ5r+tGlCtuWAqvXxbPxqKNq1RMCxc1FwIUkZnMfswha39dKEwnZITyH7hutt4YaTJjMlUdJrV4kCVXkkOr/0RxA+7RqGlKjJKvnnWFfzHVYrLFdjfPXw5KCr1xz3ZQ8EJTOFzbJU8usjyN7zdUCiIypWjSuyMu3LwqVT+pVWJSi2PGKVrGlgUrQEaJhvpeLv59NSYsmpXU1pXNjHfv8t/RsHotvPvwXhgiL9yw0qjZwsnma9nkWWhWu4F09BWyCSMbR3I/YtGPAJNaNIzIFj5lX2EAAAdNSURBVK19k5aY/vMYkf3HUPHxe4daXVrhpdcrQ5vi+iZCQEdq0ZunjFBHzp8C+Vo+cHuKR+5PVfVOOzPa4derWgN9O3RFHkdnVfVjFiainbhEmc+wQR0lkspMav9zqKe0YpsXLEf54qWNMrXkUkKZuw1xizKKItxIggjERWoxK5Cb2cVb10RC7ev374hd3QO3x1HFkmmSiWxUzjlyiQgu39aoIx30IGbf5BniVKssz6IKBJI8qdFCnDRoJJrXaWBUZ/EzVy6gzaCewqWExXoRUEJqltSery/Uo59kSY0cdYf36Ith3fsaPSAjXTw37Nke7z9+UD8jXMOsCFgzqVHW91qdW4mIKSzKEUiypEYPAAVyu2DjnN9QrphhJhsx4a7avqmI0MBi/QhYK6mFhYWhad/OIlwRizoEkiyp6WCiMCtVypRHl+/aiqTLhuQHePzsP/w4ZggTmro1aNHS1kpq9Dgwddl8kyT7tSjgZug8yZNadIyL5CuAuaMmoUKJ0qryk9KjwLlrl9Br/DBh68RiOwhYI6mR0zo5r7PIIcCkFgdulFpsSNc+6NfxR73uUaFhYRg5Zwq2HtpjtsQSclPNteJCwNpIjUxJuo0ejKDP5g+DnVhWCJNaAjNJYcUp5HG3Vu1A0RWiS0RkJI79cxpz1rji6t2biWU9JLlxWAupUdCDdX9txdj506UTqyS5yYtnwExqClYChcse3XsgBnTqIaKC0mtUv8mjcfLieQW1uYg1I2ANpEbhvofO+IVjpRlpoTCpqQAycyYHFC9QCPefPsZ7DpetAjnrLWppUtt6cA+mL18oEgHR3SyL4QgwqRmOIbdgwwiM6/szunz3PfI4OoE8A8wh5JHwz/XLWLRxNV9dmABwJjUTgMpN2hYCZLNYqWRZjO4zCI1q1BG5Pk0h/oEBmLt2OZZv2cCeJqYA+H9tMqmZEFxu2vYQoOxJBV3yIZ9THlDOVTLvcXFyRn5nF5GKUKmQE/wLzy/5Pm8+vIenL56JvLLhEXLZ1ZX2y+WsJEM7TwQjYAsIUL5ZSqRMIakyps/wlcofAj7ipZen+Df2JrHsbPJOzbL4c++MACNgZAQ0o36dpHXdyVmOjIwrN8cIMAIWQkDz6+J52pkbXC3UPXfLCDACjIBxEdCs2LBGO2LxDOO2yq0xAowAI2AhBDR7D+zXdps8nF9lLDQB3C0jwAgYFwHNqVOntJNWLsSNx/eM2zK3xggwAoyAmREgm0PN2bNntfQEPdZ1LiK1kWZWgbtjBBgBRsB4CDStVgeaf//9V+v7zhcTVsyHu5eH8VrnlhgBRoARMCMCaVLbY+GQCdBcvnxZ+/HjRxz59wxW7t1iRhW4K0aAEWAEjIdApaKlMKpbX2hu3bolSO2dnx/mb16NW085tr7xYOaWGAFGwBwIZEqXHpN7DkEBl3zQuLu7a729vUHE9uS5G6ZvWIag4M/m0IP7YAQYAUbAYAQoukr/1p1Qu0JVZMyYEZrAwECtm5sbPnz4ID5PXrgLYguPjDC4M26AEWAEGAFTI9Ciej20rd8UDpkyfSG14OBgLZHZy5cvxW7N398fp65ewKaje5nYTD0b3D4jwAgYhEDtspXRo1lbpE+fHpkyZYKzszM0YWFh2vDwcLx9+xaenp6C2AIDA/HU4zmW7NyIgE9BBnXKlRkBRoARMDYCdsmTo1WNBmhavS7Spk0rdmhEaDly5IAmPDxcGxkZCUqe6uvrK3ZsAQEBgti8fLyx49Rh3PqPHw+MPSncHiPACMgh4JQ1Bzo2aI5ieQsiXbp04uPi4oJs2bIhZcqU0ERGRgpSi4iIEMTm4+MjdmxEbEFBQfj06ROuPbqLs7euwP21ByiLEgsjwAgwAuZGIGfmbKhUpCTqVqiGzBkzIU2aNILQaIeWPXt2QWh2dnbQaL8IiNjoGEqf9+/fC2Kj+zUitpCQEISGhsLv4wccvHgaVx7d4czR5p5R7o8RSKIIuOR0wvc1v0Wh3HmRIkUKpE6dWnyI0JycnKJ2aILQyE1KMBogSI3+qNuxBQcH4/Xr13j37t1XxEa7ueDQEPi898PHoAAEh4QgOCwkicLNw2YEGAFjI2CX3A5pUtkjXZo0yJrRARnSphM7MPoQmdEOLWvWrOKTIUMGQXQ6QqP8ElGkRoSm+xCx6ciN7tboEUF3HKVdG+3m6P91RKirZ+zBcXuMACOQ9BAQuy2NRiTAobwQRFhEXPb29uKFk46atEvTHTepjK7OVzs1HXS6o6hu16YjNyIz2r35+fkJezY6jhK5RS+f9ODnETMCjICxERC7LY1GkBkRFpEZvWrSKyft1HQ7M/o/XdnoGcCidmrRFdPtvKIfSaPfuel2crrdGtXlRKzGnlpujxFImgjodmm6nZput6YjOfr36GRG5aNLnKSmIykdUcUkOSI43YcJLWkuPB41I2AqBHQkFZO4Yu7KdEfOmHrES2oxC8a1E+PdmammldtlBBiBmDswQiSuf4uJ1P8BsBRiIOL/+aIAAAAASUVORK5CYII=;" vertex="1" parent="1">
          <mxGeometry x="956" y="399.85" width="150.23" height="70" as="geometry" />
        </mxCell>
        <mxCell id="frwQdyB-kEVW_D3ccvK7-9" value="Ai Model" style="shape=image;verticalLabelPosition=bottom;labelBackgroundColor=#ffffff;verticalAlign=top;aspect=fixed;imageAspect=0;image=data:image/png,iVBORw0KGgoAAAANSUhEUgAAAD8AAAA/CAYAAABXXxDfAAAHz0lEQVRoBe2beWwUZRjGpxRoF7C7IIdHjRVrBDUxMfqHYEw80MqhCCYGA42CYqJBY1QkCgpoBUXb7bFtd7cXh1oxtdqoNXL0pEVUDPSg17b03LZAd1trL9h5zPvNTjvubrezZXFnsU3ezGx30vT3Pe/1vTPDQcYPz/OwWCwwm83MWltb4S1ra2tDQ0MDqqqqUF1d7dKam5tRXlaOjvZOGf+t/Es4OZf29vbi4sWLXgenBZQDX19fj9KSE0jWpXl1AWTBk+r9/f1eU1vqNbLgG+qRn1eI6D1JSDXs89oCyIbv6+vzKXxBfhGidn6OeK0RKXpagA45Tuv2Gr+C//jDaOzZHTe8AO3my1sAv4QXF8Co34f2y0iCfgu/Z3fssAeMtwr4MXwcC4EErRGG5L3jSoJ+Dy+GgCEpw+MQuCrgxQXQJ6Z75AFXDby4AEYKgY5zbkuc+OVVBf/prpEyKGcB/AaeOjxqckhh9yZUATke4BfwpnoTSkt+xa6PYkCNzicfa0e3KC12R8UgNloPY9JemNvaRS93OvoFfE1NDch+yMmFLs6AeK0eCbEGt0bXpOj348v938DSZXUCp1/4BTxtdQneZKpDRXkFTp8uQ5kcKytDc1MLOjtcb4X9Bl7c69fW1kKu1dXVwdxuhtXq58qL8J4cyVto+0xbclc/fqf8BPwo4y7HhZlQ/nLdvqsH+HsIaG7v87q1dAzA1HwBFaZWVNabZdmZuiaXg06vKc93n4CtegNsVRvQfyoSQ+UvoPfkc963P9fAmr8Jlu83wZrz6tj23YtoKTmAqtqGMRdgfG4/2Aq+NBQo54CTHFDEwXaIAw5fATvKwfb1bCDueiBhztgWPxO8fj4af8vBWB4wLnj+Qi7wGwfkc7DlXWEr4HAxaz74pNvB62+VZUi4FubCZBYijq4u/Tx++BMceKXC6+airciIyvo2t64/TvifgV8n4JXp9kpWHgUcUMyBL5CRLxxiHinhQFo4YBg9/qFUeKoMA78EoPPrQFw6wgGFYyyABB6p4bjweRjOfnQTgx9tARQJT+A9OZOQtWEGkpep8fPr0zF0mAPvbgHs8DAuQPX2UGx9cBo23RuEHzfOgc0Y7jL7KxO+hEPRVhViHpoJXYQa2odnojxmKlDqRn0RPn0hDjw3C8/fOQWv3DMVmxep0BN7CygMHEug4uApxru+nYTUp9VIfEIN/XI1dI9rkLnuGgweChjd/UX4tIUoen0eNt49Fc/fNRnGZzS4pL/VZewrD55U36ZC3KMaBk7wZPFLNCjXulFfjPlkock59e4NKH5j3qiqkxcoCp5Ut2aT6iFIsqtOMU/wCY+rkRlJ6nOgKuDUMYrwSbcLSS79NiDjNpfuLrq/suBLhViPfURQncCTl6qhp+NyNfOGClL/uHt4pqrBtauL4IpSnlS3ZE9CylNCrCdGaHBgzTUgWOOTapb1Ex6zx/7hAOfML1WeanxqOGAUjlJg6bkilOfzOJbJC7eqwFRfIah8fGcw8DuH3NemD+cAygUs8zuqL8LrF8CqDUPmullIXqVB7fZQthBSaPFcEfDDGX5lCBKf0DDLeCYEPTkBbFfYun8ykpZK1F8rZP5/1X07PNIXImfDbETeMRnr75qCqCUz0K+bDxidOz1lwFOGf28kw1Nm/31XEFMdJRyL8UNvTmMZn2V+UX1p3ZfAZ667lpW61+4Lwlv3q2CJDnOZ+HwOz2Kd6jpTXc0UpmxvMk7BuaxAdGQG4nx2IMqig5BEiW8ZZX4XdV8CfzByBH7zYhWsMUqFt3dzw3V9mZoluPTVIUhdqR42+mxYIZQ9yvys7ku7Pn+DFzM8QYrdHLk1qUt1/l9GJc/e8NBRJ2b+X+xdn9/Bl3IoFjP8csHlSVEqaa4s3v57WhwW+9Kuz5/gxVhPIdWXCipThi9+X4WS7cEo+cDZSncEI3+LCga7d4h1f+BQAPhiYYZH2V7xMc8fE7o5rb2bo5g/viNYGHge4wBXRpm/hMNPm6aN1P0lGlTECl0fDTAd4d9epIJFSQmPevNLRzlkrZ/BmhpSMG0V1fVJbHLj1LdLJr8ET3Wfdnq6CA3b7lIZpO3uJTv8V2tnsRpPW9p3HlDglpbcvjJuKnNhit/T0UFMbXfg9B1NgmnYUbQtGIkRamSsDkHLvsnMI5jyKQtQse1GbFmsYsOM71+cLQwzXIyzfFfnCaKQw7lvAtF5MFDYp8sccbOZXj4H8xeBbD/AbobYEx7N7Wlwce6zMDR8eBMwyl6eWlzfwdtdmTyAzNPZPvMAygt0F4j+lgSegfnzAHMs93f63gFe3Ly4O/pceScISXLz6Dvlwef+j+/YnFf+jcq2K3ajsu8sbMfmAqc4oXmhuTvN349cAaNwOTgXiA8FdNeNbQlzwCffjMYT2Thjavb+jUp6com3FsNW8wJslWsxeOpZDJWtQe8fq71uf59che68jbB++zKs3700pnVnr0frsQxU1da7Badb1eO6S+v42Jalx4a+QaDF3ON1a23/C6amTlTWNeGMqUWescdSav4jeIsFvny7SvrAgSfn3lF+At5379V5orb0Wq8o39XV5dM3KqVAnpx7Bb67uxsDAwM+e6PSE2DHazs7Oy/vwWObzQb6I/QAr/Q9WG+cy3mX1hFI7ufGxkY0NTWxl6AdKxh9/gc1pqmdlNDybgAAAABJRU5ErkJggg==;fontSize=16;" vertex="1" parent="1">
          <mxGeometry x="1141.23" y="394.85" width="80" height="80" as="geometry" />
        </mxCell>
        <mxCell id="frwQdyB-kEVW_D3ccvK7-10" value="" style="edgeStyle=orthogonalEdgeStyle;html=1;endArrow=block;elbow=vertical;startArrow=none;endFill=1;strokeColor=#545B64;rounded=0;" edge="1" parent="1">
          <mxGeometry width="100" relative="1" as="geometry">
            <mxPoint x="1279" y="431.29" as="sourcePoint" />
            <mxPoint x="1379" y="431.29" as="targetPoint" />
          </mxGeometry>
        </mxCell>
        <mxCell id="frwQdyB-kEVW_D3ccvK7-11" value="Lambda&lt;br style=&quot;font-size: 16px;&quot;&gt;function" style="outlineConnect=0;fontColor=#232F3E;gradientColor=none;fillColor=#D05C17;strokeColor=none;dashed=0;verticalLabelPosition=bottom;verticalAlign=top;align=center;html=1;fontSize=16;fontStyle=0;aspect=fixed;pointerEvents=1;shape=mxgraph.aws4.lambda_function;labelBackgroundColor=#ffffff;" vertex="1" parent="1">
          <mxGeometry x="1399" y="393" width="78" height="78" as="geometry" />
        </mxCell>
        <mxCell id="frwQdyB-kEVW_D3ccvK7-12" value="Amazon RDS" style="outlineConnect=0;fontColor=#232F3E;gradientColor=#4D72F3;gradientDirection=north;fillColor=#3334B9;strokeColor=#ffffff;dashed=0;verticalLabelPosition=bottom;verticalAlign=top;align=center;html=1;fontSize=16;fontStyle=0;aspect=fixed;shape=mxgraph.aws4.resourceIcon;resIcon=mxgraph.aws4.database;" vertex="1" parent="1">
          <mxGeometry x="1619" y="394.85" width="78" height="78" as="geometry" />
        </mxCell>
        <mxCell id="frwQdyB-kEVW_D3ccvK7-13" value="" style="edgeStyle=orthogonalEdgeStyle;html=1;endArrow=block;elbow=vertical;startArrow=none;endFill=1;strokeColor=#545B64;rounded=0;" edge="1" parent="1">
          <mxGeometry width="100" relative="1" as="geometry">
            <mxPoint x="1500" y="434.14" as="sourcePoint" />
            <mxPoint x="1600" y="434.14" as="targetPoint" />
          </mxGeometry>
        </mxCell>
      </root>
    </mxGraphModel>
  </diagram>
</mxfile>
